<svg width="37" height="37" viewBox="0 0 37 37" fill="none" xmlns="http://www.w3.org/2000/svg">
<path fill-rule="evenodd" clip-rule="evenodd" d="M36.4542 35.8327C36.4542 36.1759 36.1759 36.4542 35.8327 36.4542H0.621473C0.278271 36.4542 0 36.1759 0 35.8327V0.621269C0 0.278298 0.278271 0 0.621473 0H35.8327C36.1759 0 36.4542 0.278298 36.4542 0.621269V35.8327Z" fill="#E02A42"/>
<path fill-rule="evenodd" clip-rule="evenodd" d="M29.9629 18.982C30.4389 18.3578 31.2856 18.0898 32.1329 18.0898C32.5045 18.0898 32.876 18.1495 33.2177 18.269L32.4897 19.9184C31.4042 19.4424 30.3046 20.0966 30.1114 21.1222V24.6591H28.2539V18.254H29.695L29.9629 18.982Z" fill="white"/>
<path fill-rule="evenodd" clip-rule="evenodd" d="M26.0018 26.9253V28.6328H23.8607V33.3541H22.0077V28.6328H19.9756V26.9253H22.0077H23.8607H26.0018Z" fill="white"/>
<path fill-rule="evenodd" clip-rule="evenodd" d="M7.10504 31.4036C6.78489 31.7385 6.35901 31.9214 5.90162 31.9214C5.44508 31.9214 5.01855 31.7385 4.6836 31.4036C4.3643 31.053 4.18075 30.6114 4.18075 30.1399C4.18075 29.6677 4.3643 29.2105 4.6836 28.8756C5.01855 28.5406 5.44508 28.3577 5.90162 28.3577C6.35901 28.3577 6.78489 28.5406 7.10504 28.8756C7.44 29.2105 7.60769 29.6677 7.60769 30.1399C7.60769 30.6114 7.44 31.053 7.10504 31.4036ZM8.0158 26.9381L7.86737 27.5491C7.27125 27.0426 6.49771 26.7449 5.66372 26.7449C3.77261 26.7449 2.25391 28.2488 2.25391 30.1399C2.25391 32.0153 3.77261 33.5343 5.66372 33.5343C6.49771 33.5343 7.27125 33.2365 7.86737 32.7301V33.356H9.44506V26.9381H8.0158Z" fill="white"/>
<path fill-rule="evenodd" clip-rule="evenodd" d="M7.10504 22.7258C6.78489 23.0608 6.35901 23.2437 5.90162 23.2437C5.44508 23.2437 5.01855 23.0608 4.6836 22.7258C4.3643 22.3752 4.18075 21.9337 4.18075 21.4621C4.18075 20.9899 4.3643 20.5328 4.6836 20.1978C5.01855 19.8629 5.44508 19.6802 5.90162 19.6802C6.35901 19.6802 6.78489 19.8629 7.10504 20.1978C7.44 20.5328 7.60769 20.9899 7.60769 21.4621C7.60769 21.9337 7.44 22.3752 7.10504 22.7258ZM8.0158 18.2604L7.86737 18.8713C7.27125 18.3649 6.49771 18.0671 5.66372 18.0671C3.77261 18.0671 2.25391 19.5711 2.25391 21.4621C2.25391 23.3376 3.77261 24.8565 5.66372 24.8565C6.49771 24.8565 7.27125 24.5588 7.86737 24.0523V24.6783H9.44506V18.2604H8.0158Z" fill="white"/>
<path fill-rule="evenodd" clip-rule="evenodd" d="M31.9477 31.4039C31.6275 31.7388 31.2016 31.9215 30.7442 31.9215C30.2877 31.9215 29.861 31.7388 29.526 31.4039C29.2069 31.0533 29.0234 30.6115 29.0234 30.1402C29.0234 29.668 29.2069 29.2106 29.526 28.8756C29.861 28.5407 30.2877 28.358 30.7442 28.358C31.2016 28.358 31.6275 28.5407 31.9477 28.8756C32.2826 29.2106 32.4503 29.668 32.4503 30.1402C32.4503 30.6115 32.2826 31.0533 31.9477 31.4039ZM30.7294 26.7375C28.7599 26.7375 27.1777 28.2594 27.1777 30.1402C27.1777 32.0349 28.7599 33.5417 30.7294 33.5417C32.7144 33.5417 34.2959 32.0349 34.2959 30.1402C34.2959 28.2594 32.7144 26.7375 30.7294 26.7375Z" fill="white"/>
<path fill-rule="evenodd" clip-rule="evenodd" d="M15.8525 0H17.7204V24.4684H15.8525V0Z" fill="white"/>
<path fill-rule="evenodd" clip-rule="evenodd" d="M11.6992 0H13.5933V24.4684H11.6992V0Z" fill="white"/>
<path fill-rule="evenodd" clip-rule="evenodd" d="M15.8574 26.4817V30.4415V30.5817C15.8574 31.2077 15.3501 31.7156 14.7235 31.7156C14.7197 31.7156 14.7161 31.714 14.7123 31.714L14.7011 31.7156C14.0746 31.7156 13.5859 31.2263 13.5859 30.6003C13.5859 30.5631 13.5933 26.4817 13.5933 26.4817H11.6992V30.4817C11.6992 32.1745 13.1524 33.5344 14.7123 33.5344C16.2723 33.5344 17.7254 32.1745 17.7254 30.4817V26.4817H15.8574Z" fill="white"/>
<path fill-rule="evenodd" clip-rule="evenodd" d="M24.1316 18.2598V21.7681V21.9085C24.1316 22.5342 23.6245 23.0424 22.9977 23.0424C22.9941 23.0424 22.9903 23.0408 22.9903 23.0408C22.9829 23.0408 22.9791 23.0424 22.9753 23.0424C22.3488 23.0424 21.8601 22.5531 21.8601 21.9271C21.8601 21.8897 21.8668 18.2598 21.8668 18.2598H19.9736V21.8085C19.9736 23.501 21.4268 24.8612 22.9865 24.8612C24.5465 24.8612 25.9996 23.501 25.9996 21.8085V18.2598H24.1316Z" fill="white"/>
<path fill-rule="evenodd" clip-rule="evenodd" d="M36.4542 35.8327C36.4542 36.1759 36.1759 36.4542 35.8327 36.4542H0.621473C0.278271 36.4542 0 36.1759 0 35.8327V0.621269C0 0.278298 0.278271 0 0.621473 0H35.8327C36.1759 0 36.4542 0.278298 36.4542 0.621269V35.8327Z" fill="#E02A42"/>
<path fill-rule="evenodd" clip-rule="evenodd" d="M29.9629 18.982C30.4389 18.3578 31.2856 18.0898 32.1329 18.0898C32.5045 18.0898 32.876 18.1495 33.2177 18.269L32.4897 19.9184C31.4042 19.4424 30.3046 20.0966 30.1114 21.1222V24.6591H28.2539V18.254H29.695L29.9629 18.982Z" fill="white"/>
<path fill-rule="evenodd" clip-rule="evenodd" d="M26.0018 26.9253V28.6328H23.8607V33.3541H22.0077V28.6328H19.9756V26.9253H22.0077H23.8607H26.0018Z" fill="white"/>
<path fill-rule="evenodd" clip-rule="evenodd" d="M7.10504 31.4036C6.78489 31.7385 6.35901 31.9214 5.90162 31.9214C5.44508 31.9214 5.01855 31.7385 4.6836 31.4036C4.3643 31.053 4.18075 30.6114 4.18075 30.1399C4.18075 29.6677 4.3643 29.2105 4.6836 28.8756C5.01855 28.5406 5.44508 28.3577 5.90162 28.3577C6.35901 28.3577 6.78489 28.5406 7.10504 28.8756C7.44 29.2105 7.60769 29.6677 7.60769 30.1399C7.60769 30.6114 7.44 31.053 7.10504 31.4036ZM8.0158 26.9381L7.86737 27.5491C7.27125 27.0426 6.49771 26.7449 5.66372 26.7449C3.77261 26.7449 2.25391 28.2488 2.25391 30.1399C2.25391 32.0153 3.77261 33.5343 5.66372 33.5343C6.49771 33.5343 7.27125 33.2365 7.86737 32.7301V33.356H9.44506V26.9381H8.0158Z" fill="white"/>
<path fill-rule="evenodd" clip-rule="evenodd" d="M7.10504 22.7258C6.78489 23.0608 6.35901 23.2437 5.90162 23.2437C5.44508 23.2437 5.01855 23.0608 4.6836 22.7258C4.3643 22.3752 4.18075 21.9337 4.18075 21.4621C4.18075 20.9899 4.3643 20.5328 4.6836 20.1978C5.01855 19.8629 5.44508 19.6802 5.90162 19.6802C6.35901 19.6802 6.78489 19.8629 7.10504 20.1978C7.44 20.5328 7.60769 20.9899 7.60769 21.4621C7.60769 21.9337 7.44 22.3752 7.10504 22.7258ZM8.0158 18.2604L7.86737 18.8713C7.27125 18.3649 6.49771 18.0671 5.66372 18.0671C3.77261 18.0671 2.25391 19.5711 2.25391 21.4621C2.25391 23.3376 3.77261 24.8565 5.66372 24.8565C6.49771 24.8565 7.27125 24.5588 7.86737 24.0523V24.6783H9.44506V18.2604H8.0158Z" fill="white"/>
<path fill-rule="evenodd" clip-rule="evenodd" d="M31.9477 31.4039C31.6275 31.7388 31.2016 31.9215 30.7442 31.9215C30.2877 31.9215 29.861 31.7388 29.526 31.4039C29.2069 31.0533 29.0234 30.6115 29.0234 30.1402C29.0234 29.668 29.2069 29.2106 29.526 28.8756C29.861 28.5407 30.2877 28.358 30.7442 28.358C31.2016 28.358 31.6275 28.5407 31.9477 28.8756C32.2826 29.2106 32.4503 29.668 32.4503 30.1402C32.4503 30.6115 32.2826 31.0533 31.9477 31.4039ZM30.7294 26.7375C28.7599 26.7375 27.1777 28.2594 27.1777 30.1402C27.1777 32.0349 28.7599 33.5417 30.7294 33.5417C32.7144 33.5417 34.2959 32.0349 34.2959 30.1402C34.2959 28.2594 32.7144 26.7375 30.7294 26.7375Z" fill="white"/>
<path fill-rule="evenodd" clip-rule="evenodd" d="M15.8525 0H17.7204V24.4684H15.8525V0Z" fill="white"/>
<path fill-rule="evenodd" clip-rule="evenodd" d="M11.6992 0H13.5933V24.4684H11.6992V0Z" fill="white"/>
<path fill-rule="evenodd" clip-rule="evenodd" d="M15.8574 26.4817V30.4415V30.5817C15.8574 31.2077 15.3501 31.7156 14.7235 31.7156C14.7197 31.7156 14.7161 31.714 14.7123 31.714L14.7011 31.7156C14.0746 31.7156 13.5859 31.2263 13.5859 30.6003C13.5859 30.5631 13.5933 26.4817 13.5933 26.4817H11.6992V30.4817C11.6992 32.1745 13.1524 33.5344 14.7123 33.5344C16.2723 33.5344 17.7254 32.1745 17.7254 30.4817V26.4817H15.8574Z" fill="white"/>
<path fill-rule="evenodd" clip-rule="evenodd" d="M24.1316 18.2598V21.7681V21.9085C24.1316 22.5342 23.6245 23.0424 22.9977 23.0424C22.9941 23.0424 22.9903 23.0408 22.9903 23.0408C22.9829 23.0408 22.9791 23.0424 22.9753 23.0424C22.3488 23.0424 21.8601 22.5531 21.8601 21.9271C21.8601 21.8897 21.8668 18.2598 21.8668 18.2598H19.9736V21.8085C19.9736 23.501 21.4268 24.8612 22.9865 24.8612C24.5465 24.8612 25.9996 23.501 25.9996 21.8085V18.2598H24.1316Z" fill="white"/>
</svg>
