<svg width="491" height="591" viewBox="0 0 491 591" fill="none" xmlns="http://www.w3.org/2000/svg">
<path fill-rule="evenodd" clip-rule="evenodd" d="M72.3076 1.95664C67.8176 4.69464 65.9646 7.98164 65.3036 14.3796L64.7326 19.9136L36.4476 20.2076L8.16164 20.5006L5.45364 23.0006C-0.375361 28.3826 0.00363761 9.49863 0.00563761 294.219C0.00663761 541.927 0.103639 556.694 1.75564 559.981C2.71664 561.895 5.03264 564.483 6.90164 565.731C10.1416 567.896 11.1966 568.001 29.6516 568.001H49.0036L49.0186 574.751C49.0356 582.646 50.2816 585.598 54.9156 588.721C58.1736 590.916 59.0856 591.001 79.4016 590.994C98.2466 590.989 100.804 590.79 103.309 589.138C107.957 586.074 109.289 583.243 109.795 575.354L110.267 568.001H245.136H380.004V573.481C380.004 580.746 382.387 586.457 386.473 588.982C389.479 590.839 391.419 591.001 410.724 591.001C430.911 591.001 431.837 590.914 435.092 588.721C439.726 585.598 440.972 582.646 440.989 574.751L441.004 568.001H460.356C478.811 568.001 479.866 567.896 483.106 565.731C484.975 564.483 487.291 561.895 488.252 559.981C489.904 556.694 490.001 541.927 490.002 294.219C490.004 9.49863 490.383 28.3826 484.554 23.0006L481.846 20.5006L453.56 20.2076L425.275 19.9136L424.723 14.5696C424.42 11.6306 423.451 7.83264 422.571 6.12964C419.301 -0.192361 421.557 0.000639069 350.936 0.000639069H286.769L282.886 3.88264C279.223 7.54664 279.004 8.10964 279.004 13.8826V20.0006H225.143H171.282L170.749 14.1276C170.123 7.21864 168.14 3.76764 163.544 1.58664C160.656 0.215639 154.452 0.00163878 117.853 0.00463878C77.6406 0.00763878 75.3426 0.106639 72.3076 1.95664ZM157.504 16.5006V19.5006L118.254 19.7626L79.0036 20.0236V16.5006V12.9776L118.254 13.2386L157.504 13.5006V16.5006ZM411.004 16.5006V20.0006H351.504H292.004V16.5006V13.0006H351.504H411.004V16.5006ZM476.763 82.2506L476.504 131.501H245.004H13.5036L13.2446 82.2506L12.9846 33.0006H245.004H477.023L476.763 82.2506ZM70.4096 52.3566C56.3606 56.9596 48.0106 67.9156 47.9986 81.7616C47.9916 90.4136 50.6036 96.5986 57.0086 103.091C64.0356 110.213 70.0626 112.455 80.3826 111.785C91.7136 111.05 99.6226 105.924 105.051 95.7966C108.012 90.2716 108.428 88.5826 108.45 82.0006C108.479 73.2366 106.328 67.5796 100.527 61.1576C93.3716 53.2376 79.8126 49.2756 70.4096 52.3566ZM153.504 52.3396C147.294 54.3966 143.82 56.5086 139.803 60.6686C134.061 66.6156 131.545 73.1126 131.545 82.0006C131.545 94.4836 137.042 103.365 148.226 108.954C159.488 114.582 173.703 112.42 182.843 103.69C190.768 96.1216 194.049 82.6726 190.545 72.1226C188.239 65.1816 180.637 56.9496 173.827 54.0196C167.446 51.2746 158.861 50.5646 153.504 52.3396ZM238.504 51.8826C233.103 53.3116 225.32 57.8366 222.474 61.2016C211.478 74.2046 212.006 91.2816 223.775 103.263C242.366 122.189 275.298 108.584 275.298 81.9766C275.298 74.1606 271.667 64.9916 266.668 60.1826C259.738 53.5166 246.769 49.6946 238.504 51.8826ZM320.504 52.3396C313.712 54.5896 310.438 56.7236 305.705 61.9886C292.193 77.0166 297.054 100.432 315.495 109.157C330.963 116.474 349.19 109.74 356.378 94.0516C359.351 87.5616 359.254 76.3196 356.165 69.4016C350.242 56.1396 333.383 48.0726 320.504 52.3396ZM403.955 52.3036C394.922 54.8576 387.604 61.2206 383.659 69.9496C380.645 76.6206 380.82 87.8156 384.045 94.5006C390.915 108.746 407.36 115.5 422.576 110.325C429.55 107.953 438.095 99.2546 440.467 92.1116C442.663 85.4986 442.205 74.2106 439.528 69.0006C432.627 55.5676 417.508 48.4716 403.955 52.3036ZM419.471 66.1676C420.864 66.8026 421.99 67.5866 421.972 67.9116C421.954 68.2356 418.588 70.4146 414.49 72.7536C405.93 77.6396 404.401 80.3706 407.724 84.8376C410.664 88.7906 413.312 88.6396 420.99 84.0786C424.765 81.8356 428.112 80.0006 428.429 80.0006C429.874 80.0006 428.747 86.8956 426.717 90.4806C421.005 100.566 406.187 101.949 398.734 93.0916C391.162 84.0936 393.809 71.8636 404.504 66.4236C409.742 63.7586 414.024 63.6856 419.471 66.1676ZM72.0036 74.8456C72.0036 85.1116 73.3536 87.3786 79.1376 86.8206C83.6326 86.3876 84.9706 83.3856 84.9886 73.6936L85.0036 65.8876L87.7996 67.5386C89.3366 68.4476 91.5656 70.6106 92.7516 72.3456C100.104 83.1026 92.7806 97.6916 79.4746 98.7946C62.9086 100.169 54.4296 79.2346 67.1996 68.4886C68.8266 67.1206 70.5726 66.0006 71.0806 66.0006C71.5886 66.0006 72.0036 69.9806 72.0036 74.8456ZM155.004 74.2776C155.004 84.1016 156.423 87.0006 161.232 87.0006C166.8 87.0006 168.004 84.8406 168.004 74.8456C168.004 69.9806 168.272 66.0006 168.6 66.0006C170.403 66.0006 175.315 70.6896 177.027 74.0446C180.737 81.3176 179.09 89.0846 172.635 94.7516C168.279 98.5766 165.448 99.4236 159.33 98.7336C149.12 97.5826 141.967 86.7436 144.918 76.8946C146.041 73.1436 152.021 66.0006 154.037 66.0006C154.582 66.0006 155.004 69.6166 155.004 74.2776ZM238.465 73.8546C237.462 83.6546 240.709 88.2956 247.394 86.6176C250.626 85.8066 251.305 83.9346 251.951 74.0546L252.504 65.6086L256.131 68.8006C260.874 72.9736 262.354 76.7666 261.808 83.3476C261.049 92.5086 254.08 99.0006 245.004 99.0006C235.928 99.0006 228.959 92.5086 228.2 83.3476C227.657 76.8046 229.134 72.9716 233.763 68.9076C238.134 65.0696 239.245 66.2386 238.465 73.8546ZM322.004 74.2776C322.004 84.2796 323.394 87.0006 328.504 87.0006C333.614 87.0006 335.004 84.2796 335.004 74.2776C335.004 69.6166 335.426 66.0006 335.971 66.0006C337.987 66.0006 343.967 73.1436 345.09 76.8946C348.041 86.7436 340.888 97.5826 330.678 98.7336C324.56 99.4236 321.729 98.5766 317.373 94.7516C310.927 89.0916 309.271 81.3176 312.969 74.0696C314.747 70.5846 319.357 66.1126 321.254 66.0326C321.667 66.0146 322.004 69.7256 322.004 74.2776ZM477.004 293.501V442.001H245.004H13.0036V293.501V145.001H245.004H477.004V293.501ZM53.4616 182.875C51.2386 183.888 48.5386 186.018 47.4616 187.609C45.5486 190.435 45.5036 192.898 45.5036 295.045C45.5036 394.126 45.5976 399.733 47.3076 402.343C48.3006 403.857 50.5506 405.975 52.3076 407.049C55.4526 408.971 58.5646 408.998 246.188 408.752L436.873 408.501L439.954 405.549C441.649 403.925 443.487 400.921 444.038 398.873C444.686 396.468 444.946 358.932 444.772 292.826C444.514 194.215 444.435 190.399 442.606 187.7C441.561 186.159 439.311 184.134 437.606 183.2C434.723 181.621 421.22 181.485 246.004 181.267C64.7646 181.043 57.3476 181.105 53.4616 182.875ZM185.36 196.751C185.644 198.263 186.173 201.745 186.536 204.488C186.9 207.231 187.826 210.691 188.595 212.177C191.712 218.205 189.726 218.001 245.327 218.001H296.204L299.514 214.691C302 212.205 302.999 210.151 303.524 206.441C303.909 203.724 304.532 199.926 304.908 198.001L305.593 194.501L366.549 194.225C400.074 194.073 428.478 194.184 429.669 194.472L431.834 194.996L431.899 270.652C431.936 312.262 431.7 347.363 431.376 348.654L430.787 351.001H393.875H356.963L359.002 347.005C361.546 342.019 365.998 325.614 366.001 321.216C366.005 316.918 363.394 313.062 359.332 311.365C354.413 309.31 139.179 309.342 135.202 311.399C131.661 313.23 129.42 315.878 128.645 319.149C127.863 322.449 132.147 339.759 135.353 346.251L137.698 351.001H98.3506H59.0036V273.168C59.0036 230.359 59.3036 195.034 59.6706 194.668C60.0366 194.301 88.3516 194.001 122.591 194.001H184.845L185.36 196.751ZM291.35 194.752C291.606 195.165 291.574 197.64 291.279 200.252L290.744 205.001H245.441C203.157 205.001 200.105 204.884 199.63 203.251C199.137 201.556 198.683 196.276 198.898 194.751C199.037 193.77 290.744 193.771 291.35 194.752ZM232.879 266.501C232.81 266.776 232.698 269.15 232.629 271.777C232.532 275.491 231.559 278.117 228.254 283.587C223.591 291.304 222.937 295.511 225.459 301.547C227.177 305.66 229.559 306.875 231.701 304.733C233.089 303.344 233.069 302.738 231.495 298.618L229.749 294.044L234.001 287.006C240.184 276.773 240.945 266.001 235.485 266.001C234.12 266.001 232.948 266.226 232.879 266.501ZM248.36 267.516C248.04 268.349 248.02 269.955 248.315 271.084C249.056 273.915 247.338 278.525 243.184 284.856C239.155 290.997 238.585 296.39 241.395 301.802C243.419 305.703 245.625 306.808 247.547 304.887C248.731 303.703 248.683 302.796 247.22 298.721C245.568 294.121 245.576 293.824 247.446 290.722C254.638 278.788 256.429 272.533 253.969 267.935C252.738 265.636 249.183 265.37 248.36 267.516ZM264.671 266.668C264.304 267.034 264.004 269.425 264.004 271.981C264.004 275.687 263.147 278.031 259.766 283.564C256.288 289.257 255.539 291.357 255.59 295.276C255.659 300.653 258.514 305.501 261.612 305.501C263.625 305.501 263.8 303.52 262.458 295.923C261.918 292.868 262.415 291.432 265.865 286.095C270.296 279.24 271.957 272.388 270.151 268.423C269.111 266.142 266.146 265.192 264.671 266.668ZM352.004 324.896C352.004 328.458 347.841 340.496 345.336 344.177C340.416 351.407 346.283 351.001 246.751 351.001H157.3L153.917 348.721C148.837 345.298 145.466 338.552 142.438 325.751L141.787 323.001H246.896C349.389 323.001 352.004 323.048 352.004 324.896ZM431.39 368.998C431.668 371.475 431.886 378.564 431.875 384.751L431.854 396.001H245.429H59.0036V380.229V364.457L244.944 364.476L430.884 364.495L431.39 368.998ZM476.763 505.251L476.504 554.501H245.004H13.5036L13.2446 505.251L12.9846 456.001H245.004H477.023L476.763 505.251ZM97.0036 573.501V578.001H79.5036H62.0036V573.501V569.001H79.5036H97.0036V573.501ZM428.004 573.501V578.001H410.504H393.004V574.168C393.004 572.059 393.304 570.034 393.671 569.668C394.037 569.301 401.912 569.001 411.171 569.001H428.004V573.501Z" fill="black"/>
</svg>
