<?xml version="1.0" standalone="no"?>
<!DOCTYPE svg PUBLIC "-//W3C//DTD SVG 20010904//EN"
 "http://www.w3.org/TR/2001/REC-SVG-20010904/DTD/svg10.dtd">
<svg version="1.0" xmlns="http://www.w3.org/2000/svg"
 width="512.000000pt" height="512.000000pt" viewBox="0 0 512.000000 512.000000"
 preserveAspectRatio="xMidYMid meet">

<g transform="translate(0.000000,512.000000) scale(0.100000,-0.100000)"
fill="#000000" stroke="none">
<path d="M403 5106 c-193 -47 -352 -211 -392 -404 -16 -75 -16 -4209 0 -4284
41 -200 215 -371 413 -407 84 -15 4188 -15 4272 0 200 36 377 213 413 413 15
84 15 4189 0 4272 -36 199 -206 371 -407 413 -82 17 -4229 14 -4299 -3z m4347
-172 c83 -39 145 -101 184 -184 l31 -65 3 -357 3 -358 -2411 0 -2411 0 3 358
3 357 31 65 c50 105 145 184 251 209 22 5 941 8 2143 8 l2105 -2 65 -31z
m-4250 -2749 l0 -1636 25 -24 24 -25 2011 0 2011 0 24 25 25 24 0 1636 0 1635
175 0 175 0 -2 -1692 -3 -1693 -31 -65 c-17 -36 -51 -85 -75 -109 -24 -24 -73
-58 -109 -75 l-65 -31 -2125 0 -2125 0 -65 31 c-83 39 -145 101 -184 184 l-31
65 -3 1693 -2 1692 175 0 175 0 0 -1635z m3970 960 c0 -371 -2 -675 -5 -675
-3 0 -42 19 -88 41 -124 63 -181 80 -289 86 -121 7 -194 -6 -318 -60 -86 -37
-105 -41 -195 -45 -107 -4 -90 -8 -320 75 -85 31 -225 41 -317 24 -35 -7 -106
-31 -158 -54 -95 -41 -95 -42 -220 -42 -125 0 -125 1 -220 42 -52 23 -123 47
-158 54 -94 18 -232 7 -319 -25 -230 -83 -210 -78 -318 -74 -90 4 -109 9 -195
45 -123 54 -196 67 -318 60 -108 -6 -165 -23 -289 -86 -46 -22 -85 -41 -88
-41 -3 0 -5 304 -5 675 l0 675 1910 0 1910 0 0 -675z m-3250 -719 c36 -13 97
-36 135 -51 58 -23 90 -29 185 -32 133 -6 193 6 323 65 79 35 86 37 197 37
115 0 115 0 235 -49 113 -46 127 -50 229 -54 128 -6 182 5 321 61 159 64 283
63 432 -4 111 -50 175 -62 303 -56 95 3 127 9 185 32 168 66 199 74 272 75
106 0 155 -14 302 -85 l131 -64 0 -826 0 -825 -340 0 -340 0 0 58 c0 100 -59
192 -147 229 -23 9 -86 13 -224 13 l-192 0 45 30 c185 123 289 368 244 577
-25 119 -68 197 -160 289 -92 93 -180 143 -304 175 -168 43 -398 7 -522 -81
-15 -11 -31 -20 -34 -20 -3 0 -6 44 -6 98 0 80 -4 103 -20 130 -37 60 -53 62
-425 62 -366 0 -382 -2 -424 -56 -22 -28 -23 -34 -19 -219 3 -174 6 -195 27
-243 27 -60 51 -78 81 -62 25 13 25 22 0 88 -17 45 -20 76 -20 226 0 149 2
175 16 180 9 3 163 6 343 6 241 0 330 -3 339 -12 8 -8 12 -61 12 -175 0 -197
-13 -244 -91 -324 -115 -118 -293 -146 -443 -69 -69 35 -91 37 -106 10 -10
-18 -6 -25 20 -50 18 -17 54 -38 81 -47 l49 -18 0 -152 0 -151 -34 -22 c-49
-30 -93 -83 -107 -130 l-12 -40 -129 0 c-141 0 -181 -10 -231 -58 -51 -49 -71
-91 -76 -166 l-6 -71 -332 -3 -333 -2 0 823 0 823 118 62 c65 34 143 68 173
76 86 23 202 20 279 -8z m1814 -481 c130 -34 255 -121 325 -226 62 -92 85
-179 79 -296 -5 -85 -9 -102 -46 -176 -66 -132 -185 -236 -320 -277 -83 -26
-272 -28 -353 -4 -197 58 -350 225 -379 417 -14 93 -5 133 43 187 46 52 87
134 94 191 5 31 15 48 47 75 50 43 141 88 216 108 73 20 221 20 294 1z m-784
-521 c0 -162 107 -342 271 -456 23 -16 21 -17 -82 -17 l-106 -1 -13 40 c-17
50 -67 110 -114 135 l-36 20 0 147 0 148 33 14 c47 21 47 20 47 -30z m-165
-135 l0 -134 -42 -3 -43 -3 0 140 0 139 43 -3 42 -3 0 -133z m111 -263 c75
-75 73 -76 -151 -76 -224 0 -226 1 -151 76 l43 44 108 0 108 0 43 -44z m1415
-213 c36 -21 59 -69 59 -122 l0 -41 -1115 0 -1115 0 0 45 c0 26 7 59 15 75 32
62 -29 59 1098 60 952 0 1031 -1 1058 -17z"/>
<path d="M2721 4779 c-44 -18 -82 -51 -104 -92 -20 -39 -22 -55 -22 -217 0
-146 3 -180 17 -206 24 -44 81 -91 125 -103 54 -15 1683 -15 1738 0 56 15 104
54 126 103 16 35 19 66 19 204 0 210 -18 258 -115 303 -38 18 -85 19 -900 18
-514 0 -869 -4 -884 -10z m1737 -151 c8 -8 12 -57 12 -154 0 -116 -3 -145 -16
-158 -14 -14 -104 -16 -848 -16 -634 0 -835 3 -844 12 -8 8 -12 58 -12 158 0
100 4 150 12 158 17 17 1679 17 1696 0z"/>
<path d="M963 4756 c-124 -40 -205 -153 -205 -286 0 -167 127 -293 297 -294
117 -1 209 56 267 167 19 34 23 58 23 127 0 73 -4 92 -27 135 -52 99 -140 156
-248 161 -38 2 -83 -2 -107 -10z m176 -163 c89 -66 78 -200 -22 -251 -59 -31
-113 -24 -161 22 -105 98 -30 266 113 252 24 -2 55 -12 70 -23z"/>
<path d="M1732 4755 c-99 -31 -170 -108 -198 -215 -26 -101 4 -204 79 -278
119 -117 303 -116 420 1 60 60 82 117 82 212 0 70 -4 87 -30 134 -71 128 -217
189 -353 146z m154 -151 c76 -36 107 -138 62 -203 -38 -56 -73 -76 -129 -75
-84 1 -143 61 -143 144 0 110 111 181 210 134z"/>
<path d="M2114 3656 c-55 -55 -64 -69 -64 -101 0 -45 36 -85 78 -85 57 0 171
112 172 168 0 46 -37 82 -85 82 -32 0 -46 -9 -101 -64z"/>
<path d="M2499 3694 c-21 -22 -24 -35 -24 -101 0 -70 2 -76 28 -99 16 -13 41
-24 57 -24 16 0 41 11 57 24 26 23 28 29 28 99 0 66 -3 79 -24 101 -18 19 -35
26 -61 26 -26 0 -43 -7 -61 -26z"/>
<path d="M2845 3695 c-44 -43 -35 -82 35 -153 33 -34 71 -64 84 -68 54 -13
106 28 106 84 0 28 -10 44 -64 98 -55 55 -69 64 -101 64 -25 0 -43 -7 -60 -25z"/>
<path d="M1774 3317 c-56 -55 -64 -67 -64 -100 0 -50 36 -87 84 -87 28 0 44
10 100 65 57 56 66 70 66 101 0 48 -36 84 -85 84 -31 0 -46 -9 -101 -63z"/>
<path d="M3185 3355 c-17 -16 -25 -35 -25 -59 0 -30 10 -45 66 -101 55 -55 71
-65 100 -65 48 0 84 37 84 85 0 32 -9 46 -64 101 -55 55 -69 64 -101 64 -25 0
-43 -7 -60 -25z"/>
<path d="M2519 3285 c-31 -17 -49 -61 -49 -117 0 -91 56 -145 121 -117 75 30
81 197 8 234 -34 18 -47 18 -80 0z"/>
<path d="M2790 1846 c-215 -49 -351 -218 -338 -422 9 -141 103 -270 244 -336
87 -41 220 -50 320 -23 217 59 352 272 300 474 -9 36 -29 85 -45 110 -22 37
-33 46 -56 46 -40 0 -55 -27 -32 -62 43 -67 52 -97 52 -183 0 -71 -4 -93 -25
-134 -34 -66 -117 -140 -187 -166 -59 -22 -160 -29 -224 -15 -89 19 -188 95
-229 175 -86 168 -4 369 179 442 81 32 194 31 283 -2 56 -20 69 -22 82 -11 31
26 19 51 -37 76 -95 44 -186 54 -287 31z"/>
</g>
</svg>
