<svg width="513" height="473" viewBox="0 0 513 473" fill="none" xmlns="http://www.w3.org/2000/svg">
<path fill-rule="evenodd" clip-rule="evenodd" d="M326.963 2.79936C324.868 5.46436 324.812 6.69636 326.516 12.6394C327.02 14.3974 325.87 15.4334 318.976 19.4394C309.855 24.7394 297.196 36.2674 289.738 46.0654C275.273 65.0684 267.786 92.3944 270.015 118.05L270.894 128.17L266.536 132.368C262.233 136.512 259.961 141.619 259.997 147.065C260.044 154.25 267.907 163.342 275.347 164.813C279.6 165.654 279.34 165.233 282.405 176.248C285.369 186.902 292.232 192.065 303.429 192.065C311.327 192.065 311.528 192.682 306.719 202.16L303.469 208.565H249.977H196.485L193.235 202.065C188.51 192.616 188.592 192.416 197.424 191.85C203.558 191.456 205.51 190.889 208.444 188.651C213.331 184.924 214.914 182.216 217.369 173.379L219.478 165.784L224.434 164.526C236.071 161.571 241.954 147.973 236.371 136.934C234.87 133.966 229.912 129.499 227.142 128.62C225.787 128.19 224.861 126.003 223.622 120.301C217.144 90.5054 196.137 63.7234 168.469 49.9854C158.535 45.0534 141.944 40.0654 135.471 40.0654C132.349 40.0654 132.209 39.8914 131.698 35.3544C131.095 30.0014 128.385 27.0654 124.049 27.0654C119.69 27.0654 117.65 29.2804 117.029 34.6894L116.469 39.5614L110.554 40.2984C88.2408 43.0774 63.0708 56.6004 48.2238 73.7864C36.6718 87.1594 28.6438 102.594 24.5838 119.238C22.6668 127.099 22.1738 128.054 19.3178 129.425C12.1638 132.861 7.76185 143.023 9.94385 151.065C11.5878 157.125 18.2898 163.615 24.0858 164.761C28.6358 165.661 28.3218 165.169 31.4048 176.248C34.1338 186.058 41.3938 191.995 50.7188 192.043C53.6518 192.058 54.9688 192.492 54.9688 193.443C54.9688 195.399 52.2488 201.659 49.6658 205.648L47.4688 209.04L31.6868 209.053C19.7038 209.062 15.0098 209.439 12.1868 210.618C7.86385 212.424 3.38985 216.418 1.37985 220.265C-0.478153 223.821 -0.454153 235.346 1.41785 238.966C3.26885 242.546 9.29985 247.859 12.3928 248.635L14.7808 249.235L15.1248 267.424L15.4688 285.613L18.7608 292.297C22.3408 299.566 27.4598 304.647 34.8928 308.31C38.6688 310.171 41.1308 310.565 48.9688 310.565C57.5588 310.565 58.9648 310.29 63.6458 307.696C66.4938 306.118 70.0458 303.55 71.5398 301.991L74.2569 299.155L78.2868 302.605C85.6939 308.945 90.3098 310.565 100.969 310.565C109.559 310.565 110.965 310.29 115.646 307.696C118.494 306.118 122.047 303.55 123.542 301.989L126.26 299.151L130.718 303.075C143.286 314.138 164.391 313.628 175.54 301.991L178.257 299.155L182.287 302.605C189.694 308.945 194.31 310.565 204.969 310.565C213.833 310.565 214.839 310.351 219.991 307.372C223.028 305.616 226.585 303.038 227.895 301.644L230.276 299.109L234.077 302.544C241.403 309.162 245.319 310.565 256.469 310.565C265.609 310.565 266.914 310.318 271.646 307.696C274.494 306.118 278.053 303.543 279.556 301.974L282.289 299.121L286.084 302.55C293.403 309.162 297.321 310.565 308.469 310.565C319.619 310.565 321.979 309.74 330.084 303.007L334.699 299.174L337.407 302C338.896 303.555 342.444 306.118 345.292 307.696C349.973 310.29 351.379 310.565 359.969 310.565C370.628 310.565 375.244 308.945 382.651 302.605L386.681 299.155L389.398 301.991C390.892 303.55 394.444 306.118 397.292 307.696C401.973 310.29 403.379 310.565 411.969 310.565C422.628 310.565 427.244 308.945 434.651 302.605L438.681 299.155L441.398 301.991C442.892 303.55 446.444 306.118 449.292 307.696C453.973 310.29 455.379 310.565 463.969 310.565C472.089 310.565 474.168 310.208 478.284 308.105C485.933 304.198 490.603 299.554 494.177 292.299L497.469 285.618L497.797 267.43L498.125 249.243L500.529 248.639C503.636 247.86 509.665 242.553 511.52 238.966C513.392 235.346 513.416 223.821 511.558 220.265C509.548 216.418 505.074 212.424 500.751 210.618C497.774 209.375 492.672 209.065 475.156 209.065C450.31 209.065 451.993 209.614 447.547 200.062C444.136 192.733 444.233 192.069 448.719 192.043C457.545 191.991 464.862 185.848 467.533 176.248C470.579 165.302 470.349 165.679 474.478 164.822C476.602 164.38 479.87 162.852 481.74 161.426C493.992 152.081 491.767 134.846 477.493 128.533C472.949 126.524 472.328 125.855 471.246 121.811C469.665 115.902 464.53 109.306 458.703 105.704C452.446 101.835 442.506 100.98 433.942 103.573L428.043 105.359L422.542 101.571C419.516 99.4874 414.745 97.0054 411.94 96.0554C407.994 94.7194 407.25 94.1644 408.654 93.6024C409.652 93.2034 421.044 88.8654 433.969 83.9624C460.237 73.9984 462.969 72.2284 462.969 65.1784C462.969 56.0884 441.734 31.5294 424.978 21.2394C415.879 15.6514 405.11 11.1274 393 7.80536C382.884 5.03036 358.661 4.78136 349.138 7.35436C341.119 9.52136 341.305 9.53936 340.552 6.54036C338.886 -0.0986409 330.96 -2.28064 326.963 2.79936ZM381.647 21.1294C397.389 23.2704 414.317 30.9044 427.4 41.7644C434.65 47.7824 446.526 61.9434 445.282 63.0874C444.835 63.4984 431.194 68.8874 414.969 75.0644C398.744 81.2404 363.239 94.8214 336.068 105.244C297.884 119.891 286.478 123.896 285.833 122.88C284.094 120.136 284.473 99.8024 286.446 90.0484C295.51 45.2334 337.163 15.0794 381.647 21.1294ZM144.911 57.1424C166.898 62.6604 187.404 78.4664 199.104 98.9164C202.968 105.668 207.651 117.283 209.345 124.315L210.007 127.065H124.094H38.1818L39.0618 123.148C40.6548 116.056 44.6118 106.295 49.0748 98.4464C54.1608 89.5024 66.8759 75.5594 74.9249 70.0994C96.3069 55.5954 120.731 51.0744 144.911 57.1424ZM376.969 106.586C376.969 106.873 375.812 108.856 374.398 110.992C372.984 113.129 371.306 117.619 370.67 120.971L369.511 127.065L345.99 126.997C330.404 126.952 323.144 126.61 324.469 125.983C327.427 124.583 375.343 106.197 376.219 106.126C376.632 106.092 376.969 106.3 376.969 106.586ZM413.882 113.996C421.469 120.005 428.192 121.324 436.634 118.457C443.855 116.006 449.622 117.019 453.685 121.452C455.491 123.423 456.969 125.492 456.969 126.05C456.969 126.718 444.65 127.065 420.969 127.065C380.491 127.065 383.06 127.64 387.018 119.464C388.864 115.651 391.697 112.919 395.969 110.832C396.794 110.429 400.208 110.221 403.556 110.369C408.737 110.599 410.274 111.139 413.882 113.996ZM222.642 144.699C223.881 146.565 223.856 147.035 222.442 148.449C220.976 149.915 211.827 150.065 123.969 150.065C37.2498 150.065 26.9468 149.901 25.5398 148.494C23.5738 146.527 23.5818 146.151 25.6278 143.889C27.2188 142.131 31.3109 142.066 124.257 142.31L221.225 142.565L222.642 144.699ZM473.14 143.72C475.375 145.743 475.415 146.476 473.398 148.494C471.991 149.901 461.639 150.065 374.433 150.065C280.783 150.065 277.001 149.994 276.052 148.22C275.341 146.891 275.487 145.77 276.573 144.22L278.082 142.065H374.697C463.195 142.065 471.465 142.204 473.14 143.72ZM203.189 165.618C204.03 166.459 201.117 175.352 199.707 176.248C198.051 177.3 49.8288 177.263 48.1688 176.21C46.6778 175.264 43.8208 166.546 44.7108 165.656C45.4588 164.908 202.441 164.87 203.189 165.618ZM454.227 165.656C455.117 166.546 452.26 175.264 450.769 176.21C449.109 177.263 300.887 177.3 299.231 176.248C297.821 175.352 294.908 166.459 295.749 165.618C296.497 164.87 453.479 164.908 454.227 165.656ZM174.981 196.315C175.581 198.653 176.723 202.262 177.52 204.335C178.317 206.409 178.969 208.321 178.969 208.585C178.969 208.849 153.544 209.065 122.469 209.065C91.3938 209.065 65.9688 208.849 65.9688 208.585C65.9688 208.321 66.6208 206.409 67.4178 204.335C68.2148 202.262 69.3568 198.653 69.9568 196.315L71.0459 192.065H122.469H173.892L174.981 196.315ZM429.372 193.315C429.56 194.003 430.551 197.265 431.575 200.565C432.599 203.865 433.59 207.128 433.777 207.815C434.045 208.804 422.299 209.065 377.459 209.065C332.515 209.065 320.913 208.807 321.337 207.815C321.632 207.128 322.884 203.303 324.121 199.315L326.37 192.065H377.701C417.917 192.065 429.106 192.336 429.372 193.315ZM496.969 226.065C498.069 227.165 498.969 228.74 498.969 229.565C498.969 230.39 498.069 231.965 496.969 233.065C494.98 235.054 493.636 235.065 256.469 235.065C19.3018 235.065 17.9578 235.054 15.9688 233.065C13.3458 230.442 13.4328 227.554 16.1918 225.622C18.1878 224.223 42.6498 224.065 256.692 224.065C493.636 224.065 494.98 224.076 496.969 226.065ZM66.9468 265.815C66.9188 286.186 65.2068 290.561 55.7148 294.527C47.5748 297.928 38.3208 295.138 33.3278 287.778C30.5068 283.621 30.4648 283.344 30.1348 266.815L29.7998 250.065H48.3848H66.9688L66.9468 265.815ZM118.969 266.105C118.969 280.096 118.717 282.639 116.997 286.01C110.11 299.511 90.7138 299.303 84.3608 285.661C82.1928 281.003 81.9879 279.254 81.9789 265.315L81.9688 250.065H100.469H118.969V266.105ZM170.947 265.815C170.929 278.98 170.621 282.234 169.073 285.644C164.527 295.653 151.616 299.068 142.107 292.775C135.574 288.452 134.515 284.931 134.152 266.315L133.834 250.065H152.402H170.969L170.947 265.815ZM222.803 266.891C222.479 283.207 222.388 283.841 219.785 287.77C216.635 292.526 210.1 296.065 204.469 296.065C198.838 296.065 192.303 292.526 189.153 287.77C186.55 283.841 186.459 283.207 186.135 266.891L185.8 250.065H204.469H223.138L222.803 266.891ZM274.947 265.815C274.919 286.186 273.207 290.561 263.715 294.527C257.227 297.237 248.791 295.873 243.614 291.277C239.055 287.228 238.014 282.517 237.991 265.815L237.969 250.065H256.469H274.969L274.947 265.815ZM326.803 266.891C326.479 283.207 326.388 283.841 323.785 287.77C316.657 298.533 300.351 298.639 293.285 287.97C290.52 283.795 290.463 283.413 290.135 266.891L289.8 250.065H308.469H327.138L326.803 266.891ZM378.786 266.315C378.423 284.931 377.364 288.452 370.831 292.775C361.322 299.068 348.411 295.653 343.865 285.644C342.317 282.234 342.009 278.98 341.991 265.815L341.969 250.065H360.536H379.104L378.786 266.315ZM430.786 266.315C430.423 284.931 429.364 288.452 422.831 292.775C413.474 298.967 400.943 295.815 395.941 286.01C394.221 282.639 393.969 280.096 393.969 266.105V250.065H412.536H431.104L430.786 266.315ZM482.803 266.891C482.479 283.207 482.388 283.841 479.785 287.77C474.984 295.019 465.325 297.912 457.223 294.527C447.731 290.561 446.019 286.186 445.991 265.815L445.969 250.065H464.553H483.138L482.803 266.891ZM17.0418 316.7C15.0378 319.247 14.9688 320.456 14.9688 353.018C14.9688 391.782 15.3378 394.243 22.2858 401.811C28.5508 408.636 34.5238 411.043 45.2188 411.055L53.9688 411.065L53.9748 432.815C53.9778 445.508 54.4378 456.231 55.0788 458.565C56.7608 464.687 63.4489 470.581 70.5059 472.161C82.1369 474.764 93.3298 470.681 98.4688 461.959C100.29 458.869 100.497 456.435 100.784 434.812L101.1 411.059L256.784 411.312L412.469 411.565L412.969 435.654L413.469 459.743L416.233 463.727C419.984 469.136 425.754 472.199 433.325 472.8C444.254 473.668 452.576 469.917 456.834 462.204C459.099 458.101 459.21 456.959 459.462 435.242C459.606 422.77 459.78 412.228 459.847 411.815C459.914 411.402 463.681 411.061 468.219 411.055C478.371 411.043 484.493 408.521 490.652 401.811C497.605 394.238 497.969 391.801 497.969 352.838V318.974L495.514 316.52C492.515 313.52 489.099 313.388 485.604 316.138L482.969 318.21V351.67C482.969 388.774 482.73 390.411 476.779 394.039C473.486 396.047 472.36 396.058 256.469 396.058C40.5778 396.058 39.4518 396.047 36.1588 394.039C30.2068 390.41 29.9688 388.781 29.9688 351.597C29.9688 319.398 29.8888 317.985 27.9688 316.065C24.9908 313.087 19.6388 313.398 17.0418 316.7ZM85.4688 433.353C85.4688 458.197 85.8999 457.025 76.7539 457.05C72.1179 457.062 70.8439 456.7 70.0039 455.131C68.8409 452.958 68.5359 412.831 69.6739 411.693C70.0619 411.306 73.7739 411.118 77.9239 411.277L85.4688 411.565V433.353ZM443.969 433.042V455.019L441.448 456.671C439.695 457.819 437.703 458.158 434.909 457.784C427.831 456.834 427.969 457.329 427.969 432.943V411.065H435.969H443.969V433.042Z" fill="black"/>
</svg>
