<svg width="70" height="70" viewBox="0 0 70 70" fill="none" xmlns="http://www.w3.org/2000/svg">
<path fill-rule="evenodd" clip-rule="evenodd" d="M34.4958 0.0740947C34.0741 0.251462 33.9058 0.638357 33.9058 1.43021V2.11573L28.8814 2.16131C24.2739 2.20305 23.8026 2.22905 23.2026 2.47402C21.7138 3.08208 20.4671 4.41151 19.9732 5.91722C19.5693 7.14839 19.5539 10.011 19.9483 10.4985L20.2096 10.8216H34.9996H49.7896L50.0509 10.4985C50.2724 10.2248 50.3123 9.94862 50.3123 8.69186C50.3123 6.89178 50.1412 6.00878 49.5896 4.96127C49.0741 3.98247 48.202 3.18623 47.031 2.62525L46.1423 2.19963L41.1337 2.15775L36.1251 2.11587L36.066 1.29828C36.0329 0.840085 35.92 0.39352 35.8091 0.282528C35.55 0.0231838 34.8725 -0.0842493 34.4958 0.0740947ZM46.15 4.64581C47.4439 5.24894 48.1247 6.40826 48.1247 8.00826V8.70035H34.9996H21.8745L21.8753 7.91342C21.8757 7.48054 21.9413 6.89123 22.021 6.60356C22.2175 5.89532 23.0274 5.03038 23.8569 4.64294L24.5405 4.32365H34.9996H45.4587L46.15 4.64581ZM23.6643 12.2722C23.0181 12.5282 22.9772 12.7123 22.9726 15.3783C22.9682 17.8569 22.9716 17.8857 23.3039 18.2181C23.5154 18.4299 23.7956 18.5541 24.062 18.5541C24.3283 18.5541 24.6086 18.4299 24.8201 18.2181C25.1516 17.8863 25.1557 17.8517 25.1557 15.4202C25.1557 13.0586 25.1432 12.9444 24.8481 12.6195C24.4743 12.2079 24.102 12.0987 23.6643 12.2722ZM27.9585 12.2799C27.345 12.6157 27.3433 12.6312 27.3433 17.5386C27.3433 21.9271 27.3594 22.2388 27.6021 22.5388C27.7972 22.78 27.999 22.8589 28.4206 22.8589C29.4832 22.8589 29.4572 22.9814 29.5019 17.7695C29.5451 12.736 29.5173 12.5129 28.8138 12.2675C28.3099 12.0917 28.3019 12.0918 27.9585 12.2799ZM41.0837 12.2799C40.4702 12.6157 40.4684 12.6312 40.4684 17.5386C40.4684 21.9271 40.4845 22.2388 40.7272 22.5388C40.9223 22.78 41.1241 22.8589 41.5458 22.8589C42.6084 22.8589 42.5824 22.9814 42.6271 17.7695C42.6703 12.736 42.6424 12.5129 41.939 12.2675C41.435 12.0917 41.4271 12.0918 41.0837 12.2799ZM45.5395 12.2722C44.8934 12.5282 44.8525 12.7123 44.8478 15.3783C44.8435 17.8569 44.8469 17.8857 45.1791 18.2181C45.3906 18.4299 45.6709 18.5541 45.9372 18.5541C46.2036 18.5541 46.4838 18.4299 46.6953 18.2181C47.0269 17.8863 47.031 17.8517 47.031 15.4202C47.031 13.0586 47.0184 12.9444 46.7234 12.6195C46.3496 12.2079 45.9773 12.0987 45.5395 12.2722ZM32.3336 14.4696C31.7131 14.8092 31.7183 14.7556 31.7183 20.8232C31.7183 26.2858 31.7323 26.6157 31.9771 26.9182C32.1722 27.1594 32.374 27.2384 32.7957 27.2384C33.8771 27.2384 33.8324 27.4936 33.876 21.0517C33.9031 17.0508 33.8687 15.2364 33.7606 14.9753C33.6703 14.757 33.4337 14.5427 33.1889 14.4573C32.6849 14.2814 32.677 14.2815 32.3336 14.4696ZM36.7086 14.4696C36.0882 14.8092 36.0934 14.7556 36.0934 20.8232C36.0934 26.2858 36.1073 26.6157 36.3522 26.9182C36.5473 27.1594 36.7491 27.2384 37.1707 27.2384C38.2522 27.2384 38.2075 27.4936 38.2511 21.0517C38.2782 17.0508 38.2437 15.2364 38.1357 14.9753C38.0453 14.757 37.8088 14.5427 37.5639 14.4573C37.06 14.2814 37.052 14.2815 36.7086 14.4696ZM1.98165 30.9195C1.15217 31.307 0.342236 32.1719 0.145768 32.8802C0.0600449 33.1893 0.000434792 34.9213 2.46308e-05 37.1173C-0.000795691 40.5709 0.0175248 40.8542 0.260477 41.1546L0.521886 41.4777L11.745 41.5142L22.9682 41.5508V43.3808C22.9682 45.9187 22.8951 45.8433 25.4167 45.9017L27.3433 45.9462V51.954V57.9616L20.4951 57.9995L13.6469 58.0374L13.3856 58.3605C13.1491 58.653 13.1244 58.9274 13.1244 61.2536C13.1244 64.4403 13.1226 64.4367 14.661 64.5145L15.6805 64.5659L15.4825 65.1337C15.2242 65.8747 15.3316 67.1015 15.7212 67.8588C16.1617 68.7154 16.7461 69.2594 17.6725 69.6756C18.3689 69.9885 18.6294 70.036 19.3358 69.9793C20.7367 69.8667 21.9101 69.1042 22.5117 67.916C22.9521 67.046 23.0668 65.9059 22.7928 65.1198L22.59 64.5381H34.9995H47.4089L47.2259 65.0513C46.5955 66.8197 47.5341 68.8412 49.3682 69.6651C50.0889 69.9889 50.344 70.0364 51.0549 69.9793C52.4558 69.8667 53.6292 69.1042 54.2308 67.916C54.6678 67.0527 54.7858 65.9055 54.5167 65.1337L54.3187 64.5659L55.3382 64.5145C56.9023 64.4354 56.9007 64.439 56.8486 61.1647C56.8117 58.8487 56.7765 58.4956 56.5624 58.2814C56.3359 58.0549 55.8299 58.0347 49.4872 57.9995L42.6559 57.9616V51.954V45.9462L44.5825 45.9017C47.1041 45.8433 47.031 45.9187 47.031 43.3808V41.5508L58.2542 41.5142L69.4773 41.4777L69.7387 41.1546C69.9813 40.8547 70 40.5717 70 37.2121C70 35.0255 69.9402 33.3552 69.8491 32.9927C69.6485 32.1956 68.8766 31.3192 68.0252 30.9224C67.3439 30.6048 67.2698 30.6003 62.8905 30.6003C58.5221 30.6003 58.4356 30.6056 57.7635 30.9195C56.9634 31.2933 56.0802 32.2141 55.964 32.7954C55.8484 33.3741 55.6887 33.4087 55.589 32.8767C55.4683 32.2324 54.6187 31.3011 53.8063 30.9224L53.115 30.6003H47.031H40.9469L40.2633 30.9195C39.4632 31.2933 38.58 32.2141 38.4638 32.7954C38.3482 33.3741 38.1885 33.4087 38.0888 32.8767C37.9681 32.2324 37.1185 31.3011 36.3061 30.9224L35.6148 30.6003H29.5308H23.4467L22.7631 30.9195C21.963 31.2933 21.0798 32.2141 20.9636 32.7954C20.848 33.3741 20.6883 33.4087 20.5886 32.8767C20.4679 32.2324 19.6183 31.3011 18.8059 30.9224L18.1146 30.6003H10.3899H2.66525L1.98165 30.9195ZM18.2717 33.0911C18.4238 33.2432 18.5278 33.618 18.5664 34.1517L18.626 34.977H10.4064H2.18673V34.2836C2.18673 33.4834 2.35476 33.096 2.77668 32.9233C2.94238 32.8555 6.40701 32.8132 10.5561 32.8283C17.4261 32.8535 18.0559 32.8748 18.2717 33.0911ZM35.7719 33.0911C35.9238 33.2432 36.028 33.6181 36.0666 34.1517L36.1262 34.977H29.5472H22.9682V34.2836C22.9682 33.4836 23.1361 33.0961 23.5582 32.9229C23.7225 32.8554 26.4849 32.8127 29.6969 32.8279C35.0149 32.8532 35.558 32.8767 35.7719 33.0911ZM53.2721 33.0911C53.424 33.2432 53.5282 33.6181 53.5668 34.1517L53.6264 34.977H47.0474H40.4684V34.2836C40.4684 33.4836 40.6363 33.0961 41.0584 32.9229C41.2227 32.8554 43.9851 32.8127 47.1971 32.8279C52.5151 32.8532 53.0582 32.8767 53.2721 33.0911ZM67.4912 33.0911C67.6429 33.2431 67.7471 33.6182 67.7857 34.1517L67.8453 34.977H62.9069H57.9686V34.2836C57.9686 33.4837 58.1364 33.0965 58.5586 32.9222C58.7229 32.8543 60.747 32.8116 63.0568 32.8272C66.8223 32.8528 67.2805 32.88 67.4912 33.0911ZM67.8125 38.2615V39.3564H34.9996H2.18673V38.2615V37.1667H34.9996H67.8125V38.2615ZM44.8435 42.641V43.7358H34.9996H25.1557V42.641V41.5461H34.9996H44.8435V42.641ZM40.4684 51.9473V57.969H34.9996H29.5308V51.9473V45.9255H34.9996H40.4684V51.9473ZM54.6873 61.2536V62.3484H34.9996H15.3119V61.2536V60.1587H34.9996H54.6873V61.2536ZM20.2895 65.078C20.6485 65.4376 20.7123 65.6038 20.7123 66.1804C20.7123 66.7648 20.6501 66.9218 20.2654 67.3069C19.8807 67.692 19.7238 67.7543 19.14 67.7543C18.5563 67.7543 18.3994 67.692 18.0147 67.3069C17.6315 66.9233 17.5678 66.7637 17.5678 66.1888C17.5678 65.4853 17.9163 64.9293 18.5248 64.6617C19.036 64.437 19.838 64.6261 20.2895 65.078ZM52.0086 65.078C52.3676 65.4376 52.4314 65.6038 52.4314 66.1804C52.4314 66.7648 52.3692 66.9218 51.9845 67.3069C51.5998 67.692 51.443 67.7543 50.8592 67.7543C50.2815 67.7543 50.1173 67.6906 49.7531 67.3262C49.1268 66.6992 49.052 65.8521 49.5687 65.2373C50.0461 64.6695 50.3775 64.5266 51.0515 64.5981C51.4174 64.6368 51.7187 64.788 52.0086 65.078Z" fill="black"/>
</svg>
