<svg width="70" height="70" viewBox="0 0 70 70" fill="none" xmlns="http://www.w3.org/2000/svg">
<path fill-rule="evenodd" clip-rule="evenodd" d="M0.133622 0.12803C0.00968858 0.24675 0 2.76983 0 35.0173C0 54.136 0.0220415 69.8284 0.0490081 69.8893C0.092203 69.9868 0.385202 70 2.51152 70H4.92503V62.195V54.39H6.37832H7.8316V59.495C7.8316 64.0426 7.84549 64.612 7.95844 64.71C8.06671 64.8038 8.36714 64.82 10.0011 64.82C11.3836 64.82 11.9439 64.7966 12.0138 64.736C12.0875 64.6722 12.1107 63.4185 12.1107 59.521V54.39H33.0204H53.93L53.9518 59.5376C53.9706 64.0232 53.9891 64.6937 54.0946 64.7515C54.1619 64.7884 55.0642 64.8183 56.1275 64.8189C57.7589 64.8199 58.0579 64.8039 58.1661 64.71C58.2791 64.612 58.293 64.0426 58.293 59.495V54.39H61.684H65.075V62.195V70H67.4885C69.6148 70 69.9078 69.9868 69.951 69.8893C69.978 69.8284 70 54.1484 70 35.0449C70 3.72141 69.9876 0.29589 69.8743 0.15561C69.7496 0.00119 69.7319 0 67.5087 0C65.8742 0 65.2426 0.02268 65.1719 0.084C65.1066 0.14056 65.075 0.46046 65.075 1.064V1.96H35H4.92503V1.064C4.92503 0.46046 4.89338 0.14056 4.82814 0.084C4.7575 0.02275 4.12758 0 2.49925 0C0.439458 0 0.256909 0.00987 0.133622 0.12803ZM1.85698 35.07V69.51H1.29181H0.726644V35.07V0.63H1.29181H1.85698V35.07ZM4.27912 35.07V69.51H3.71412H3.14911L3.12877 35.07L3.10842 0.63H3.69377H4.27912V35.07ZM66.8512 35.07V69.51H66.286H65.7209V35.07V0.63H66.286H66.8512V35.07ZM69.2734 35.07V69.51H68.7082H68.143V35.07V0.63H68.7082H69.2734V35.07ZM0.941003 0.96803C0.835075 1.06946 0.807382 1.24376 0.807382 1.80803C0.807382 2.42669 0.828535 2.53834 0.968858 2.66C1.16319 2.82849 1.27889 2.83507 1.51602 2.69101C1.6821 2.59021 1.6955 2.52728 1.6955 1.84646C1.6955 1.44186 1.65788 1.04986 1.61194 0.97538C1.50431 0.80108 1.11968 0.79688 0.941003 0.96803ZM3.40715 0.924C3.34329 0.97937 3.31027 1.27673 3.31027 1.79739C3.31027 2.56214 3.31656 2.59035 3.51211 2.70144C3.6991 2.80763 3.72881 2.80763 3.9158 2.70144C4.11135 2.59035 4.11765 2.56214 4.11765 1.79739C4.11765 0.94724 4.07243 0.84 3.71396 0.84C3.5985 0.84 3.46044 0.8778 3.40715 0.924ZM65.9273 0.99561C65.7833 1.17376 65.7489 2.25057 65.8778 2.54443C65.9788 2.77487 66.2419 2.84116 66.4918 2.6992C66.6826 2.59091 66.6897 2.55794 66.6897 1.79739C66.6897 1.27673 66.6567 0.97937 66.5928 0.924C66.4323 0.78477 66.0658 0.82418 65.9273 0.99561ZM68.4014 0.924C68.3375 0.97937 68.3045 1.27624 68.3045 1.79501C68.3045 2.52896 68.3166 2.58944 68.484 2.69101C68.7211 2.83507 68.8368 2.82849 69.0311 2.66C69.1706 2.53911 69.1926 2.42669 69.1926 1.83561C69.1926 1.05539 69.0903 0.84 68.7197 0.84C68.5979 0.84 68.4547 0.8778 68.4014 0.924ZM65.0346 2.94V3.325L34.9798 3.34257L4.92503 3.36021V2.98676C4.92503 2.78138 4.94933 2.59231 4.97896 2.56655C5.00859 2.54086 18.5333 2.5277 35.0337 2.53743L65.0346 2.555V2.94ZM0.933091 3.37561C0.755225 3.59569 0.755225 4.80431 0.933091 5.02439C1.08552 5.21311 1.38022 5.22606 1.56188 5.05197C1.75178 4.87004 1.75719 3.49349 1.56866 3.32997C1.38652 3.17212 1.07963 3.1941 0.933091 3.37561ZM3.43767 3.31233C3.31075 3.39283 3.29347 3.50749 3.30332 4.20483C3.31519 5.03923 3.37445 5.18 3.71396 5.18C4.05346 5.18 4.11272 5.03923 4.12459 4.20483C4.13444 3.50749 4.11716 3.39283 3.99024 3.31233C3.91015 3.26158 3.78581 3.22 3.71396 3.22C3.6421 3.22 3.51776 3.26158 3.43767 3.31233ZM65.9987 3.31926C65.8651 3.40389 65.8386 3.52002 65.8191 4.10676C65.7931 4.89055 65.884 5.13254 66.2172 5.16628C66.6088 5.20604 66.6897 5.04063 66.6897 4.2C66.6897 3.60241 66.6626 3.41649 66.5629 3.32997C66.4054 3.19347 66.2034 3.18962 65.9987 3.31926ZM68.4313 3.32997C68.3316 3.41649 68.3045 3.60241 68.3045 4.2C68.3045 5.0253 68.3748 5.18 68.7498 5.18C69.087 5.18 69.1926 4.94256 69.1926 4.18439C69.1926 3.59331 69.1706 3.48089 69.0311 3.36C68.8372 3.19186 68.6042 3.18017 68.4313 3.32997ZM7.8316 10.107V16.294L6.43895 17.282C5.67307 17.8254 5.01909 18.27 4.98566 18.27C4.91082 18.27 4.90404 4.03158 4.97888 3.96669C5.00843 3.941 5.66241 3.92 6.43217 3.92H7.8316V10.107ZM9.4345 9.5725C9.42796 12.6814 9.40035 15.0518 9.37306 14.84C9.34585 14.6283 9.29458 14.4157 9.25905 14.3675C9.16225 14.236 8.74112 14.2601 8.64544 14.4025C8.58376 14.4943 8.56253 14.4026 8.56067 14.0369C8.55841 13.5755 8.56511 13.5573 8.68396 13.7044C8.75307 13.79 8.87813 13.86 8.96194 13.86C9.04574 13.86 9.17081 13.79 9.23992 13.7044C9.41504 13.4877 9.41504 12.4823 9.23992 12.2656C9.07933 12.0668 8.84454 12.0668 8.68396 12.2656C8.56487 12.413 8.55825 12.3964 8.55825 11.9506V11.48L8.71972 11.62C8.80854 11.697 8.91753 11.76 8.96194 11.76C9.00634 11.76 9.11534 11.697 9.20415 11.62C9.3381 11.5039 9.36547 11.3875 9.3645 10.9375C9.36313 10.2366 9.31331 10.0888 9.05979 10.0337C8.90405 9.99978 8.81798 10.0274 8.70608 10.1472C8.5593 10.3044 8.55825 10.3021 8.55825 9.83773C8.55825 9.41255 8.56979 9.38 8.68509 9.48003C8.86053 9.63207 9.1809 9.61842 9.28206 9.45462C9.328 9.38014 9.36563 9.06304 9.36563 8.75C9.36563 8.43696 9.328 8.11986 9.28206 8.04538C9.17452 7.87115 8.75945 7.86275 8.64544 8.0325C8.58376 8.12427 8.56253 8.03264 8.56067 7.66689C8.55841 7.20552 8.56511 7.18732 8.68396 7.33439C8.83332 7.5194 9.01563 7.53291 9.21796 7.37415C9.33931 7.27895 9.36563 7.15057 9.36563 6.65476C9.36563 6.00586 9.24832 5.74 8.96194 5.74C8.87813 5.74 8.75307 5.81 8.68396 5.89561C8.56487 6.04296 8.55825 6.02644 8.55825 5.58061V5.11L8.71972 5.25C8.80854 5.327 8.91753 5.39 8.96194 5.39C9.00634 5.39 9.11534 5.327 9.20415 5.25C9.34028 5.13198 9.36563 5.01669 9.36563 4.515C9.36563 4.18775 9.38379 3.92 9.406 3.92C9.4282 3.92 9.44104 6.46359 9.4345 9.5725ZM10.851 5.28668C11.0728 5.41268 11.2899 5.35829 11.3857 5.15277C11.4336 5.05015 11.4562 5.16012 11.4597 5.5125C11.4648 6.02 11.4648 6.02 11.3033 5.88C11.1069 5.70969 10.9981 5.70444 10.8051 5.85585C10.5997 6.01699 10.5868 7.20881 10.7886 7.38374C10.9684 7.5397 11.2381 7.49077 11.3607 7.28C11.4506 7.1253 11.462 7.16989 11.4585 7.665C11.4557 8.07093 11.4345 8.18167 11.3816 8.0675C11.3 7.89159 10.9234 7.84742 10.7543 7.994C10.6332 8.099 10.6226 9.26282 10.741 9.45462C10.8544 9.6383 11.1834 9.62717 11.3391 9.43439C11.4577 9.28767 11.4648 9.30839 11.4648 9.8C11.4648 10.2916 11.4577 10.3123 11.3391 10.1656C11.1834 9.97283 10.8544 9.9617 10.741 10.1454C10.6951 10.2199 10.6574 10.5646 10.6574 10.9115C10.6574 11.4838 10.674 11.5522 10.8369 11.651C11.0678 11.7913 11.1089 11.7886 11.3033 11.62L11.4648 11.48V11.9506C11.4648 12.3964 11.4582 12.413 11.3391 12.2656C11.1897 12.0806 11.0074 12.0671 10.8051 12.2258C10.6029 12.3845 10.5866 13.5786 10.7843 13.75C10.9634 13.9053 11.192 13.8865 11.3391 13.7044C11.4576 13.5579 11.4645 13.5792 11.4593 14.0719C11.455 14.4882 11.4366 14.5641 11.3694 14.4436C11.1829 14.1093 10.6927 14.246 10.635 14.6484C10.6172 14.773 10.6042 12.4022 10.6064 9.38C10.6085 6.35775 10.6222 4.17641 10.6369 4.53264C10.661 5.1198 10.681 5.19015 10.851 5.28668ZM53.9331 9.38V14.84H33.1027C21.6459 14.84 12.2449 14.8479 12.2116 14.8575C12.1466 14.8763 12.0836 4.15359 12.1479 4.0075C12.1785 3.93778 16.4355 3.92 33.0598 3.92H53.9331V9.38ZM55.5396 9.3975C55.535 12.4102 55.5045 14.7778 55.4717 14.6589C55.439 14.54 55.3861 14.4061 55.3542 14.3614C55.2638 14.2347 54.8404 14.2634 54.7469 14.4025C54.6857 14.4936 54.6643 14.3905 54.6634 14C54.6622 13.5325 54.6733 13.4941 54.7639 13.6494C54.8916 13.8683 55.1099 13.9085 55.3116 13.7503C55.4436 13.6467 55.4671 13.5311 55.4671 12.985C55.4671 12.4389 55.4436 12.3233 55.3116 12.2197C55.1099 12.0615 54.8916 12.1017 54.7639 12.3206C54.6728 12.4767 54.662 12.4417 54.661 11.9875L54.6597 11.48L54.8212 11.62C54.91 11.697 55.019 11.76 55.0634 11.76C55.1078 11.76 55.2168 11.697 55.3057 11.62C55.443 11.5009 55.4671 11.3867 55.4671 10.855C55.4671 10.3802 55.4366 10.2035 55.3403 10.12C55.1611 9.96471 54.9326 9.98347 54.7855 10.1656C54.6669 10.3123 54.6597 10.2916 54.6597 9.8C54.6597 9.30839 54.6669 9.28767 54.7855 9.43439C54.9411 9.62717 55.2702 9.6383 55.3836 9.45462C55.4295 9.38014 55.4671 9.06304 55.4671 8.75C55.4671 8.43696 55.4295 8.11986 55.3836 8.04538C55.2612 7.84714 54.8384 7.86177 54.743 8.0675C54.6893 8.18328 54.6686 8.08654 54.6648 7.70189C54.6601 7.20909 54.667 7.18788 54.7855 7.33439C54.9326 7.51653 55.1611 7.53529 55.3403 7.38003C55.5269 7.21826 55.5216 6.04821 55.3335 5.86803C55.1612 5.7029 55.0217 5.70619 54.8212 5.88L54.6597 6.02V5.565V5.11L54.8212 5.25C54.91 5.327 55.019 5.39 55.0634 5.39C55.1078 5.39 55.2168 5.327 55.3057 5.25C55.4418 5.13198 55.4671 5.01669 55.4671 4.515C55.4671 4.18775 55.4853 3.92 55.5075 3.92C55.5297 3.92 55.5442 6.38484 55.5396 9.3975ZM56.8005 5.09047C56.8848 5.40953 57.348 5.45153 57.4872 5.15277C57.5348 5.05078 57.5577 5.16705 57.5612 5.52811C57.566 6.02091 57.5591 6.04212 57.4406 5.89561C57.28 5.69681 57.0452 5.69681 56.8847 5.89561C56.7058 6.11688 56.7067 7.2247 56.8858 7.38003C57.0649 7.53529 57.2935 7.51653 57.4406 7.33439C57.5591 7.18788 57.566 7.20909 57.5612 7.70189C57.5574 8.08654 57.5368 8.18328 57.4831 8.0675C57.3876 7.86177 56.9649 7.84714 56.8425 8.04538C56.7966 8.11986 56.7589 8.43696 56.7589 8.75C56.7589 9.06304 56.7966 9.38014 56.8425 9.45462C56.9559 9.6383 57.2849 9.62717 57.4406 9.43439C57.5592 9.28767 57.5663 9.30839 57.5663 9.8C57.5663 10.2916 57.5592 10.3123 57.4406 10.1656C57.2935 9.98347 57.0649 9.96471 56.8858 10.12C56.7895 10.2035 56.7589 10.3802 56.7589 10.855C56.7589 11.3867 56.7831 11.5009 56.9204 11.62C57.0092 11.697 57.1182 11.76 57.1626 11.76C57.207 11.76 57.316 11.697 57.4048 11.62L57.5663 11.48L57.5651 11.9875C57.5641 12.4417 57.5532 12.4767 57.4622 12.3206C57.3344 12.1017 57.1161 12.0615 56.9144 12.2197C56.7828 12.3229 56.7589 12.4387 56.7589 12.9728C56.7589 13.4619 56.7891 13.6328 56.8926 13.732C57.0723 13.9042 57.288 13.8933 57.4406 13.7044C57.5591 13.5579 57.566 13.5791 57.5612 14.0719C57.5574 14.4565 57.5368 14.5533 57.4831 14.4375C57.4303 14.3237 57.3435 14.28 57.17 14.28C56.9059 14.28 56.843 14.3373 56.7543 14.6589C56.7216 14.7778 56.6982 12.4022 56.7025 9.38C56.7068 6.35775 56.7213 4.12125 56.7349 4.41C56.7484 4.69875 56.7779 5.005 56.8005 5.09047ZM65.0552 11.1475C65.0679 15.5954 65.0468 18.34 65 18.34C64.9582 18.34 64.622 18.126 64.2527 17.8645C63.8834 17.603 62.7823 16.8233 61.8057 16.132L60.0301 14.875L59.1817 14.8598L58.3333 14.8446L58.3127 9.38154L58.292 3.91846L61.6633 3.93673L65.0346 3.955L65.0552 11.1475ZM0.968858 5.74C0.828212 5.86194 0.807382 5.97331 0.807382 6.60415C0.807382 7.39732 0.891592 7.56 1.30223 7.56C1.64924 7.56 1.6955 7.44758 1.6955 6.60499C1.6955 5.87104 1.68339 5.81056 1.51602 5.70899C1.27889 5.56493 1.16319 5.57151 0.968858 5.74ZM3.48975 5.70899C3.32238 5.81056 3.31027 5.87104 3.31027 6.60499C3.31027 7.45262 3.35564 7.56 3.71396 7.56C4.07227 7.56 4.11765 7.45262 4.11765 6.60499C4.11765 5.87104 4.10554 5.81056 3.93817 5.70899C3.8395 5.64907 3.73858 5.6 3.71396 5.6C3.68933 5.6 3.58841 5.64907 3.48975 5.70899ZM65.9998 5.77185C65.8178 5.9297 65.8016 5.99669 65.8016 6.59624C65.8016 7.34265 65.9083 7.56 66.2745 7.56C66.6453 7.56 66.6897 7.45794 66.6897 6.60499C66.6897 5.87104 66.6776 5.81056 66.5103 5.70899C66.273 5.56493 66.2327 5.5699 65.9998 5.77185ZM68.484 5.70899C68.3166 5.81056 68.3045 5.87104 68.3045 6.60499C68.3045 7.45794 68.3489 7.56 68.7197 7.56C69.0903 7.56 69.1926 7.34461 69.1926 6.56439C69.1926 5.97331 69.1706 5.86089 69.0311 5.74C68.8368 5.57151 68.7211 5.56493 68.484 5.70899ZM0.941003 8.17803C0.835075 8.27946 0.807382 8.45376 0.807382 9.01803C0.807382 9.63669 0.828535 9.74834 0.968858 9.87C1.16319 10.0385 1.27889 10.0451 1.51602 9.90101C1.6821 9.80021 1.6955 9.73728 1.6955 9.05646C1.6955 8.65186 1.65788 8.25986 1.61194 8.18538C1.50431 8.01108 1.11968 8.00688 0.941003 8.17803ZM3.40715 8.134C3.34337 8.1893 3.31027 8.4847 3.31027 8.99815C3.31027 9.69325 3.32811 9.7923 3.47416 9.90689C3.60399 10.0087 3.68384 10.0216 3.85767 9.9687L4.07728 9.90185L4.10013 9.0734C4.11531 8.52243 4.09165 8.21219 4.02964 8.14744C3.91524 8.02788 3.53892 8.01976 3.40715 8.134ZM65.9273 8.20561C65.7833 8.38376 65.7489 9.46057 65.8778 9.75443C65.9788 9.98487 66.2419 10.0512 66.4918 9.9092C66.6826 9.80091 66.6897 9.76794 66.6897 9.00739C66.6897 8.48673 66.6567 8.18937 66.5928 8.134C66.4323 7.99477 66.0658 8.03418 65.9273 8.20561ZM68.4014 8.134C68.3375 8.18937 68.3045 8.48673 68.3045 9.00739C68.3045 9.76794 68.3117 9.80091 68.5024 9.9092C68.7524 10.0512 69.0155 9.98487 69.1165 9.75443C69.2453 9.46057 69.2109 8.38376 69.0669 8.20561C68.9284 8.03418 68.562 7.99477 68.4014 8.134ZM0.933091 10.5856C0.755225 10.8057 0.755225 12.0143 0.933091 12.2344C1.07963 12.4159 1.38652 12.4379 1.56866 12.28C1.66829 12.1936 1.6955 12.0081 1.6955 11.4159C1.6955 10.7741 1.67346 10.6444 1.54783 10.5458C1.34227 10.3845 1.08189 10.4014 0.933091 10.5856ZM3.45156 10.5056C3.32948 10.5673 3.31027 10.6907 3.31027 11.415C3.31027 12.241 3.31317 12.2541 3.51211 12.3327C3.66309 12.3924 3.76482 12.3924 3.9158 12.3327C4.11474 12.2541 4.11765 12.241 4.11765 11.414C4.11765 10.6561 4.10255 10.5679 3.9615 10.5025C3.76805 10.4127 3.63394 10.4136 3.45156 10.5056ZM65.9987 10.5293C65.8652 10.6138 65.8379 10.7332 65.8141 11.3364C65.792 11.9004 65.8129 12.0795 65.9169 12.2172C66.0555 12.4006 66.277 12.4366 66.5336 12.3175C66.6739 12.2524 66.6897 12.1644 66.6897 11.4475C66.6897 10.8158 66.6633 10.6271 66.5629 10.54C66.4054 10.4035 66.2034 10.3996 65.9987 10.5293ZM68.4313 10.54C68.3309 10.6271 68.3045 10.8158 68.3045 11.4475C68.3045 12.1644 68.3203 12.2524 68.4606 12.3175C68.9853 12.5609 69.1926 12.2995 69.1926 11.3944C69.1926 10.8033 69.1706 10.6909 69.0311 10.57C68.8372 10.4019 68.6042 10.3902 68.4313 10.54ZM1.13033 12.8586C0.865029 12.9408 0.807382 13.1139 0.807382 13.8275C0.807382 14.6062 0.893368 14.77 1.30223 14.77C1.64924 14.77 1.6955 14.6576 1.6955 13.815C1.6955 13.081 1.68339 13.0206 1.51602 12.919C1.32435 12.8025 1.31563 12.8012 1.13033 12.8586ZM3.48975 12.919C3.32238 13.0206 3.31027 13.081 3.31027 13.815C3.31027 14.6626 3.35564 14.77 3.71396 14.77C4.07227 14.77 4.11765 14.6626 4.11765 13.815C4.11765 13.081 4.10554 13.0206 3.93817 12.919C3.8395 12.8591 3.73858 12.81 3.71396 12.81C3.68933 12.81 3.58841 12.8591 3.48975 12.919ZM65.9998 12.9819C65.8178 13.1397 65.8016 13.2067 65.8016 13.8062C65.8016 14.5526 65.9083 14.77 66.2745 14.77C66.6453 14.77 66.6897 14.6679 66.6897 13.815C66.6897 13.081 66.6776 13.0206 66.5103 12.919C66.273 12.7749 66.2327 12.7799 65.9998 12.9819ZM68.484 12.919C68.3166 13.0206 68.3045 13.081 68.3045 13.815C68.3045 14.6692 68.3487 14.77 68.7225 14.77C69.1103 14.77 69.2122 14.5352 69.1801 13.7164C69.1564 13.1132 69.1291 12.9938 68.9955 12.9093C68.7957 12.7827 68.7055 12.7844 68.484 12.919ZM0.941003 15.388C0.835075 15.4895 0.807382 15.6638 0.807382 16.228C0.807382 16.8467 0.828535 16.9583 0.968858 17.08C1.16319 17.2485 1.27889 17.2551 1.51602 17.111C1.68275 17.0098 1.6955 16.9481 1.6955 16.2411C1.6955 15.6426 1.66837 15.4565 1.56866 15.37C1.39847 15.2225 1.10498 15.2309 0.941003 15.388ZM3.40715 15.344C3.34337 15.3993 3.31027 15.6947 3.31027 16.2081C3.31027 16.875 3.33166 17.0051 3.45794 17.1042C3.64331 17.2496 3.82739 17.2516 3.99081 17.11C4.09108 17.0231 4.11765 16.8352 4.11765 16.214C4.11765 15.3674 4.07219 15.26 3.71396 15.26C3.5985 15.26 3.46044 15.2978 3.40715 15.344ZM65.9273 15.4156C65.7823 15.595 65.7492 16.6714 65.8795 16.9685C65.9828 17.2041 66.3199 17.2785 66.5315 17.1125C66.6706 17.0033 66.6897 16.8941 66.6897 16.2081C66.6897 15.6947 66.6566 15.3993 66.5928 15.344C66.4323 15.2048 66.0658 15.2442 65.9273 15.4156ZM68.4014 15.344C68.3375 15.3994 68.3045 15.6962 68.3045 16.215C68.3045 16.949 68.3166 17.0094 68.484 17.111C68.7211 17.2551 68.8368 17.2485 69.0311 17.08C69.1706 16.9591 69.1926 16.8467 69.1926 16.2556C69.1926 15.4754 69.0903 15.26 68.7197 15.26C68.5979 15.26 68.4547 15.2978 68.4014 15.344ZM0.933091 17.7956C0.755225 18.0157 0.755225 19.2243 0.933091 19.4444C1.07963 19.6259 1.38652 19.6479 1.56866 19.49C1.66829 19.4036 1.6955 19.2181 1.6955 18.6259C1.6955 17.9841 1.67346 17.8544 1.54783 17.7558C1.34227 17.5945 1.08189 17.6114 0.933091 17.7956ZM3.45156 17.7156C3.32964 17.7771 3.31027 17.9 3.31027 18.6095C3.31027 19.4947 3.35322 19.6 3.71396 19.6C4.07478 19.6 4.11765 19.4947 4.11765 18.6084C4.11765 17.8659 4.10231 17.7778 3.9615 17.7125C3.76805 17.6227 3.63394 17.6236 3.45156 17.7156ZM65.9631 17.78C65.8237 17.9009 65.8016 18.0133 65.8016 18.6044C65.8016 19.5095 66.009 19.7709 66.5336 19.5275C66.6739 19.4624 66.6897 19.3744 66.6897 18.6575C66.6897 18.0258 66.6633 17.8371 66.5629 17.75C66.39 17.6002 66.157 17.6119 65.9631 17.78ZM68.4313 17.75C68.3316 17.8365 68.3045 18.0224 68.3045 18.62C68.3045 19.4453 68.3748 19.6 68.7498 19.6C69.087 19.6 69.1926 19.3626 69.1926 18.6044C69.1926 18.0133 69.1706 17.9009 69.0311 17.78C68.8372 17.6119 68.6042 17.6002 68.4313 17.75ZM65.075 19.775V20.16H35H4.92503V19.775V19.39H35H65.075V19.775ZM1.13033 20.0686C0.865029 20.1508 0.807382 20.3239 0.807382 21.0375C0.807382 21.8162 0.893368 21.98 1.30223 21.98C1.64924 21.98 1.6955 21.8676 1.6955 21.025C1.6955 20.291 1.68339 20.2306 1.51602 20.129C1.32435 20.0125 1.31563 20.0112 1.13033 20.0686ZM3.48975 20.129C3.32238 20.2306 3.31027 20.291 3.31027 21.025C3.31027 21.8726 3.35564 21.98 3.71396 21.98C4.07227 21.98 4.11765 21.8726 4.11765 21.025C4.11765 20.291 4.10554 20.2306 3.93817 20.129C3.8395 20.0691 3.73858 20.02 3.71396 20.02C3.68933 20.02 3.58841 20.0691 3.48975 20.129ZM65.9998 20.1918C65.8178 20.3497 65.8016 20.4167 65.8016 21.0162C65.8016 21.7626 65.9083 21.98 66.2745 21.98C66.6453 21.98 66.6897 21.8779 66.6897 21.025C66.6897 20.291 66.6776 20.2306 66.5103 20.129C66.273 19.9849 66.2327 19.9899 65.9998 20.1918ZM68.484 20.129C68.3166 20.2306 68.3045 20.291 68.3045 21.025C68.3045 21.8779 68.3489 21.98 68.7197 21.98C69.086 21.98 69.1926 21.7626 69.1926 21.0162C69.1926 20.4167 69.1765 20.3497 68.9944 20.1918C68.7616 19.9899 68.7212 19.9849 68.484 20.129ZM7.82724 26.9325L7.8228 33.145L6.39414 34.1454L4.9654 35.1459L4.94457 28.0204C4.93318 24.1014 4.9411 20.8557 4.96225 20.8075C4.99099 20.7421 5.35811 20.72 6.41618 20.72H7.8316L7.82724 26.9325ZM9.43627 26.4116C9.4307 29.499 9.4014 31.8938 9.3712 31.7336C9.27674 31.2324 8.94087 31.0575 8.68396 31.3756C8.56511 31.5227 8.55841 31.5045 8.56067 31.0431C8.56253 30.6774 8.58376 30.5857 8.64544 30.6775C8.75945 30.8473 9.17452 30.8389 9.28206 30.6646C9.328 30.5901 9.36563 30.273 9.36563 29.96C9.36563 29.647 9.328 29.3299 9.28206 29.2554C9.1809 29.0916 8.86053 29.0779 8.68509 29.23C8.56979 29.33 8.55825 29.2975 8.55825 28.8723C8.55825 28.4079 8.5593 28.4057 8.70608 28.5628C8.81798 28.6826 8.90405 28.7102 9.05979 28.6763C9.31331 28.6212 9.36313 28.4734 9.3645 27.7725C9.36547 27.3225 9.3381 27.2061 9.20415 27.09C9.11534 27.013 9.00634 26.95 8.96194 26.95C8.91753 26.95 8.80854 27.013 8.71972 27.09L8.55825 27.23V26.7594C8.55825 26.3136 8.56487 26.297 8.68396 26.4444C8.75307 26.53 8.87813 26.6 8.96194 26.6C9.24234 26.6 9.36563 26.3327 9.36563 25.725C9.36563 25.1173 9.24234 24.85 8.96194 24.85C8.87813 24.85 8.75307 24.92 8.68396 25.0056C8.56511 25.1527 8.55841 25.1345 8.56067 24.6731C8.56253 24.3074 8.58376 24.2157 8.64544 24.3075C8.75945 24.4773 9.17452 24.4689 9.28206 24.2946C9.328 24.2201 9.36563 23.903 9.36563 23.59C9.36563 23.277 9.328 22.9599 9.28206 22.8854C9.1809 22.7216 8.86053 22.7079 8.68509 22.86C8.56979 22.96 8.55913 22.9266 8.56761 22.4925C8.57278 22.2299 8.59329 22.0686 8.61315 22.1342C8.65675 22.2776 8.90235 22.3558 9.12059 22.2958C9.32316 22.24 9.39251 21.9285 9.35311 21.2517C9.3364 20.9658 9.35061 20.7469 9.3846 20.7651C9.41859 20.7833 9.44185 23.3243 9.43627 26.4116ZM10.7631 22.2425C10.8682 22.3833 11.2023 22.3439 11.3391 22.1744C11.4574 22.0281 11.4647 22.052 11.4636 22.5769C11.4626 23.0721 11.4509 23.1153 11.3607 22.96C11.2344 22.7428 10.9084 22.6892 10.7629 22.8617C10.6941 22.9433 10.6574 23.2119 10.6574 23.6344C10.6574 24.2095 10.6761 24.2934 10.8242 24.3833C11.0346 24.5111 11.2962 24.455 11.3857 24.2628C11.4333 24.1608 11.4562 24.277 11.4597 24.6381C11.4645 25.1309 11.4576 25.1521 11.3391 25.0056C11.192 24.8235 10.9634 24.8047 10.7843 24.96C10.5977 25.1217 10.6029 26.2918 10.7911 26.472C10.9634 26.6371 11.1029 26.6338 11.3033 26.46L11.4648 26.32L11.4597 26.8275C11.4562 27.1799 11.4336 27.2899 11.3857 27.1872C11.2895 26.9808 11.0724 26.9275 10.8479 27.055C10.671 27.1555 10.6574 27.2084 10.6574 27.7962C10.6574 28.1443 10.6951 28.4901 10.741 28.5646C10.8544 28.7483 11.1834 28.7372 11.3391 28.5444C11.4577 28.3977 11.4648 28.4184 11.4648 28.91C11.4648 29.4016 11.4577 29.4223 11.3391 29.2756C11.1834 29.0828 10.8544 29.0717 10.741 29.2554C10.6951 29.3299 10.6574 29.6606 10.6574 29.9904C10.6574 30.489 10.6837 30.6127 10.8129 30.7248C11.0027 30.8893 11.2875 30.8435 11.3857 30.6328C11.4334 30.5304 11.4562 30.6435 11.4597 31.0003C11.4647 31.5104 11.4634 31.5139 11.317 31.3572C11.104 31.1291 10.7688 31.2123 10.6667 31.5184C10.6185 31.6632 10.594 29.7497 10.5987 26.215C10.6029 23.1735 10.6268 21.0158 10.652 21.42C10.6772 21.8243 10.7272 22.1944 10.7631 22.2425ZM11.4392 20.8732C11.4135 20.9289 11.3943 20.9124 11.3905 20.8308C11.387 20.757 11.406 20.7157 11.4328 20.739C11.4597 20.7622 11.4626 20.8226 11.4392 20.8732ZM53.9331 26.2156V31.7103L33.0421 31.6926L12.1511 31.675L12.1303 26.285C12.1187 23.3205 12.1267 20.8555 12.148 20.8072C12.1788 20.7372 16.4017 20.7196 33.0599 20.7203L53.9331 20.7211V26.2156ZM54.7149 20.8732C54.6891 20.9289 54.67 20.9124 54.6661 20.8308C54.6627 20.757 54.6817 20.7157 54.7085 20.739C54.7353 20.7622 54.7382 20.8226 54.7149 20.8732ZM57.5407 20.8732C57.515 20.9289 57.4958 20.9124 57.492 20.8308C57.4885 20.757 57.5075 20.7157 57.5343 20.739C57.5612 20.7622 57.5641 20.8226 57.5407 20.8732ZM65.0552 27.9825C65.0665 31.9577 65.0553 35.21 65.0303 35.21C65.0053 35.21 63.8716 34.4225 62.5109 33.46L60.0369 31.71H59.1649H58.293V26.2142V20.7185L61.6638 20.7367L65.0346 20.755L65.0552 27.9825ZM55.5385 26.2675C55.5333 29.2802 55.5115 31.682 55.4898 31.605C55.3857 31.2345 55.0007 31.1091 54.7855 31.3756C54.667 31.5221 54.6601 31.5009 54.6648 31.0081C54.6686 30.6235 54.6893 30.5267 54.743 30.6425C54.8384 30.8482 55.2612 30.8629 55.3836 30.6646C55.4295 30.5901 55.4671 30.273 55.4671 29.96C55.4671 29.647 55.4295 29.3299 55.3836 29.2554C55.2511 29.0408 54.8245 29.0887 54.7186 29.33C54.6933 29.3878 54.6696 29.1996 54.6661 28.9119C54.6601 28.4192 54.6671 28.3979 54.7855 28.5444C54.9326 28.7265 55.1611 28.7453 55.3403 28.59C55.4366 28.5064 55.4671 28.3298 55.4671 27.855C55.4671 27.3233 55.443 27.2091 55.3057 27.09C55.2168 27.013 55.1078 26.95 55.0634 26.95C55.019 26.95 54.91 27.013 54.8212 27.09L54.6597 27.23V26.7594C54.6597 26.3136 54.6664 26.297 54.7855 26.4444C54.9348 26.6294 55.1171 26.6429 55.3195 26.4842C55.526 26.3221 55.5366 25.1726 55.3335 24.978C55.1538 24.8058 54.9381 24.8167 54.7855 25.0056C54.667 25.1521 54.6601 25.1309 54.6648 24.6381C54.6686 24.2535 54.6893 24.1567 54.743 24.2725C54.8384 24.4782 55.2612 24.4929 55.3836 24.2946C55.5063 24.0958 55.4897 23.0136 55.3617 22.8617C55.2162 22.6892 54.8902 22.7428 54.7639 22.96C54.6736 23.1153 54.662 23.0721 54.661 22.5769C54.6598 22.052 54.6672 22.0281 54.7855 22.1744C54.9451 22.372 55.2704 22.378 55.3891 22.1855C55.4415 22.1007 55.4677 21.7827 55.4525 21.4154C55.4384 21.0713 55.454 20.7897 55.4873 20.7899C55.5207 20.7899 55.5437 23.2548 55.5385 26.2675ZM56.7736 21.4154C56.7584 21.7827 56.7845 22.1007 56.8369 22.1855C56.9557 22.378 57.281 22.372 57.4406 22.1744C57.5592 22.0277 57.5663 22.0484 57.5663 22.54C57.5663 23.0316 57.5592 23.0523 57.4406 22.9056C57.2849 22.7128 56.9559 22.7017 56.8425 22.8854C56.7966 22.9599 56.7589 23.277 56.7589 23.59C56.7589 23.903 56.7966 24.2201 56.8425 24.2946C56.9649 24.4929 57.3876 24.4782 57.4831 24.2725C57.5368 24.1567 57.5574 24.2535 57.5612 24.6381C57.566 25.1309 57.5591 25.1521 57.4406 25.0056C57.2912 24.8206 57.1089 24.8071 56.9066 24.9659C56.7853 25.0611 56.7589 25.1894 56.7589 25.6852C56.7589 26.3341 56.8763 26.6 57.1626 26.6C57.2464 26.6 57.3715 26.53 57.4406 26.4444C57.5597 26.297 57.5663 26.3136 57.5663 26.7594C57.5663 27.23 57.5663 27.23 57.4048 27.09C57.316 27.013 57.207 26.95 57.1626 26.95C57.1182 26.95 57.0092 27.013 56.9204 27.09C56.7831 27.2091 56.7589 27.3233 56.7589 27.855C56.7589 28.3298 56.7895 28.5064 56.8858 28.59C57.0649 28.7453 57.2935 28.7265 57.4406 28.5444C57.5592 28.3977 57.5663 28.4184 57.5663 28.91C57.5663 29.4016 57.5592 29.4223 57.4406 29.2756C57.2849 29.0828 56.9559 29.0717 56.8425 29.2554C56.7966 29.3299 56.7589 29.647 56.7589 29.96C56.7589 30.273 56.7966 30.5901 56.8425 30.6646C56.9649 30.8629 57.3876 30.8482 57.4831 30.6425C57.5368 30.5267 57.5574 30.6235 57.5612 31.0081C57.566 31.5009 57.5591 31.5221 57.4406 31.3756C57.2254 31.1091 56.8404 31.2345 56.7363 31.605C56.7146 31.682 56.6927 29.2802 56.6876 26.2675C56.6824 23.2548 56.7054 20.7899 56.7388 20.7899C56.7721 20.7897 56.7877 21.0713 56.7736 21.4154ZM0.941003 22.598C0.835075 22.6995 0.807382 22.8738 0.807382 23.438C0.807382 24.0567 0.828535 24.1683 0.968858 24.29C1.16319 24.4585 1.27889 24.4651 1.51602 24.321C1.6821 24.2202 1.6955 24.1573 1.6955 23.4765C1.6955 23.0719 1.65788 22.6799 1.61194 22.6054C1.50431 22.4311 1.11968 22.4269 0.941003 22.598ZM3.40715 22.554C3.34337 22.6093 3.31027 22.9047 3.31027 23.4182C3.31027 24.085 3.33166 24.2151 3.45794 24.3142C3.64331 24.4596 3.82739 24.4616 3.99081 24.32C4.09108 24.2331 4.11765 24.0452 4.11765 23.424C4.11765 22.5774 4.07219 22.47 3.71396 22.47C3.5985 22.47 3.46044 22.5078 3.40715 22.554ZM65.9273 22.6256C65.7823 22.805 65.7492 23.8814 65.8795 24.1785C65.9828 24.4141 66.3199 24.4885 66.5315 24.3225C66.6706 24.2133 66.6897 24.1041 66.6897 23.4182C66.6897 22.9047 66.6566 22.6093 66.5928 22.554C66.4323 22.4148 66.0658 22.4542 65.9273 22.6256ZM68.4014 22.554C68.3376 22.6093 68.3045 22.9047 68.3045 23.4182C68.3045 24.085 68.3259 24.2151 68.4522 24.3142C68.6484 24.4681 68.8347 24.4603 69.0311 24.29C69.1706 24.1691 69.1926 24.0567 69.1926 23.4656C69.1926 22.6854 69.0903 22.47 68.7197 22.47C68.5979 22.47 68.4547 22.5078 68.4014 22.554ZM0.968858 24.99C0.828212 25.1119 0.807382 25.2233 0.807382 25.8542C0.807382 26.4668 0.83015 26.5962 0.955052 26.6942C1.14107 26.8402 1.40412 26.8427 1.56866 26.7C1.66829 26.6136 1.6955 26.4281 1.6955 25.8359C1.6955 25.1941 1.67346 25.0644 1.54783 24.9659C1.35164 24.8119 1.16529 24.8197 0.968858 24.99ZM3.4371 24.96C3.33683 25.0469 3.31027 25.2348 3.31027 25.856C3.31027 26.7026 3.35572 26.81 3.71396 26.81C4.07478 26.81 4.11765 26.7047 4.11765 25.8184C4.11765 25.0759 4.10231 24.9878 3.9615 24.9225C3.74246 24.8208 3.58461 24.8322 3.4371 24.96ZM65.9987 24.9493C65.8652 25.0338 65.8379 25.1532 65.8141 25.7564C65.792 26.3204 65.8129 26.4995 65.9169 26.6372C66.0555 26.8206 66.277 26.8566 66.5336 26.7375C66.6738 26.6724 66.6897 26.5845 66.6897 25.8734C66.6897 25.1953 66.6686 25.065 66.5421 24.9659C66.3611 24.8239 66.2043 24.8191 65.9987 24.9493ZM68.4313 24.96C68.3316 25.0465 68.3045 25.2324 68.3045 25.83C68.3045 26.6553 68.3748 26.81 68.7498 26.81C69.087 26.81 69.1926 26.5726 69.1926 25.8144C69.1926 25.2233 69.1706 25.1109 69.0311 24.99C68.8372 24.8219 68.6042 24.8102 68.4313 24.96ZM1.13033 27.2786C0.864625 27.3609 0.807382 27.5337 0.807382 28.2534C0.807382 29.0452 0.880611 29.19 1.2814 29.19C1.65102 29.19 1.6955 29.0874 1.6955 28.235C1.6955 27.501 1.68339 27.4406 1.51602 27.339C1.32435 27.2225 1.31563 27.2212 1.13033 27.2786ZM3.48975 27.339C3.32238 27.4406 3.31027 27.501 3.31027 28.235C3.31027 29.0826 3.35564 29.19 3.71396 29.19C4.07227 29.19 4.11765 29.0826 4.11765 28.235C4.11765 27.501 4.10554 27.4406 3.93817 27.339C3.8395 27.2791 3.73858 27.23 3.71396 27.23C3.68933 27.23 3.58841 27.2791 3.48975 27.339ZM65.9998 27.4018C65.8178 27.5597 65.8016 27.6267 65.8016 28.2262C65.8016 28.9726 65.9083 29.19 66.2745 29.19C66.6453 29.19 66.6897 29.0879 66.6897 28.235C66.6897 27.501 66.6776 27.4406 66.5103 27.339C66.273 27.1949 66.2327 27.1999 65.9998 27.4018ZM68.4855 27.338C68.3162 27.4408 68.3045 27.4989 68.3045 28.235C68.3045 28.7538 68.3375 29.0506 68.4014 29.106C68.562 29.2452 68.9284 29.2058 69.0669 29.0344C69.3026 28.7428 69.2003 27.3 68.944 27.3C68.9104 27.3 68.8342 27.2838 68.7747 27.264C68.7153 27.2442 68.5851 27.2775 68.4855 27.338ZM0.941003 29.808C0.835075 29.9095 0.807382 30.0838 0.807382 30.648C0.807382 31.2667 0.828535 31.3783 0.968858 31.5C1.16998 31.6744 1.38781 31.6788 1.56188 31.512C1.75178 31.33 1.75719 29.9535 1.56866 29.79C1.39847 29.6425 1.10498 29.6509 0.941003 29.808ZM3.40715 29.764C3.34337 29.8193 3.31027 30.1147 3.31027 30.6282C3.31027 31.3233 3.32811 31.4223 3.47416 31.5369C3.60399 31.6387 3.68384 31.6516 3.85767 31.5987L4.07728 31.5318L4.10013 30.7034C4.11531 30.1524 4.09165 29.8422 4.02964 29.7774C3.91524 29.6579 3.53892 29.6498 3.40715 29.764ZM65.9273 29.8356C65.8343 29.9506 65.8016 30.1694 65.8016 30.6756C65.8016 31.2667 65.8237 31.3791 65.9631 31.5C66.1642 31.6744 66.382 31.6788 66.5561 31.512C66.6633 31.4093 66.6897 31.2324 66.6897 30.616C66.6897 30.112 66.6564 29.8191 66.5928 29.764C66.4323 29.6248 66.0658 29.6642 65.9273 29.8356ZM68.4458 29.7556C68.3244 29.8169 68.3045 29.9384 68.3045 30.6176C68.3045 31.2947 68.3257 31.425 68.4522 31.5242C68.6484 31.6781 68.8347 31.6703 69.0311 31.5C69.1706 31.3791 69.1926 31.2667 69.1926 30.6756C69.1926 30.1694 69.1599 29.9506 69.0669 29.8356C68.9336 29.6705 68.6791 29.6378 68.4458 29.7556ZM0.968858 32.2C0.828212 32.3219 0.807382 32.4333 0.807382 33.0642C0.807382 33.6768 0.83015 33.8062 0.955052 33.9042C1.14107 34.0502 1.40412 34.0527 1.56866 33.91C1.66829 33.8236 1.6955 33.6381 1.6955 33.0459C1.6955 32.4041 1.67346 32.2744 1.54783 32.1759C1.35164 32.0219 1.16529 32.0297 0.968858 32.2ZM3.4371 32.17C3.33683 32.2569 3.31027 32.4448 3.31027 33.066C3.31027 33.9126 3.35572 34.02 3.71396 34.02C4.07478 34.02 4.11765 33.9147 4.11765 33.0284C4.11765 32.2859 4.10231 32.1978 3.9615 32.1325C3.74246 32.0308 3.58461 32.0422 3.4371 32.17ZM65.9987 32.1593C65.8652 32.2438 65.8379 32.3632 65.8141 32.9664C65.792 33.5304 65.8129 33.7095 65.9169 33.8472C66.0555 34.0306 66.277 34.0666 66.5336 33.9475C66.6738 33.8824 66.6897 33.7945 66.6897 33.0834C66.6897 32.4053 66.6686 32.275 66.5421 32.1759C66.3611 32.0339 66.2043 32.0291 65.9987 32.1593ZM68.4381 32.188C68.3315 32.2902 68.3045 32.4658 68.3045 33.058C68.3045 33.864 68.3767 34.02 68.7498 34.02C69.087 34.02 69.1926 33.7826 69.1926 33.0244C69.1926 32.4333 69.1706 32.3209 69.0311 32.2C68.83 32.0256 68.6122 32.0212 68.4381 32.188ZM1.08997 34.5237C0.830715 34.6511 0.809885 34.7189 0.808593 35.4421C0.80714 36.2543 0.872457 36.4 1.23812 36.4C1.65489 36.4 1.6955 36.3152 1.6955 35.445C1.6955 34.711 1.68339 34.6506 1.51602 34.549C1.30521 34.421 1.29956 34.4206 1.08997 34.5237ZM3.48975 34.549C3.32238 34.6506 3.31027 34.711 3.31027 35.445C3.31027 36.2926 3.35564 36.4 3.71396 36.4C4.07227 36.4 4.11765 36.2926 4.11765 35.445C4.11765 34.711 4.10554 34.6506 3.93817 34.549C3.8395 34.4891 3.73858 34.44 3.71396 34.44C3.68933 34.44 3.58841 34.4891 3.48975 34.549ZM65.9998 34.6118C65.8178 34.7697 65.8016 34.8367 65.8016 35.4362C65.8016 36.1826 65.9083 36.4 66.2745 36.4C66.6453 36.4 66.6897 36.2979 66.6897 35.445C66.6897 34.711 66.6776 34.6506 66.5103 34.549C66.273 34.4049 66.2327 34.4099 65.9998 34.6118ZM68.484 34.549C68.3166 34.6506 68.3045 34.711 68.3045 35.445C68.3045 36.2979 68.3489 36.4 68.7197 36.4C69.0896 36.4 69.1926 36.1843 69.1926 35.4095C69.1926 34.759 69.1836 34.724 68.9799 34.5851C68.725 34.4112 68.7122 34.4103 68.484 34.549ZM65.059 36.5925L65.0834 36.96H35.0042H4.92503V36.5749V36.1898L34.9798 36.2074L65.0346 36.225L65.059 36.5925ZM0.941003 37.018C0.835075 37.1195 0.807382 37.2938 0.807382 37.858C0.807382 38.4767 0.828535 38.5883 0.968858 38.71C1.16998 38.8844 1.38781 38.8888 1.56188 38.722C1.75178 38.54 1.75719 37.1635 1.56866 37C1.39847 36.8525 1.10498 36.8609 0.941003 37.018ZM3.40715 36.974C3.25068 37.1097 3.27595 38.6002 3.4371 38.74C3.58461 38.8679 3.74246 38.8792 3.9615 38.7776C4.10231 38.7122 4.11765 38.6241 4.11765 37.8815C4.11765 36.9953 4.07478 36.89 3.71396 36.89C3.5985 36.89 3.46044 36.9278 3.40715 36.974ZM65.9273 37.0456C65.7823 37.225 65.7492 38.3014 65.8795 38.5985C65.9828 38.8341 66.3199 38.9085 66.5315 38.7425C66.6706 38.6333 66.6897 38.5241 66.6897 37.8381C66.6897 37.3247 66.6566 37.0293 66.5928 36.974C66.4323 36.8348 66.0658 36.8742 65.9273 37.0456ZM68.4458 36.9656C68.3244 37.0269 68.3045 37.1484 68.3045 37.8277C68.3045 38.524 68.3234 38.6331 68.4627 38.7425C68.6744 38.9085 69.0114 38.8341 69.1147 38.5985C69.245 38.3014 69.2119 37.225 69.0669 37.0456C68.9336 36.8806 68.6791 36.8478 68.4458 36.9656ZM7.8316 43.7688V49.9477L6.44597 50.9263C5.68381 51.4646 5.02983 51.9155 4.99269 51.9283C4.95547 51.9412 4.92503 48.7203 4.92503 44.7708V37.59H6.37832H7.8316V43.7688ZM8.71205 37.7125C8.65263 37.7798 8.59369 37.8482 8.5811 37.8642C8.5685 37.8802 8.55825 37.8251 8.55825 37.7417C8.55825 37.6484 8.60871 37.59 8.6892 37.59C8.80135 37.59 8.80466 37.6076 8.71205 37.7125ZM9.43708 43.2425C9.432 46.3514 9.40261 48.7837 9.37193 48.6476C9.34117 48.5115 9.28869 48.362 9.25534 48.3151C9.1629 48.1855 8.74023 48.2114 8.64544 48.3525C8.58376 48.4443 8.56253 48.3526 8.56067 47.9869C8.55841 47.5255 8.56511 47.5073 8.68396 47.6544C8.83332 47.8394 9.01563 47.8529 9.21796 47.6941C9.33931 47.5989 9.36563 47.4706 9.36563 46.9748C9.36563 46.1447 9.1214 45.8518 8.71972 46.2C8.55825 46.34 8.55825 46.34 8.55825 45.885V45.43L8.71972 45.57C8.80854 45.647 8.91753 45.71 8.96194 45.71C9.00634 45.71 9.11534 45.647 9.20415 45.57C9.34076 45.4516 9.36563 45.3367 9.36563 44.823C9.36563 44.3564 9.33471 44.1864 9.23201 44.088C9.05228 43.9158 8.83655 43.9267 8.68396 44.1156C8.56511 44.2627 8.55841 44.2445 8.56067 43.7831C8.56253 43.4174 8.58376 43.3257 8.64544 43.4175C8.75945 43.5873 9.17452 43.5788 9.28206 43.4046C9.3905 43.2289 9.3905 42.1711 9.28206 41.9954C9.17452 41.8212 8.75945 41.8128 8.64544 41.9825C8.58368 42.0744 8.56253 41.9852 8.56067 41.6247C8.55825 41.1484 8.55946 41.1458 8.70608 41.3028C8.81798 41.4226 8.90405 41.4502 9.05979 41.4163C9.31331 41.3612 9.36313 41.2134 9.3645 40.5125C9.36547 40.0625 9.3381 39.9461 9.20415 39.83C9.11534 39.753 9.00634 39.69 8.96194 39.69C8.91753 39.69 8.80854 39.753 8.71972 39.83L8.55825 39.97V39.515V39.06L8.71972 39.2C9.11324 39.5412 9.36563 39.254 9.36563 38.465C9.36563 38.068 9.32841 37.8551 9.23992 37.7456C9.12228 37.5999 9.12487 37.59 9.28029 37.59H9.44637L9.43708 43.2425ZM10.7843 37.7C10.6872 37.7842 10.6574 37.9623 10.6574 38.4591C10.6574 39.0114 10.6807 39.1266 10.8131 39.2304C11.0052 39.3812 11.2846 39.3204 11.3842 39.1063C11.4343 38.9987 11.4561 39.1014 11.4597 39.4625L11.4648 39.97L11.3033 39.83C11.1069 39.6597 10.9981 39.6544 10.8051 39.8059C10.6029 39.9645 10.5866 41.1586 10.7843 41.33C10.9634 41.4853 11.192 41.4665 11.3391 41.2844C11.4577 41.1377 11.4648 41.1584 11.4648 41.65C11.4648 42.1416 11.4577 42.1623 11.3391 42.0156C11.2024 41.8464 10.9085 41.8104 10.7543 41.944C10.6332 42.049 10.6226 43.2128 10.741 43.4046C10.8544 43.5883 11.1834 43.5772 11.3391 43.3844C11.4577 43.2377 11.4648 43.2584 11.4648 43.75C11.4648 44.2416 11.4577 44.2623 11.3391 44.1156C11.192 43.9335 10.9634 43.9147 10.7843 44.07C10.6872 44.1542 10.6574 44.3323 10.6574 44.8291C10.6574 45.3814 10.6807 45.4966 10.8131 45.6005C11.0052 45.7512 11.2846 45.6904 11.3842 45.4763C11.4343 45.3687 11.4561 45.4714 11.4597 45.8325L11.4648 46.34L11.3033 46.2C11.1069 46.0297 10.9981 46.0244 10.8051 46.1759C10.6029 46.3345 10.5866 47.5286 10.7843 47.7C10.9634 47.8553 11.192 47.8365 11.3391 47.6544C11.4577 47.5077 11.4648 47.5284 11.4648 48.02C11.4648 48.5116 11.4577 48.5323 11.3391 48.3856C11.1774 48.1853 10.8738 48.1863 10.7119 48.3875C10.5962 48.5312 10.5848 48.0651 10.5809 43.0675L10.5767 37.59H10.7439C10.896 37.59 10.8997 37.6 10.7843 37.7ZM11.4648 37.7417C11.4648 37.8251 11.4546 37.8802 11.442 37.8642C11.4294 37.8482 11.3704 37.7798 11.311 37.7125C11.2184 37.6076 11.2217 37.59 11.3339 37.59C11.4144 37.59 11.4648 37.6484 11.4648 37.7417ZM53.9331 43.05V48.51H33.0219H12.1107V43.05V37.59H33.0219H53.9331V43.05ZM54.8136 37.7125C54.7541 37.7798 54.6952 37.8482 54.6826 37.8642C54.67 37.8802 54.6597 37.8251 54.6597 37.7417C54.6597 37.6484 54.7102 37.59 54.7907 37.59C54.9029 37.59 54.9062 37.6076 54.8136 37.7125ZM55.5437 43.0675C55.5398 48.0651 55.5283 48.5312 55.4127 48.3875C55.3305 48.2854 55.2033 48.23 55.051 48.23C54.8827 48.23 54.7953 48.2747 54.743 48.3875C54.6893 48.5033 54.6686 48.4065 54.6648 48.0219C54.6601 47.5291 54.667 47.5079 54.7855 47.6544C54.9326 47.8365 55.1611 47.8553 55.3403 47.7C55.5345 47.5315 55.5201 46.4122 55.3208 46.1989C55.1448 46.0104 54.8497 46.0585 54.7404 46.2937C54.6903 46.4013 54.6685 46.2986 54.6648 45.9375L54.6597 45.43L54.8212 45.57C55.0177 45.7403 55.1265 45.7456 55.3195 45.5941C55.5217 45.4355 55.5379 44.2414 55.3403 44.07C55.1611 43.9147 54.9326 43.9335 54.7855 44.1156C54.667 44.2621 54.6601 44.2409 54.6648 43.7481C54.6686 43.3635 54.6893 43.2667 54.743 43.3825C54.8384 43.5882 55.2612 43.6029 55.3836 43.4046C55.4295 43.3301 55.4671 43.013 55.4671 42.7C55.4671 42.387 55.4295 42.0699 55.3836 41.9954C55.2612 41.7971 54.8384 41.8118 54.743 42.0175C54.6893 42.1333 54.6686 42.0365 54.6648 41.6519C54.6601 41.1591 54.667 41.1379 54.7855 41.2844C54.9326 41.4665 55.1611 41.4853 55.3403 41.33C55.4366 41.2465 55.4671 41.0698 55.4671 40.595C55.4671 40.0633 55.443 39.9491 55.3057 39.83C55.2168 39.753 55.1078 39.69 55.0634 39.69C55.019 39.69 54.91 39.753 54.8212 39.83L54.6597 39.97V39.515V39.06L54.8212 39.2C55.0308 39.3817 55.1858 39.3771 55.3414 39.1844C55.5203 38.9631 55.5194 37.8553 55.3403 37.7C55.2249 37.6 55.2285 37.59 55.3807 37.59H55.5479L55.5437 43.0675ZM56.8858 37.7C56.7887 37.7842 56.7589 37.9623 56.7589 38.4591C56.7589 39.0114 56.7822 39.1266 56.9146 39.2304C57.1067 39.3812 57.3861 39.3204 57.4857 39.1063C57.5358 38.9987 57.5576 39.1014 57.5612 39.4625L57.5663 39.97L57.4048 39.83C57.316 39.753 57.207 39.69 57.1626 39.69C57.1182 39.69 57.0092 39.753 56.9204 39.83C56.7831 39.9491 56.7589 40.0633 56.7589 40.595C56.7589 41.0698 56.7895 41.2465 56.8858 41.33C57.0649 41.4853 57.2935 41.4665 57.4406 41.2844C57.5591 41.1379 57.566 41.1591 57.5612 41.6519C57.5574 42.0365 57.5368 42.1333 57.4831 42.0175C57.3876 41.8118 56.9649 41.7971 56.8425 41.9954C56.7966 42.0699 56.7589 42.387 56.7589 42.7C56.7589 43.013 56.7966 43.3301 56.8425 43.4046C56.9649 43.6029 57.3876 43.5882 57.4831 43.3825C57.5368 43.2667 57.5574 43.3635 57.5612 43.7481C57.566 44.2409 57.5591 44.2621 57.4406 44.1156C57.2935 43.9335 57.0649 43.9147 56.8858 44.07C56.7392 44.1971 56.7026 45.2779 56.8374 45.4964C56.9972 45.7552 57.3617 45.742 57.4872 45.4728C57.5351 45.3702 57.5577 45.4801 57.5612 45.8325L57.5663 46.34L57.4048 46.2C57.1952 46.0183 57.0403 46.0229 56.8847 46.2156C56.7058 46.4369 56.7067 47.5447 56.8858 47.7C57.0649 47.8553 57.2935 47.8365 57.4406 47.6544C57.5591 47.5079 57.566 47.5291 57.5612 48.0219C57.5574 48.4065 57.5368 48.5033 57.4831 48.3875C57.4308 48.2747 57.3433 48.23 57.1751 48.23C57.0228 48.23 56.8956 48.2854 56.8134 48.3875C56.6977 48.5312 56.6863 48.0651 56.6824 43.0675L56.6782 37.59H56.8454C56.9975 37.59 57.0012 37.6 56.8858 37.7ZM57.5663 37.7417C57.5663 37.8251 57.5561 37.8802 57.5435 37.8642C57.5309 37.8482 57.4719 37.7798 57.4125 37.7125C57.3199 37.6076 57.3232 37.59 57.4354 37.59C57.5159 37.59 57.5663 37.6484 57.5663 37.7417ZM65.075 44.8C65.075 48.7655 65.0471 52.01 65.013 52.01C64.9789 52.01 63.8436 51.2237 62.4899 50.2627L60.0288 48.5153L59.1609 48.5127L58.293 48.51V43.05V37.59H61.684H65.075V44.8ZM0.968858 39.41C0.828212 39.5319 0.807382 39.6433 0.807382 40.2741C0.807382 40.8868 0.83015 41.0161 0.955052 41.1141C1.14107 41.2602 1.40412 41.2627 1.56866 41.12C1.66829 41.0336 1.6955 40.8481 1.6955 40.2559C1.6955 39.6141 1.67346 39.4844 1.54783 39.3859C1.35164 39.2319 1.16529 39.2397 0.968858 39.41ZM3.4371 39.38C3.33683 39.4669 3.31027 39.6548 3.31027 40.276C3.31027 41.1225 3.35572 41.23 3.71396 41.23C4.07478 41.23 4.11765 41.1247 4.11765 40.2385C4.11765 39.4959 4.10231 39.4078 3.9615 39.3424C3.74246 39.2408 3.58461 39.2521 3.4371 39.38ZM65.9987 39.3693C65.8652 39.4538 65.8379 39.5732 65.8141 40.1764C65.782 40.9951 65.884 41.23 66.2718 41.23C66.6451 41.23 66.6897 41.1288 66.6897 40.2819C66.6897 39.615 66.6683 39.4849 66.5421 39.3859C66.3611 39.2439 66.2043 39.2391 65.9987 39.3693ZM68.4381 39.398C68.3307 39.501 68.3045 39.6785 68.3045 40.3056C68.3045 41.0046 68.3206 41.0925 68.4606 41.1576C68.9853 41.4009 69.1926 41.1395 69.1926 40.2344C69.1926 39.6433 69.1706 39.5309 69.0311 39.41C68.83 39.2356 68.6122 39.2312 68.4381 39.398ZM1.08512 41.7388C0.8312 41.8592 0.809885 41.9307 0.808593 42.6691C0.80722 43.4509 0.886263 43.6275 1.23731 43.6275C1.64641 43.6275 1.6955 43.5244 1.6955 42.665C1.6955 42.1175 1.66474 41.8565 1.59458 41.8095C1.41171 41.6868 1.24393 41.6635 1.08512 41.7388ZM65.9989 41.8226C65.8178 41.9796 65.8016 42.0474 65.8016 42.6462C65.8016 43.3376 65.8909 43.559 66.1976 43.6286C66.2849 43.6484 66.4314 43.619 66.523 43.5633C66.6748 43.4711 66.6897 43.391 66.6897 42.6696C66.6897 41.8589 66.6678 41.7975 66.3421 41.6965C66.2459 41.6667 66.1292 41.7096 65.9989 41.8226ZM68.5416 41.7439C68.3527 41.8255 68.344 41.8605 68.3219 42.6219C68.3079 43.1103 68.3321 43.4495 68.3852 43.5049C68.5514 43.6786 68.7985 43.6781 68.9997 43.5037C69.1749 43.3518 69.1926 43.2777 69.1926 42.6986C69.1926 42.3478 69.1555 42.0006 69.11 41.927C68.9795 41.7155 68.7665 41.6469 68.5416 41.7439ZM3.40715 41.804C3.34329 41.8594 3.31027 42.1567 3.31027 42.6774C3.31027 43.4421 3.31656 43.4703 3.51211 43.5814C3.6991 43.6876 3.72881 43.6876 3.9158 43.5814C4.11135 43.4703 4.11765 43.4421 4.11765 42.6774C4.11765 41.8272 4.07243 41.72 3.71396 41.72C3.5985 41.72 3.46044 41.7578 3.40715 41.804ZM0.933091 44.2556C0.840081 44.3706 0.807382 44.5894 0.807382 45.0956C0.807382 45.6867 0.829423 45.7991 0.968858 45.92C1.16998 46.0944 1.38781 46.0988 1.56188 45.932C1.75178 45.75 1.75719 44.3735 1.56866 44.21C1.38652 44.0521 1.07963 44.0741 0.933091 44.2556ZM3.40715 44.184C3.25068 44.3197 3.27595 45.8102 3.4371 45.95C3.58461 46.0779 3.74246 46.0892 3.9615 45.9876C4.10231 45.9222 4.11765 45.8341 4.11765 45.0915C4.11765 44.2053 4.07478 44.1 3.71396 44.1C3.5985 44.1 3.46044 44.1378 3.40715 44.184ZM65.9528 44.2156C65.8134 44.361 65.7545 45.5276 65.8731 45.7955C65.983 46.0439 66.3143 46.1229 66.5315 45.9525C66.6709 45.8431 66.6897 45.734 66.6897 45.0366C66.6897 44.3255 66.6738 44.2375 66.5336 44.1724C66.3059 44.0668 66.0793 44.0837 65.9528 44.2156ZM68.4458 44.1756C68.3244 44.2369 68.3045 44.3584 68.3045 45.0377C68.3045 45.7147 68.3257 45.845 68.4522 45.9441C68.6484 46.0981 68.8347 46.0903 69.0311 45.92C69.1706 45.7991 69.1926 45.6867 69.1926 45.0956C69.1926 44.5894 69.1599 44.3706 69.0669 44.2556C68.9336 44.0906 68.6791 44.0578 68.4458 44.1756ZM0.968858 46.62C0.828212 46.7419 0.807382 46.8533 0.807382 47.4841C0.807382 48.0968 0.83015 48.2261 0.955052 48.3241C1.14107 48.4702 1.40412 48.4727 1.56866 48.33C1.66829 48.2436 1.6955 48.0581 1.6955 47.4659C1.6955 46.8241 1.67346 46.6944 1.54783 46.5959C1.35164 46.4419 1.16529 46.4497 0.968858 46.62ZM3.44389 46.608C3.33667 46.7107 3.31027 46.8876 3.31027 47.504C3.31027 48.3316 3.35701 48.44 3.71396 48.44C4.07478 48.44 4.11765 48.3347 4.11765 47.4485C4.11765 46.7059 4.10231 46.6178 3.9615 46.5524C3.73576 46.4477 3.59551 46.4628 3.44389 46.608ZM65.9987 46.5793C65.8652 46.6638 65.8379 46.7832 65.8141 47.3864C65.782 48.2051 65.884 48.44 66.2718 48.44C66.6451 48.44 66.6897 48.3388 66.6897 47.4919C66.6897 46.825 66.6683 46.6949 66.5421 46.5959C66.3611 46.4539 66.2043 46.4491 65.9987 46.5793ZM68.4381 46.608C68.3309 46.7107 68.3045 46.8876 68.3045 47.504C68.3045 48.3368 68.3503 48.44 68.7197 48.44C69.0903 48.44 69.1926 48.2246 69.1926 47.4444C69.1926 46.8533 69.1706 46.7409 69.0311 46.62C68.83 46.4456 68.6122 46.4412 68.4381 46.608ZM0.934221 49.04C0.836125 49.1251 0.807382 49.306 0.807382 49.8393C0.807382 50.2183 0.830473 50.5808 0.858731 50.6446C0.943829 50.8369 1.28341 50.9109 1.50456 50.7853C1.68662 50.6818 1.6955 50.6402 1.6955 49.8874C1.6955 49.3667 1.66248 49.0694 1.59862 49.014C1.46144 48.8951 1.08439 48.9098 0.934221 49.04ZM3.40715 49.014C3.34329 49.0694 3.31027 49.3667 3.31027 49.8874C3.31027 50.6521 3.31656 50.6803 3.51211 50.7914C3.6991 50.8976 3.72881 50.8976 3.9158 50.7914C4.11135 50.6803 4.11765 50.6521 4.11765 49.8874C4.11765 49.0372 4.07243 48.93 3.71396 48.93C3.5985 48.93 3.46044 48.9678 3.40715 49.014ZM65.9273 49.0856C65.7803 49.2675 65.7486 50.3932 65.8842 50.613C66.0278 50.8456 66.2699 50.9153 66.4933 50.7884C66.6821 50.681 66.6897 50.6463 66.6897 49.8874C66.6897 49.3667 66.6567 49.0694 66.5928 49.014C66.4323 48.8748 66.0658 48.9142 65.9273 49.0856ZM68.4014 49.014C68.3375 49.0694 68.3045 49.3667 68.3045 49.8874C68.3045 50.6463 68.3121 50.681 68.5009 50.7884C68.7243 50.9153 68.9665 50.8456 69.11 50.613C69.2457 50.3932 69.2139 49.2675 69.0669 49.0856C68.9284 48.9142 68.562 48.8748 68.4014 49.014ZM0.933091 51.4656C0.840081 51.5806 0.807382 51.7994 0.807382 52.3056C0.807382 52.8967 0.829423 53.0091 0.968858 53.13C1.16998 53.3044 1.38781 53.3088 1.56188 53.142C1.75178 52.96 1.75719 51.5835 1.56866 51.42C1.38652 51.2621 1.07963 51.2841 0.933091 51.4656ZM3.40715 51.394C3.34272 51.4499 3.31027 51.7552 3.31027 52.3055C3.31027 53.1203 3.31341 53.1342 3.51211 53.2127C3.66309 53.2724 3.76482 53.2724 3.9158 53.2127C4.1145 53.1342 4.11765 53.1203 4.11765 52.3055C4.11765 51.4151 4.07502 51.31 3.71396 51.31C3.5985 51.31 3.46044 51.3478 3.40715 51.394ZM65.9528 51.4258C65.8738 51.5083 65.842 51.761 65.842 52.3064C65.842 52.9828 65.8601 53.0827 65.9987 53.1707C66.2034 53.3004 66.4053 53.2966 66.5629 53.16C66.6633 53.0729 66.6897 52.8842 66.6897 52.2525C66.6897 51.5356 66.6739 51.4476 66.5336 51.3824C66.3058 51.2767 66.0792 51.2937 65.9528 51.4258ZM68.4458 51.3856C68.3244 51.4469 68.3045 51.5684 68.3045 52.2477C68.3045 52.9247 68.3257 53.055 68.4522 53.1541C68.6484 53.3081 68.8347 53.3003 69.0311 53.13C69.1706 53.0091 69.1926 52.8967 69.1926 52.3056C69.1926 51.7994 69.1599 51.5806 69.0669 51.4656C68.9336 51.3006 68.6791 51.2678 68.4458 51.3856ZM65.0346 53.41V53.795H35H4.9654L4.94013 53.4895C4.92624 53.3214 4.93415 53.1403 4.95781 53.0869C4.99438 53.0043 9.48464 52.9925 35.0177 53.0074L65.0346 53.025V53.41ZM0.968858 53.83C0.828212 53.9519 0.807382 54.0633 0.807382 54.6941C0.807382 55.4873 0.891592 55.65 1.30223 55.65C1.64924 55.65 1.6955 55.5376 1.6955 54.695C1.6955 53.961 1.68339 53.9006 1.51602 53.799C1.27889 53.6549 1.16319 53.6615 0.968858 53.83ZM3.44389 53.818C3.33667 53.9207 3.31027 54.0976 3.31027 54.714C3.31027 55.5416 3.35701 55.65 3.71396 55.65C4.07478 55.65 4.11765 55.5447 4.11765 54.6585C4.11765 53.9159 4.10231 53.8278 3.9615 53.7624C3.73576 53.6577 3.59551 53.6728 3.44389 53.818ZM65.9987 53.7893C65.8651 53.8739 65.8386 53.99 65.8191 54.5768C65.7927 55.3722 65.8824 55.6025 66.2323 55.6375C66.6371 55.6781 66.6897 55.571 66.6897 54.7073C66.6897 54.0351 66.6684 53.905 66.5421 53.8059C66.3611 53.6639 66.2043 53.6591 65.9987 53.7893ZM68.4381 53.818C68.3309 53.9207 68.3045 54.0976 68.3045 54.714C68.3045 55.5468 68.3503 55.65 68.7197 55.65C69.0903 55.65 69.1926 55.4346 69.1926 54.6544C69.1926 54.0633 69.1706 53.9509 69.0311 53.83C68.83 53.6556 68.6122 53.6512 68.4381 53.818ZM9.42675 59.3075L9.406 64.225L8.98212 64.2461L8.55825 64.2673V61.2186V58.17L8.71972 58.31C8.80854 58.387 8.91753 58.45 8.96194 58.45C9.00634 58.45 9.11534 58.387 9.20415 58.31C9.34149 58.1909 9.36563 58.0767 9.36563 57.545C9.36563 57.0702 9.33511 56.8935 9.23879 56.81C9.05963 56.6547 8.83106 56.6735 8.68396 56.8556C8.56487 57.0029 8.55825 56.986 8.55825 56.5356C8.55825 56.1033 8.56979 56.07 8.68509 56.17C8.86053 56.3221 9.1809 56.3084 9.28206 56.1446C9.328 56.0701 9.36563 55.753 9.36563 55.44C9.36563 55.127 9.328 54.8099 9.28206 54.7354C9.17452 54.5612 8.75945 54.5528 8.64544 54.7225C8.5773 54.824 8.56277 54.8059 8.56067 54.6175L8.55825 54.39H9.00287H9.4475L9.42675 59.3075ZM11.4597 54.6525C11.4553 54.8803 11.445 54.8942 11.3816 54.7575C11.3 54.5816 10.9234 54.5374 10.7543 54.684C10.6332 54.789 10.6226 55.9528 10.741 56.1446C10.8544 56.3283 11.1834 56.3172 11.3391 56.1244C11.4577 55.9777 11.4648 55.9984 11.4648 56.49C11.4648 56.9816 11.4577 57.0023 11.3391 56.8556C11.1834 56.6628 10.8544 56.6517 10.741 56.8354C10.6951 56.9099 10.6574 57.2557 10.6574 57.6038C10.6574 58.1916 10.671 58.2445 10.8479 58.345C11.0724 58.4725 11.2893 58.4192 11.3862 58.2128C11.426 58.1279 11.4489 59.3764 11.44 61.145L11.4245 64.225H11.0208H10.6171L10.5963 59.3075L10.5756 54.39H11.0202H11.4648L11.4597 54.6525ZM55.5282 59.3075L55.5075 64.225L55.0836 64.2461L54.6597 64.2673L54.6648 61.1661C54.6678 59.3815 54.6992 58.1277 54.7389 58.2128C54.8668 58.4875 55.2938 58.4802 55.4172 58.2012C55.4992 58.0161 55.4737 56.9814 55.3836 56.8354C55.2702 56.6517 54.9411 56.6628 54.7855 56.8556C54.6669 57.0023 54.6597 56.9816 54.6597 56.49C54.6597 55.9984 54.6669 55.9777 54.7855 56.1244C54.9411 56.3172 55.2702 56.3283 55.3836 56.1446C55.4295 56.0701 55.4671 55.753 55.4671 55.44C55.4671 55.127 55.4295 54.8099 55.3836 54.7354C55.2612 54.5371 54.8384 54.5518 54.743 54.7575C54.6796 54.8942 54.6693 54.8803 54.6648 54.6525L54.6597 54.39H55.1044H55.549L55.5282 59.3075ZM57.5612 54.6525C57.5568 54.8803 57.5465 54.8942 57.4831 54.7575C57.3876 54.5518 56.9649 54.5371 56.8425 54.7354C56.7966 54.8099 56.7589 55.127 56.7589 55.44C56.7589 55.753 56.7966 56.0701 56.8425 56.1446C56.9559 56.3283 57.2849 56.3172 57.4406 56.1244C57.5592 55.9777 57.5663 55.9984 57.5663 56.49C57.5663 56.9816 57.5592 57.0023 57.4406 56.8556C57.2935 56.6735 57.0649 56.6547 56.8858 56.81C56.7907 56.8924 56.7589 57.0664 56.7589 57.5043C56.7589 58.1583 56.7941 58.284 57.0048 58.3817C57.1952 58.4701 57.4009 58.3981 57.4872 58.2128C57.5268 58.1277 57.5582 59.3815 57.5612 61.1661L57.5663 64.2673L57.1424 64.2461L56.7186 64.225L56.6978 59.3075L56.6771 54.39H57.1217H57.5663L57.5612 54.6525ZM0.941003 56.268C0.836205 56.3684 0.807382 56.5409 0.807382 57.0673C0.807382 57.4365 0.830473 57.7908 0.858731 57.8546C0.943829 58.0469 1.28341 58.1209 1.50456 57.9953C1.68662 57.8918 1.6955 57.8502 1.6955 57.0974C1.6955 56.5767 1.66248 56.2794 1.59862 56.224C1.45385 56.0985 1.09271 56.1226 0.941003 56.268ZM3.40715 56.224C3.34329 56.2794 3.31027 56.5767 3.31027 57.0974C3.31027 57.8621 3.31656 57.8903 3.51211 58.0014C3.6991 58.1076 3.72881 58.1076 3.9158 58.0014C4.11135 57.8903 4.11765 57.8621 4.11765 57.0974C4.11765 56.2472 4.07243 56.14 3.71396 56.14C3.5985 56.14 3.46044 56.1778 3.40715 56.224ZM65.9273 56.2956C65.7803 56.4775 65.7486 57.6032 65.8842 57.823C66.0278 58.0556 66.2699 58.1253 66.4933 57.9984C66.6821 57.891 66.6897 57.8563 66.6897 57.0974C66.6897 56.5767 66.6567 56.2794 66.5928 56.224C66.4323 56.0848 66.0658 56.1242 65.9273 56.2956ZM68.4014 56.224C68.3375 56.2794 68.3045 56.5767 68.3045 57.0974C68.3045 57.8513 68.3131 57.8917 68.4964 57.9958C68.7334 58.1304 69.0729 58.0246 69.1443 57.794C69.2466 57.4634 69.1945 56.4535 69.0669 56.2956C68.9284 56.1242 68.562 56.0848 68.4014 56.224ZM0.933091 58.6756C0.840081 58.7906 0.807382 59.0094 0.807382 59.5156C0.807382 60.1067 0.829423 60.2191 0.968858 60.34C1.16998 60.5144 1.38781 60.5188 1.56188 60.352C1.75178 60.17 1.75719 58.7935 1.56866 58.63C1.38652 58.4721 1.07963 58.4941 0.933091 58.6756ZM3.40715 58.604C3.25068 58.7397 3.27595 60.2302 3.4371 60.37C3.58461 60.4979 3.74246 60.5092 3.9615 60.4076C4.10231 60.3422 4.11765 60.2541 4.11765 59.5115C4.11765 58.6253 4.07478 58.52 3.71396 58.52C3.5985 58.52 3.46044 58.5578 3.40715 58.604ZM65.9273 58.6756C65.8343 58.7906 65.8016 59.0094 65.8016 59.5156C65.8016 60.1067 65.8237 60.2191 65.9631 60.34C66.157 60.5081 66.39 60.5198 66.5629 60.37C66.6633 60.2829 66.6897 60.0942 66.6897 59.4625C66.6897 58.7456 66.6739 58.6576 66.5336 58.5924C66.2851 58.4772 66.063 58.5076 65.9273 58.6756ZM68.4313 58.63C68.2472 58.7897 68.2472 60.2103 68.4313 60.37C68.6042 60.5198 68.8372 60.5081 69.0311 60.34C69.1706 60.2191 69.1926 60.1067 69.1926 59.5156C69.1926 59.0094 69.1599 58.7906 69.0669 58.6756C68.9204 58.4941 68.6135 58.4721 68.4313 58.63ZM0.968858 61.04C0.828212 61.1619 0.807382 61.2733 0.807382 61.9041C0.807382 62.6973 0.891592 62.86 1.30223 62.86C1.64924 62.86 1.6955 62.7476 1.6955 61.905C1.6955 61.171 1.68339 61.1106 1.51602 61.009C1.27889 60.8649 1.16319 60.8715 0.968858 61.04ZM3.44389 61.028C3.33667 61.1307 3.31027 61.3076 3.31027 61.924C3.31027 62.428 3.34361 62.7209 3.40715 62.776C3.53544 62.8872 3.91403 62.8833 4.02286 62.7697C4.07042 62.72 4.11555 62.3408 4.12322 61.927C4.13484 61.2935 4.11442 61.1529 3.99371 61.0373C3.81439 60.8655 3.61699 60.8622 3.44389 61.028ZM65.9987 60.9993C65.8652 61.0838 65.8379 61.2032 65.8141 61.8064C65.782 62.6251 65.884 62.86 66.2718 62.86C66.6451 62.86 66.6897 62.7588 66.6897 61.9119C66.6897 61.245 66.6683 61.1149 66.5421 61.0159C66.3611 60.8739 66.2043 60.8691 65.9987 60.9993ZM68.4381 61.028C68.3309 61.1307 68.3045 61.3076 68.3045 61.924C68.3045 62.7568 68.3503 62.86 68.7197 62.86C69.0903 62.86 69.1926 62.6446 69.1926 61.8644C69.1926 61.2733 69.1706 61.1609 69.0311 61.04C68.83 60.8656 68.6122 60.8612 68.4381 61.028Z" fill="black"/>
</svg>
