<svg width="70" height="70" viewBox="0 0 70 70" fill="none" xmlns="http://www.w3.org/2000/svg">
<path fill-rule="evenodd" clip-rule="evenodd" d="M24.8014 0.0352422C24.6417 0.0681126 24.3649 0.250543 24.1865 0.440918L23.862 0.787016L23.7937 8.49458L23.7254 16.2023L14.3754 24.234L5.02534 32.2659H4.11339C2.50611 32.2659 1.0221 33.2626 0.324846 34.8102C0.108783 35.2899 0.0784453 35.9315 0.0414099 40.7917L0 46.2359H35H70L69.9586 40.7917C69.9191 35.5921 69.9042 35.3196 69.6294 34.7242C69.2035 33.8017 68.5674 33.1517 67.6319 32.6832C66.953 32.3433 66.6296 32.2659 65.8866 32.2659H64.9747L55.6246 24.2342L46.2746 16.2023L46.2063 8.48678L46.138 0.771129L45.7963 0.438864C45.0541 -0.282916 43.8586 -0.0389902 43.5264 0.902063C43.4009 1.25775 43.3546 3.19313 43.3468 8.40063L43.3364 15.4198H35H26.6636L26.6628 8.46911C26.6624 4.06228 26.6099 1.32993 26.5194 1.00355C26.3198 0.283277 25.592 -0.126919 24.8014 0.0352422ZM52.4416 25.1782L60.6121 32.1975L47.8061 32.2324C40.7628 32.2516 29.2372 32.2516 22.1939 32.2324L9.38787 32.1975L17.5584 25.1782L25.7288 18.159H35H44.2712L52.4416 25.1782ZM66.5311 35.2754C66.7734 35.4234 67.0194 35.7158 67.0778 35.9254C67.1361 36.1349 67.1839 37.8935 67.1839 39.8334V43.3607L35 43.3605L2.81606 43.3604V39.69C2.81606 36.3798 2.84025 35.9826 3.06315 35.642C3.19912 35.4342 3.44512 35.2099 3.60979 35.1435C3.7798 35.0748 17.3629 35.019 35 35.0143C65.6742 35.0062 66.0965 35.0098 66.5311 35.2754ZM18.7674 50.751C18.1855 51.2374 18.1349 51.7006 18.5407 52.8262C19.7415 56.1567 19.8446 57.8875 18.9604 59.8701C18.0335 61.9485 17.9929 63.8565 18.815 66.7114C19.3699 68.6384 19.8951 69.6399 20.4792 69.8845C21.1293 70.1566 21.8282 69.905 22.2016 69.2643L22.4656 68.8113L22.0951 67.7613C21.2855 65.4678 21.0435 64.3239 21.0902 63.0135C21.1287 61.9349 21.1971 61.6433 21.6381 60.681C22.2327 59.3829 22.4927 57.9418 22.3635 56.6584C22.1401 54.437 21.2027 51.5202 20.4996 50.8583C20.0144 50.4016 19.2427 50.3538 18.7674 50.751ZM28.5482 50.7987C27.9931 51.3152 27.9326 51.7785 28.2956 52.7394C28.915 54.379 29.2666 55.7773 29.3467 56.9187C29.4339 58.1633 29.3662 58.449 28.5034 60.4797C28.0007 61.6624 27.8933 63.4824 28.2277 65.147C28.505 66.5269 29.1837 68.6357 29.5391 69.2213C30.2622 70.4132 31.9123 70.1828 32.0885 68.8655C32.1461 68.4361 32.0768 68.0839 31.8077 67.4351C31.2057 65.9846 30.8621 64.4774 30.8468 63.2189C30.8336 62.1342 30.8717 61.9659 31.4069 60.7513C32.0694 59.2476 32.2501 58.1263 32.1063 56.409C31.9554 54.6062 31.0912 51.7882 30.4368 50.9659C29.9945 50.4099 29.0556 50.3267 28.5482 50.7987ZM38.2694 50.882C37.7637 51.3887 37.7511 51.9078 38.2161 53.0921C38.8025 54.5858 39.1321 56.086 39.1473 57.3296C39.1601 58.3941 39.1186 58.5876 38.6616 59.5895C37.9355 61.1812 37.8269 61.7541 37.9013 63.5977C37.9488 64.769 38.0627 65.539 38.3221 66.4375C38.7197 67.8152 39.1968 69.0292 39.5182 69.4805C40.0084 70.1688 41.0573 70.174 41.6308 69.4909C42.068 68.9701 42.0581 68.5391 41.5823 67.3809C40.962 65.8707 40.6723 64.5189 40.6757 63.1504C40.6786 61.9893 40.7143 61.8385 41.2901 60.5482L41.9014 59.1786L41.8961 57.3296C41.8905 55.3689 41.7219 54.5115 40.9123 52.3306C40.2564 50.5637 39.1772 49.9721 38.2694 50.882ZM48.1604 50.7898C47.5322 51.4812 47.5106 51.9049 48.0403 53.1523C48.5204 54.283 48.9395 56.2453 48.9395 57.3622C48.9395 58.3389 48.8789 58.6028 48.3919 59.7451C47.4256 62.0116 47.3746 63.8518 48.1986 66.7147C48.752 68.6382 49.2778 69.64 49.8616 69.8845C50.5083 70.1553 51.2107 69.9049 51.5794 69.272L51.839 68.8267L51.1755 66.8103C50.5444 64.8922 50.512 64.7205 50.5116 63.2874C50.5112 61.8384 50.5304 61.7389 51.0178 60.681C51.6232 59.3665 51.8768 57.9416 51.7473 56.5824C51.546 54.4726 50.5385 51.3868 49.8658 50.8195C49.336 50.3727 48.552 50.359 48.1604 50.7898Z" fill="black"/>
</svg>
