<svg width="266" height="360" viewBox="0 0 266 360" fill="none" xmlns="http://www.w3.org/2000/svg">
<path fill-rule="evenodd" clip-rule="evenodd" d="M54.3015 0.555012C53.1037 0.933821 51.6446 1.93778 51.0602 2.78603C50.3182 3.86281 49.9981 53.8137 49.9981 168.487C49.9981 332.453 50.0001 332.647 52.0216 334.069C53.8756 335.372 54.0223 336.277 53.7669 344.84L53.4887 354.189L27.0726 354.576C2.66218 354.934 0.630638 355.07 0.311496 356.356C-0.631971 360.173 -6.95301 359.999 132.208 359.999C270.151 359.999 266.167 360.105 265.266 356.462C264.916 355.047 263.638 354.942 242.468 354.576L220.041 354.189L219.763 344.84C219.508 336.277 219.654 335.372 221.508 334.069C223.53 332.647 223.532 332.455 223.532 167.883V3.12069L221.433 1.64496C219.409 0.221909 216.433 0.16381 137.907 0.0173992C92.1668 -0.0678134 55.5262 0.167682 54.3015 0.555012ZM215.32 27.0887L215.586 47.8108H136.781H57.9766V27.4117C57.9766 16.1915 58.2788 6.77786 58.6478 6.49123C59.0168 6.20461 94.3589 6.05897 137.187 6.1682L215.055 6.36651L215.32 27.0887ZM72.1386 16.9794C71.3447 17.596 70.9418 20.9464 70.9418 26.9299C70.9418 34.8368 71.1782 36.1166 72.8537 37.2948C74.3297 38.3329 75.2113 38.4529 76.7253 37.8231C79.449 36.6914 79.9177 35.3605 79.9177 28.7681V23.0217H88.9594C93.9321 23.0217 98.8688 22.6607 99.93 22.2199C102.086 21.3236 102.494 18.4024 100.662 16.9794C99.0005 15.6888 73.8001 15.6888 72.1386 16.9794ZM215.424 55.0485C216.232 55.8045 216.537 93.2462 216.54 192.107C216.542 266.916 216.274 328.673 215.942 329.343C215.402 330.437 207.308 330.562 136.765 330.562C66.035 330.562 58.1292 330.439 57.5847 329.336C57.2516 328.662 56.9793 266.856 56.9793 191.989C56.9793 87.1496 57.2546 55.6535 58.1761 54.9377C60.0351 53.4937 213.878 53.6022 215.424 55.0485ZM69.5186 63.9865C68.7677 64.9308 68.7507 195.247 69.5017 196.767C70.3374 198.459 72.6931 199 74.7915 197.983C76.4211 197.192 76.5308 195.906 76.1179 182.509C75.6043 165.843 75.711 165.559 82.5327 165.559H86.899V191.815C86.899 220.856 87.3448 219.011 80.3346 219.011H76.9257L76.9108 214.944C76.8918 209.877 76.0092 208.746 72.3291 209.072L69.4458 209.327V265.103V320.878H136.765H204.084L204.583 246.511C204.857 205.609 204.857 147.742 204.583 117.918L204.084 63.6914L137.077 63.4923C98.3971 63.3776 69.8378 63.586 69.5186 63.9865ZM197.103 192.285V315.456H136.997H76.8918L76.9008 271.107C76.9048 246.714 76.9128 226.277 76.9178 225.691C76.9238 224.888 78.0168 224.719 81.3309 225.01C86.6217 225.473 91.2742 224.057 93.0824 221.433C94.0757 219.991 94.3789 213.166 94.3789 192.218V164.886L91.4497 162.512C88.8118 160.373 87.9192 160.137 82.4739 160.137H76.4271L76.6545 114.625C76.7801 89.5944 76.8918 69.0241 76.9038 68.9141C76.9158 68.8041 103.966 68.8041 137.014 68.9141L197.103 69.114V192.285ZM98.2615 85.1254C90.8444 90.7123 89.0841 93.587 92.466 94.5949C95.2934 95.4377 95.9836 95.1286 102.953 89.9027C109.812 84.759 111.19 82.4815 108.641 80.5015C107.982 79.9902 107.037 79.5719 106.539 79.5719C106.043 79.5719 102.318 82.0709 98.2615 85.1254ZM111.516 95.9033C96.9929 107.244 94.7858 109.285 95.06 111.128C95.7342 115.667 98.4699 114.332 115.525 101.146C124.535 94.1804 132.352 87.8577 132.895 87.0954C133.439 86.3339 133.605 85.0263 133.262 84.1904C131.89 80.833 128.427 82.6984 111.516 95.9033ZM88.9335 127.176C88.2723 127.795 87.8873 128.928 88.0768 129.694C88.4039 131.012 91.0249 131.087 136.765 131.087C182.505 131.087 185.126 131.012 185.453 129.694C186.357 126.048 186.414 126.051 136.765 126.051C97.2182 126.051 89.9528 126.223 88.9335 127.176ZM106.496 191.301C105.265 194.96 105.655 194.996 145.741 194.996C178.88 194.996 183.552 194.849 184.706 193.769C185.658 192.879 185.73 192.188 184.969 191.252C184.023 190.089 180.124 189.945 145.491 189.793L107.061 189.624L106.496 191.301ZM89.0931 254.025C87.3926 255.346 87.6111 257.018 89.6416 258.215C92.2037 259.725 181.326 259.725 183.888 258.215C185.919 257.018 186.137 255.346 184.437 254.025C182.714 252.687 90.8164 252.687 89.0931 254.025ZM210.959 337.985C211.745 339.576 211.745 350.985 210.959 352.576C210.414 353.678 202.938 353.802 136.658 353.802H62.9632V345.28V336.759H136.658C202.938 336.759 210.414 336.882 210.959 337.985Z" fill="black"/>
</svg>
