<svg width="70" height="80" viewBox="0 0 70 80" fill="none" xmlns="http://www.w3.org/2000/svg">
<path fill-rule="evenodd" clip-rule="evenodd" d="M0 5.30612V10.6122H35H70V5.30612V0H35H0V5.30612ZM59.6338 3.35445C60.5147 3.46906 61.3514 3.85682 61.8262 4.37053C62.1591 4.73078 62.1961 4.84465 62.1622 5.40155C62.1289 5.94604 62.071 6.07339 61.7169 6.37886C61.1679 6.85257 60.3899 7.16555 59.5154 7.26473C59.1165 7.30996 57.8292 7.34694 56.6548 7.34694C55.2414 7.34694 54.5192 7.37616 54.5192 7.43339C54.5192 7.4809 54.5798 7.49714 54.6538 7.46939C54.7279 7.44163 54.7885 7.45788 54.7885 7.50539C54.7885 7.5529 54.637 7.59184 54.4519 7.59184C54.2419 7.59184 54.1154 7.54563 54.1154 7.4689C54.1154 7.35992 51.8335 7.34612 34.0577 7.34751C19.6228 7.34857 14 7.37404 14 7.43829C14 7.48743 14.094 7.5058 14.2089 7.47902C14.3287 7.45118 14.3827 7.4649 14.3356 7.5111C14.2078 7.63649 13.8654 7.60612 13.8654 7.46939C13.8654 7.36833 13.6193 7.34694 12.4585 7.34694C10.6703 7.34694 9.82733 7.23625 9.1144 6.90767C6.98883 5.928 7.56404 3.86751 10.0962 3.39078C10.6049 3.29494 14.5686 3.27576 34.8251 3.27102C51.7883 3.26702 59.1518 3.29175 59.6338 3.35445ZM15.0749 7.53061C15.076 7.47453 15.1678 7.42857 15.2788 7.42857C15.4425 7.42857 15.4808 7.56008 15.4808 8.12245C15.4808 8.75486 15.4576 8.81633 15.2195 8.81633C15.0757 8.81633 14.9183 8.77722 14.8696 8.72939C14.8112 8.67216 14.6973 8.68833 14.536 8.77682C14.3079 8.90204 14.2731 8.90033 14.0276 8.75143C13.7036 8.55494 13.7418 8.20441 14.11 7.99641C14.2559 7.91396 14.4053 7.86482 14.4421 7.88718C14.479 7.90947 14.5898 7.81731 14.6883 7.68229C14.8074 7.51902 14.9018 7.46955 14.9702 7.53469C15.0487 7.60963 15.0733 7.60873 15.0749 7.53061ZM55.8128 8.0769C55.7967 8.78196 55.6433 8.85959 55.5612 8.20408L55.51 7.79592L55.4858 8.21869C55.4691 8.50988 55.5274 8.6813 55.673 8.76971C55.8654 8.88628 55.8642 8.89796 55.6605 8.89796C55.5372 8.89796 55.4038 8.82261 55.3641 8.73045C55.2925 8.56416 55.2895 8.56433 54.9695 8.74661L54.6473 8.9302L54.3636 8.75829C54.0206 8.5502 54.1066 8.20506 54.5178 8.13984C54.6666 8.11625 54.7885 8.05225 54.7885 7.99763C54.7885 7.92025 54.7366 7.92057 54.5529 7.99902C54.4234 8.05437 54.5141 7.99192 54.7548 7.86024C54.9955 7.72849 55.1923 7.57755 55.1923 7.52465C55.1923 7.47184 55.3353 7.42857 55.5099 7.42857C55.8181 7.42857 55.827 7.44759 55.8128 8.0769ZM15.0889 7.932C15.1616 8.01428 15.2362 8.08163 15.2548 8.08163C15.2733 8.08163 15.2884 8.01428 15.2884 7.932C15.2884 7.84963 15.2138 7.78228 15.1227 7.78228C15.0036 7.78228 14.9941 7.82449 15.0889 7.932ZM14.4765 8.10065C14.2943 8.25763 14.2422 8.2671 14.1329 8.16327C14.0374 8.07241 14.0036 8.11731 14.002 8.33698C14.0009 8.50196 14.0894 8.67804 14.2019 8.73469C14.3293 8.79878 14.4038 8.80424 14.4038 8.74947C14.4038 8.7018 14.3433 8.64 14.2692 8.61224C14.0913 8.54555 14.0967 8.40816 14.2772 8.40816C14.3555 8.40816 14.3862 8.44106 14.3453 8.48122C14.3042 8.52147 14.3499 8.57273 14.4465 8.59526C14.6618 8.64531 15.3138 8.36139 15.1759 8.27771C15.1215 8.24465 15.0769 8.26057 15.0769 8.3129C15.0769 8.36531 15.0098 8.40816 14.9278 8.40816C14.8368 8.40816 14.8107 8.33045 14.8609 8.20906C14.9727 7.93878 14.7407 7.87331 14.4765 8.10065ZM54.8221 8.11543C54.6556 8.23224 54.5192 8.36114 54.5192 8.40196C54.5192 8.44278 54.4628 8.48841 54.394 8.50343C54.3251 8.51837 54.3515 8.59861 54.4525 8.68172C54.6304 8.82816 54.6448 8.82784 54.9232 8.67053C55.1377 8.54931 55.1996 8.43167 55.1677 8.20571L55.125 7.9031L54.8221 8.11543ZM54.7352 8.63094C54.5984 8.71396 54.4854 8.58898 54.5977 8.47886C54.6825 8.39559 54.7143 8.39559 54.7598 8.47853C54.791 8.53527 54.7798 8.60384 54.7352 8.63094ZM15.0962 8.56245C14.9839 8.60563 14.9655 8.65208 15.0484 8.68318C15.1227 8.71102 15.218 8.67886 15.2605 8.61175C15.3497 8.47077 15.3413 8.46833 15.0962 8.56245ZM1.88462 40V68.7347H4.17308H6.46154V40V11.2653H4.17308H1.88462V40ZM7.53846 40V68.7347H35H62.4615V40V11.2653H35H7.53846V40ZM63.5385 40V68.7347H65.8269H68.1154V65.5558C68.1154 63.3894 68.0696 62.3598 67.9716 62.3231C67.8925 62.2935 67.8615 62.2159 67.9027 62.1508C67.9446 62.0847 67.919 62.0544 67.8447 62.0822C67.7673 62.1112 67.7107 62.0189 67.7095 61.862C67.7079 61.6498 67.6771 61.6181 67.566 61.7143C67.343 61.9075 67.553 61.4872 67.869 61.1078C68.0668 60.8704 68.1116 60.7112 68.0412 60.4955C67.989 60.3353 67.9187 60.25 67.8851 60.3061C67.8513 60.3623 67.7682 60.4082 67.7004 60.4082C67.4958 60.4082 67.5606 60.1355 67.8462 59.7959C68.1136 59.4778 68.1154 59.3145 68.1154 35.3705V11.2653H65.8269H63.5385V40ZM58.9615 21.9184V30.449H35H11.0385V21.9184V13.3878H35H58.9615V21.9184ZM19.7747 21.1649C19.1333 21.4247 18.8466 21.8145 18.8464 22.4269C18.846 23.1376 19.1466 23.5482 19.8501 23.7982L20.4179 24H25.905C31.9693 24 32.0044 23.9973 32.6133 23.4798C32.8518 23.2769 32.9217 23.0904 32.9538 22.5714C33.001 21.8069 32.778 21.4589 32.0522 21.1649L31.5948 20.9796H25.9135H20.2322L19.7747 21.1649ZM44.7432 23.2193C44.0849 23.3931 43.8846 23.6346 43.8846 24.2544C43.8846 24.7428 43.925 24.8252 44.2751 25.0526L44.6657 25.3061H48.9012C52.9438 25.3061 53.1525 25.2986 53.4818 25.1416C54.1443 24.8255 54.2952 24.0175 53.7805 23.5411C53.343 23.1362 52.9578 23.1018 48.9033 23.1052C46.0574 23.1077 45.063 23.1349 44.7432 23.2193ZM16.737 24.7313C15.5897 24.8971 14.5996 25.4776 14.2822 26.1707C14.019 26.7457 14.1276 28.5159 14.4092 28.2396C14.4873 28.163 14.62 28.1772 14.9626 28.2989C15.3569 28.4388 15.4141 28.5012 15.4184 28.7964C15.4223 29.0625 15.3867 29.1155 15.2502 29.0468C15.1549 28.9989 15.0769 28.8925 15.0769 28.8104C15.0769 28.7283 14.9928 28.6318 14.8899 28.5959C14.7872 28.56 14.6794 28.4571 14.6505 28.3673C14.6097 28.241 14.5799 28.2318 14.5185 28.3265C14.4749 28.3939 14.495 28.5399 14.5631 28.6511C14.6639 28.8158 14.7102 28.8309 14.8125 28.7327C14.9144 28.635 14.9385 28.6436 14.9403 28.7779C14.9432 29.0178 15.8279 29.5338 16.4019 29.6305C16.7134 29.6829 20.2575 29.7129 26.0481 29.712C36.3502 29.7105 35.7882 29.7433 36.7647 29.0865C37.5568 28.5537 37.7289 28.167 37.6732 27.0469C37.6293 26.1669 37.592 26.0476 37.2517 25.6965C36.8141 25.2451 35.9438 24.8549 35.1164 24.7392C34.4291 24.6431 17.3984 24.6358 16.737 24.7313ZM41.6567 26.1557C41.137 26.293 40.5895 26.6848 40.3802 27.0694C40.1607 27.4725 40.2717 28.6179 40.5627 28.9549C40.6867 29.0985 41.0106 29.3189 41.2825 29.4447L41.7768 29.6735L48.0983 29.6962L54.4199 29.719L54.3437 29.4881C54.2872 29.3167 54.3331 29.2323 54.5218 29.1608C54.6615 29.1079 54.8035 29.0916 54.8372 29.1246C54.9406 29.2261 54.7652 29.6336 54.6385 29.586C54.5729 29.5615 54.5192 29.5803 54.5192 29.6278C54.5192 29.7296 55.0302 29.734 55.8389 29.6393C57.0197 29.5008 57.6079 28.9087 57.6124 27.8539C57.6165 26.9266 57.1212 26.3643 56.0922 26.1279C55.491 25.9897 42.1881 26.0153 41.6567 26.1557ZM55.4933 28.3543C55.7094 28.5014 55.7767 28.6611 55.786 29.0482C55.7927 29.3248 55.7576 29.551 55.7082 29.551C55.6586 29.551 55.5224 29.5733 55.4053 29.6006C55.2398 29.6391 55.1923 29.5947 55.1923 29.4013C55.1923 29.2645 55.1288 29.1287 55.0511 29.0996C54.9546 29.0634 54.9596 29.0104 55.067 28.9319C55.1534 28.8688 55.1923 28.7436 55.1535 28.6536C55.1148 28.5636 55.1332 28.4711 55.1947 28.4481C55.2563 28.425 55.3343 28.4709 55.3684 28.55C55.4202 28.6703 55.4329 28.6721 55.4459 28.561C55.4545 28.4879 55.3591 28.3777 55.2338 28.3161C55.079 28.24 55.0384 28.2368 55.1071 28.3061C55.1772 28.3769 55.1051 28.4082 54.8717 28.4082C54.6866 28.4082 54.4937 28.4488 54.443 28.4985C54.381 28.5593 54.4556 28.573 54.6707 28.5401C54.8465 28.5133 54.9143 28.5125 54.8213 28.5384C54.7283 28.5642 54.686 28.6185 54.7274 28.6591C54.7687 28.6997 54.7023 28.7095 54.5799 28.6811C54.455 28.652 54.3005 28.6793 54.2277 28.7432C54.1368 28.8229 54.1256 28.7957 54.1904 28.6531C54.3091 28.3913 54.5169 28.2344 54.6691 28.2914C54.7347 28.316 54.7885 28.2972 54.7885 28.2497C54.7885 28.0961 55.2048 28.1579 55.4933 28.3543ZM55.5513 28.7075C55.4275 28.7825 55.4376 29.4694 55.5625 29.4694C55.6181 29.4694 55.6635 29.2857 55.6635 29.0612C55.6635 28.8367 55.6583 28.6531 55.6523 28.6531C55.6461 28.6531 55.6006 28.6775 55.5513 28.7075ZM54.4577 29.3005C54.415 29.3423 54.4355 29.3971 54.5029 29.4224C54.5704 29.4478 54.6603 29.4136 54.7029 29.3464C54.7866 29.2142 54.5843 29.1762 54.4577 29.3005ZM58.9615 40.939V48.9801L35.0337 48.9594L11.1058 48.9388L11.0714 40.9184L11.0371 32.898H34.9993H58.9615V40.939ZM16.5577 34.5794V35.0461L15.0096 35.9966C14.1582 36.5193 13.4615 36.9705 13.4615 36.9992C13.4615 37.0278 14.9154 37.0544 16.6923 37.0583C18.4692 37.062 19.9231 37.0362 19.9231 37.0007C19.9231 36.9651 19.2264 36.5149 18.375 36L16.8269 35.0639V34.6388C16.8269 34.405 16.7663 34.191 16.6923 34.1633C16.6086 34.1319 16.5577 34.2891 16.5577 34.5794ZM23.9129 34.1791C23.8657 34.2078 23.8269 34.4186 23.8269 34.6476V35.0639L22.2788 36C21.4274 36.5149 20.7308 36.9651 20.7308 37.0005C20.7308 37.0359 22.1846 37.0619 23.9615 37.0582C25.7385 37.0545 27.1923 37.03 27.1923 37.0038C27.1923 36.9774 26.526 36.5242 25.7115 35.9964C24.232 35.0376 24.2308 35.0366 24.2308 34.6253C24.2308 34.2369 24.1062 34.062 23.9129 34.1791ZM31.1822 34.1791C31.1349 34.2078 31.0962 34.4228 31.0962 34.6568V35.0824L29.6154 36.0226C28.801 36.5398 28.1346 36.9851 28.1346 37.0121C28.1346 37.0391 29.5885 37.0612 31.3654 37.0612C33.1423 37.0612 34.5962 37.0331 34.5962 36.9987C34.5962 36.9642 33.8995 36.5149 33.0481 36L31.5 35.0639V34.6388C31.5 34.2385 31.3772 34.0609 31.1822 34.1791ZM38.601 34.1693C38.5454 34.2034 38.4996 34.418 38.4991 34.6463L38.4983 35.0612L36.9539 36C36.1045 36.5163 35.4083 36.9663 35.4067 37C35.4052 37.0337 36.8577 37.0612 38.6346 37.0612C40.4115 37.0612 41.8654 37.0343 41.8654 37.0013C41.8654 36.9683 41.184 36.5269 40.351 36.0204L38.8365 35.0994L38.7692 34.6033C38.7322 34.3305 38.6566 34.1352 38.601 34.1693ZM45.8552 34.1791C45.808 34.2078 45.7692 34.4118 45.7692 34.6325C45.7692 35.03 45.756 35.0423 44.3221 35.9706C43.5261 36.4859 42.8548 36.9421 42.8302 36.9843C42.8028 37.031 44.0634 37.0612 46.0412 37.0612H49.297L48.486 36.5102C48.0401 36.2072 47.3372 35.7584 46.9241 35.513C46.2022 35.0841 46.1731 35.0503 46.1731 34.6402C46.1731 34.2387 46.0504 34.0607 45.8552 34.1791ZM53.1731 34.634V35.0639L51.625 36C50.7736 36.5149 50.0769 36.9642 50.0769 36.9987C50.0769 37.0331 51.5358 37.0612 53.3189 37.0612C55.1744 37.0612 56.5417 37.03 56.516 36.988C56.4914 36.9478 55.7897 36.487 54.9567 35.9642L53.4423 35.0134V34.6087C53.4423 34.3862 53.3817 34.2041 53.3077 34.2041C53.2337 34.2041 53.1731 34.3975 53.1731 34.634ZM13.3269 42.9796V48.2449H16.6887H20.0503L20.0557 42.9796L20.0611 37.7143H16.6941H13.3269V42.9796ZM20.6289 42.9592L20.6635 48.2041L23.9952 48.2259L27.3269 48.2478V42.981V37.7143H23.9606H20.5941L20.6289 42.9592ZM28 38.1211V38.528L28.455 38.3964C28.8088 38.2941 29.0258 38.2823 29.431 38.3432C29.7174 38.3863 29.9368 38.4644 29.9183 38.5169C29.8997 38.5693 29.9393 38.6122 30.006 38.6122C30.202 38.6122 30.4231 39.0946 30.4231 39.5224V39.9184H29.8846C29.5885 39.9184 29.3462 39.8816 29.3462 39.8367C29.3462 39.7918 29.2553 39.7551 29.1442 39.7551C29.0332 39.7551 28.9494 39.7826 28.9582 39.8163C29.0013 39.9813 28.9279 40.0859 28.8023 40.0388C28.7123 40.0051 28.6921 40.0584 28.7459 40.1883C28.7954 40.308 28.7642 40.4148 28.6696 40.4503C28.5577 40.4922 28.5354 40.4609 28.5954 40.3464C28.6475 40.2469 28.6133 40.1669 28.5083 40.1424C28.3938 40.1158 28.3338 40.1787 28.3305 40.3288C28.3267 40.5025 28.3812 40.549 28.5638 40.5277C28.6949 40.5123 28.8488 40.5435 28.9058 40.5968C28.9675 40.6544 29.0369 40.5611 29.0769 40.3673L29.1442 40.0408L30.2548 40.0171C30.8657 40.0041 31.3654 39.9615 31.3654 39.9227C31.3654 39.8838 31.2442 39.8713 31.0962 39.8947C30.8372 39.9358 30.8269 39.8972 30.8269 38.8735C30.8269 38.0987 30.8727 37.7984 30.9952 37.7683C31.0878 37.7457 30.4516 37.7242 29.5817 37.7207L28 37.7143V38.1211ZM31.8796 37.9388C31.8663 38.0623 31.869 38.2826 31.8855 38.4286C31.902 38.5745 31.8523 38.6939 31.775 38.6939C31.6978 38.6939 31.6346 38.7512 31.6346 38.8211C31.6346 38.8911 31.6952 38.9257 31.7692 38.898C31.8433 38.8702 31.9038 38.9253 31.9038 39.0204C31.9038 39.1253 31.8457 39.1715 31.7558 39.1378C31.6482 39.0975 31.6482 39.1281 31.7558 39.2501C31.9899 39.5153 31.9413 39.9005 31.6683 39.9438C31.5388 39.9642 31.7053 39.9847 32.0385 39.9893C32.3934 39.9941 32.5733 39.9702 32.4727 39.9315C32.34 39.8804 32.3552 39.837 32.54 39.7392C32.8281 39.5867 33.4206 39.3887 33.5332 39.4073C33.5779 39.4146 33.6082 39.2847 33.6005 39.1184C33.5867 38.8194 33.581 38.8165 33.0481 38.8299C32.7519 38.8374 32.6496 38.8254 32.8207 38.8032C33.115 38.7651 33.3589 38.5695 33.2186 38.4843C33.1155 38.4218 32.7062 38.5409 32.7788 38.6122C32.8151 38.6478 32.7541 38.6978 32.6434 38.7236C32.3224 38.7983 32.4108 38.9388 32.7788 38.9388C32.9875 38.9388 33.1154 38.9851 33.1154 39.0607C33.1154 39.1505 32.974 39.1791 32.5769 39.1697C32.2808 39.1627 32.0385 39.1453 32.0385 39.1311C32.0385 39.117 32.1336 38.9611 32.2501 38.7847C32.496 38.4118 33.0146 38.2414 33.6463 38.3255C34.3933 38.425 34.4615 38.5292 34.4615 39.5704C34.4615 40.091 34.4839 40.5017 34.5111 40.483C34.5384 40.4643 34.5959 39.8336 34.6388 39.0816L34.7169 37.7143H33.3103H31.9038L31.8796 37.9388ZM35.2966 42.9797L35.2564 48.2449H38.6504H42.0442L41.955 43.4124C41.8911 39.9387 41.8226 38.5558 41.7114 38.494C41.6025 38.4336 41.5809 38.4346 41.6387 38.4974C41.6837 38.5465 41.7277 39.3353 41.7364 40.2504L41.7522 41.914L41.4041 41.9705C41.2035 42.003 41.0881 41.9953 41.132 41.9522C41.1739 41.9112 41.144 41.8776 41.0656 41.8776C40.9695 41.8776 40.9231 42.476 40.9231 43.7143V45.551H38.7019H36.4808V42.7755V40L38.0625 40.0001L39.6442 40.0002L39.6177 39.1656C39.6032 38.7064 39.6335 38.3666 39.685 38.4104C39.7751 38.4865 40.3846 38.5442 40.3846 38.4766C40.3846 38.4584 40.2483 38.4087 40.0817 38.366C39.8016 38.2941 39.8083 38.2897 40.1696 38.3074L40.5606 38.3265L40.5472 39.1562C40.5369 39.8098 40.5754 39.9956 40.7286 40.0313C40.8474 40.0589 40.9231 40.1887 40.9231 40.3648C40.9231 40.5233 40.9837 40.6531 41.0577 40.6531C41.1397 40.6531 41.2023 40.2142 41.2178 39.5306C41.2425 38.4398 41.2455 38.4289 41.3269 39.1429L41.4107 39.8776L41.4361 39.1796C41.4531 38.7136 41.4057 38.4462 41.2933 38.3751C41.1557 38.288 41.2048 38.2787 41.5625 38.3244C41.9996 38.3802 42 38.3801 42 38.0473V37.7143L38.6683 37.7144H35.3365L35.2966 42.9797ZM42.6731 42.9796V48.2449H45.9712H49.2692V42.9796V37.7143H45.9712H42.6731V42.9796ZM49.9423 42.9796V48.2449H53.3077H56.6731V42.9796V37.7143H53.3077H49.9423V42.9796ZM36.1025 38.3673C36.1823 38.3673 36.2053 38.4527 36.1572 38.5692C36.0905 38.7303 36.1164 38.7612 36.2849 38.722C36.4012 38.6949 36.4673 38.6271 36.4319 38.5712C36.3966 38.5153 36.5208 38.4199 36.7079 38.3592C37.0179 38.2585 37.0716 38.2663 37.3126 38.4468C37.4581 38.5557 37.709 38.6559 37.8703 38.6696C38.1015 38.6891 38.1209 38.6777 37.9622 38.6157C37.7892 38.5482 37.7988 38.5197 38.0295 38.414C38.7469 38.0852 39.1716 38.3743 39.2717 39.2594L39.3462 39.9184H38.7885H38.2308V39.4762C38.2308 39.233 38.2819 39.0218 38.3445 39.0068C38.4071 38.9918 38.4988 38.8795 38.5482 38.7573C38.6174 38.586 38.5946 38.5451 38.4493 38.5789C38.3405 38.6042 38.2834 38.6984 38.3145 38.8012C38.3441 38.8993 38.3324 38.9337 38.2884 38.8776C38.1736 38.7311 37.8214 38.7518 37.5953 38.9184C37.4153 39.0508 37.4064 39.051 37.4736 38.921C37.5134 38.8438 37.488 38.759 37.4172 38.7325C37.3463 38.706 37.2885 38.7783 37.2885 38.8931C37.2885 39.1282 37.1818 39.1513 36.8261 38.9936C36.6259 38.9048 36.6091 38.8536 36.7333 38.7128C36.8332 38.5996 36.839 38.5232 36.7504 38.49C36.6761 38.4621 36.6154 38.5125 36.6154 38.602C36.6154 38.6913 36.5093 38.7849 36.3798 38.8098C36.1833 38.8476 36.148 38.9451 36.1673 39.399C36.1831 39.7757 36.1314 39.9786 35.999 40.0589C35.8937 40.1227 35.8125 40.2182 35.8183 40.2711C35.8257 40.3389 35.849 40.3371 35.8968 40.2653C36.0507 40.034 36.1726 40.1924 36.1955 40.6531C36.2189 41.1265 36.2083 41.1429 35.879 41.1429H35.5385V39.7056C35.5385 38.4285 35.5622 38.2738 35.7514 38.3178C35.8685 38.3451 36.0266 38.3673 36.1025 38.3673ZM28.7404 38.4947C28.5183 38.5607 28.4426 38.5969 28.5721 38.5752C28.8391 38.5304 28.8979 38.6582 28.6394 38.7215C28.5126 38.7525 28.5114 38.7642 28.6347 38.7691C28.7246 38.7726 28.8633 38.7017 28.943 38.6115C29.0513 38.4887 29.1794 38.4583 29.4525 38.4903C29.7571 38.526 29.7729 38.5204 29.5481 38.456C29.1978 38.3556 29.2106 38.355 28.7404 38.4947ZM31.5106 38.4966C31.5171 38.5917 31.549 38.611 31.5919 38.546C31.6308 38.487 31.626 38.4166 31.5813 38.3895C31.5366 38.3624 31.5048 38.4105 31.5106 38.4966ZM33.6226 38.4627C33.701 38.5102 33.8443 38.5329 33.9415 38.5133C34.0424 38.4929 33.9812 38.4559 33.7992 38.427C33.5754 38.3915 33.5227 38.4021 33.6226 38.4627ZM35.7614 38.4935C35.8023 38.5583 35.8901 38.591 35.9564 38.5661C36.1234 38.5036 36.108 38.4737 35.8819 38.4211C35.7517 38.3908 35.7116 38.4149 35.7614 38.4935ZM37.0032 38.5944C36.9589 38.7567 36.9786 38.8328 37.0533 38.7875C37.1211 38.7464 37.1541 38.6258 37.1265 38.5196C37.0841 38.3562 37.0653 38.3677 37.0032 38.5944ZM29.6466 38.9388C29.6466 39.0959 29.6744 39.1602 29.7081 39.0816C29.7421 39.0031 29.7421 38.8744 29.7081 38.7959C29.6744 38.7174 29.6466 38.7816 29.6466 38.9388ZM33.9313 39.5918C33.8971 40.2513 33.8586 40.4232 33.8019 40.1696C33.7575 39.971 33.6455 39.7935 33.5529 39.775C33.4604 39.7566 33.3846 39.7856 33.3846 39.8394C33.3846 39.8972 33.2741 39.9199 33.1154 39.8947C32.9673 39.8713 32.8462 39.8853 32.8462 39.926C32.8462 39.9667 32.991 40 33.168 40C33.5945 40 33.5954 40.0079 33.544 43.037L33.5016 45.5433L31.3449 45.5676C30.1588 45.5809 29.1633 45.5765 29.1327 45.5578C29.102 45.5391 29.0769 44.5235 29.0769 43.301V41.0782L28.6515 41.0901C28.4154 41.0967 28.2007 41.0566 28.1691 40.9999C28.1315 40.9327 28.1964 40.9144 28.3589 40.9464C28.5467 40.9833 28.5613 40.9758 28.4203 40.9148C28.3067 40.8657 28.2776 40.7914 28.3452 40.7234C28.4372 40.6307 28.4177 40.6309 28.2278 40.7242C28.0199 40.8265 28 41.1597 28 44.5406V48.2449H31.3654H34.7308L34.723 44.7551C34.7188 42.8357 34.6651 41.1184 34.6038 40.9388C34.4975 40.6267 34.4918 40.6238 34.477 40.8725C34.4646 41.0811 34.4073 41.1302 34.1876 41.1202C33.847 41.1047 33.6953 40.7887 33.911 40.5443C34.011 40.431 34.0519 40.0559 34.0239 39.5098L33.9799 38.6531L33.9313 39.5918ZM28.6058 38.8571C28.2793 38.9075 28.2599 38.9213 28.5048 38.9291C28.9811 38.9443 28.8862 39.1837 28.4038 39.1837C28.0199 39.1837 28 39.2004 28 39.5229C28 39.8572 28.0039 39.8599 28.27 39.7138C28.4187 39.6323 28.5802 39.5899 28.6291 39.6195C28.6779 39.6492 28.6472 39.6735 28.5609 39.6735C28.4745 39.6735 28.4038 39.7263 28.4038 39.7909C28.4038 39.8554 28.5162 39.9031 28.6536 39.8968C28.791 39.8905 28.8969 39.8286 28.8891 39.759C28.8811 39.6863 28.9745 39.6374 29.1091 39.6438C29.2379 39.65 29.3075 39.6199 29.2638 39.5771C29.22 39.5342 29.0911 39.5208 28.9769 39.5473C28.8055 39.5872 28.7989 39.5742 28.9385 39.4722C29.0314 39.4042 29.1763 39.3726 29.2604 39.4017C29.3445 39.4309 29.3701 39.4256 29.3172 39.3901C29.2643 39.3545 29.2837 39.2544 29.3603 39.1678C29.4941 39.016 29.3159 38.7598 29.0942 38.7851C29.0476 38.7904 28.8279 38.8229 28.6058 38.8571ZM38.6594 38.9793C38.5749 39.0917 38.558 39.1837 38.6218 39.1837C38.7336 39.1837 38.9349 38.8488 38.8531 38.7991C38.831 38.7858 38.7438 38.8668 38.6594 38.9793ZM35.8077 39.0108C35.8077 39.0557 35.8683 39.1151 35.9423 39.1429C36.0163 39.1706 36.0769 39.1566 36.0769 39.1117C36.0769 39.0668 36.0163 39.0073 35.9423 38.9796C35.8683 38.9518 35.8077 38.9659 35.8077 39.0108ZM28.3787 39.0762C28.4757 39.0998 28.5919 39.0968 28.6366 39.0697C28.6813 39.0426 28.6019 39.0233 28.46 39.0269C28.3032 39.0308 28.2712 39.0501 28.3787 39.0762ZM32.6864 39.0762C32.7834 39.0998 32.8996 39.0968 32.9443 39.0697C32.989 39.0426 32.9096 39.0233 32.7677 39.0269C32.6108 39.0308 32.5789 39.0501 32.6864 39.0762ZM37.4013 39.1291C37.6716 39.0863 37.6923 39.1128 37.6923 39.5007V39.9184H37.1538H36.6154V39.4665C36.6154 39.0532 36.6365 39.0216 36.8628 39.0949C36.9989 39.1392 37.2412 39.1545 37.4013 39.1291ZM38.9038 39.102C38.9038 39.1469 38.9644 39.1837 39.0385 39.1837C39.1125 39.1837 39.1731 39.1469 39.1731 39.102C39.1731 39.0571 39.1125 39.0204 39.0385 39.0204C38.9644 39.0204 38.9038 39.0571 38.9038 39.102ZM31.5578 39.5102C31.5578 39.6 31.6053 39.6735 31.6634 39.6735C31.7216 39.6735 31.7692 39.6 31.7692 39.5102C31.7692 39.4204 31.7216 39.3469 31.6634 39.3469C31.6053 39.3469 31.5578 39.4204 31.5578 39.5102ZM32.9808 39.6412C32.7628 39.7223 32.7391 39.7459 32.9135 39.7082C33.0615 39.6761 33.2842 39.6473 33.4084 39.6442C33.5326 39.6411 33.6047 39.6096 33.5688 39.5744C33.4774 39.4848 33.3677 39.4972 32.9808 39.6412ZM18.8462 42.7716V45.5433L16.6922 45.5675L14.5381 45.5918L14.5383 42.7959L14.5385 40H16.6923H18.8462V42.7716ZM26.2181 42.7959L26.2536 45.551H24.0306H21.8077V42.7735V39.9959L23.9952 40.0184L26.1827 40.0408L26.2181 42.7959ZM48.1923 42.7755V45.551H45.9712H43.75V42.7755V40H45.9712H48.1923V42.7755ZM55.4615 42.7959V45.5918L53.3008 45.5757L51.1403 45.5595L51.1432 42.8818C51.145 41.4091 51.1481 40.1582 51.1501 40.102C51.1529 40.0247 51.6764 40 53.3077 40H55.4615V42.7959ZM41.3471 41.1633C41.3359 41.5562 41.3723 41.8776 41.4279 41.8777C41.4835 41.8778 41.5119 41.6482 41.4912 41.3675C41.4272 40.5 41.3683 40.4164 41.3471 41.1633ZM28.8104 40.8552C28.7042 40.9327 28.6939 40.9796 28.7833 40.9796C28.9459 40.9796 29.1356 40.8247 29.0423 40.7681C29.0084 40.7476 28.9041 40.7868 28.8104 40.8552ZM40.939 41.2857C40.9513 41.7115 40.9783 41.7811 41.0577 41.5918C41.211 41.2265 41.211 40.7347 41.0577 40.7347C40.9796 40.7347 40.9298 40.9664 40.939 41.2857ZM15.2422 49.6617C15.5163 49.868 15.5432 50.0519 15.3192 50.1878C15.1936 50.2639 15.1936 50.2857 15.3192 50.2857C15.4262 50.2857 15.4808 50.4451 15.4808 50.7581C15.4808 51.1728 15.4477 51.2321 15.2102 51.2429C14.9688 51.254 14.9616 51.242 15.1429 51.132C15.4269 50.9598 15.3961 50.9168 15.0653 51.0242C14.9109 51.0743 14.7544 51.0969 14.7174 51.0744C14.6803 51.052 14.7763 50.9927 14.9307 50.9425C15.0851 50.8924 15.2067 50.8068 15.2009 50.7522C15.193 50.6775 15.1736 50.6782 15.1224 50.7551C14.997 50.9436 14.7766 50.8618 14.8609 50.658C14.9727 50.3878 14.7407 50.3223 14.4765 50.5496C14.2943 50.7066 14.2422 50.7161 14.1329 50.6122C14.0378 50.5219 14.0036 50.5699 14.002 50.7959C14 51.0965 14.1598 51.1939 14.3493 51.0078C14.409 50.9494 14.3863 50.9357 14.2901 50.9718C14.2046 51.0038 14.1346 50.9911 14.1346 50.9436C14.1346 50.7955 14.387 50.8488 14.5476 51.0308C14.6672 51.1662 14.6608 51.2199 14.5187 51.2749C14.4161 51.3145 23.3678 51.3447 35 51.344C46.725 51.3433 55.5827 51.3121 55.4767 51.2719C55.374 51.2329 55.26 51.0104 55.2229 50.7767L55.1557 50.3522L54.8375 50.5602C54.5206 50.7674 54.3974 50.994 54.6538 50.898C54.7279 50.8702 54.7885 50.9048 54.7885 50.9748C54.7885 51.0447 54.849 51.102 54.9231 51.102C54.9971 51.102 55.0577 51.1362 55.0577 51.1781C55.0577 51.2786 54.4146 51.2345 54.2277 51.1211C54.0125 50.9907 54.2044 50.6385 54.5178 50.5888C54.6666 50.5652 54.7885 50.5012 54.7885 50.4466C54.7885 50.373 54.7276 50.3759 54.5529 50.458C54.3673 50.5451 54.3726 50.5293 54.5781 50.3834C54.7214 50.2816 54.906 50.214 54.9881 50.2331C55.0726 50.2527 55.1502 50.1656 55.167 50.0318C55.1933 49.8229 55.1539 49.7967 54.8243 49.8024C54.6195 49.8059 54.5277 49.8273 54.6202 49.85C54.849 49.906 54.8332 50.0136 54.5962 50.0136C54.4709 50.0136 54.4078 49.9306 54.415 49.7755C54.4231 49.6024 54.5148 49.517 54.7508 49.4625C55.157 49.3689 55.6196 49.5007 55.5073 49.678C55.4575 49.7568 55.4964 49.7939 55.6133 49.7789C55.7581 49.7602 55.7981 49.9005 55.7981 50.4281C55.7981 50.9674 55.758 51.103 55.5962 51.111C55.451 51.1182 55.4605 51.1315 55.6298 51.1583C55.7593 51.1789 55.8654 51.2297 55.8654 51.2713C55.8654 51.3134 56.5529 51.3469 57.4135 51.3469H58.9615V58.9796V66.6122H35H11.0385V58.9796V51.3469H12.6538C14.2337 51.3469 14.2637 51.3436 14.0167 51.1938C13.7034 51.0038 13.7475 50.6501 14.11 50.4454C14.2559 50.3629 14.401 50.3113 14.4328 50.3304C14.4644 50.3496 14.6187 50.2194 14.7757 50.0411L15.0612 49.7167L14.7808 49.7427C14.6266 49.757 14.4099 49.8391 14.2994 49.9251C14.1286 50.0581 14.1107 50.0602 14.1796 49.9388C14.2243 49.8602 14.2021 49.7959 14.1304 49.7959C14.0587 49.7959 14 49.8584 14 49.9347C14 50.0351 13.9593 50.0488 13.8529 49.9842C13.6806 49.8798 14.0843 49.4409 14.2839 49.5158C14.3499 49.5404 14.4038 49.5193 14.4038 49.4687C14.4038 49.3283 14.9733 49.4595 15.2422 49.6617ZM55.1025 49.5882C55.1025 49.6536 55.1541 49.6878 55.2169 49.6642C55.2798 49.6407 55.2965 49.5872 55.2538 49.5454C55.1451 49.4386 55.1025 49.4506 55.1025 49.5882ZM14.2333 49.6428C14.3247 49.6986 14.4333 49.7237 14.4747 49.6985C14.5161 49.6734 14.4414 49.6278 14.3087 49.5971C14.1168 49.5528 14.1014 49.5621 14.2333 49.6428ZM14.6731 49.6375C14.6731 49.685 14.7337 49.7012 14.8077 49.6735C14.8817 49.6457 14.9423 49.6069 14.9423 49.587C14.9423 49.5672 14.8817 49.551 14.8077 49.551C14.7337 49.551 14.6731 49.59 14.6731 49.6375ZM54.6538 49.6375C54.6538 49.685 54.7144 49.7012 54.7885 49.6735C54.8625 49.6457 54.9231 49.6069 54.9231 49.587C54.9231 49.5672 54.8625 49.551 54.7885 49.551C54.7144 49.551 54.6538 49.59 54.6538 49.6375ZM15.0264 49.8611C14.913 49.9723 15.0334 50.3739 15.2106 50.4751C15.3447 50.5518 15.3495 50.5365 15.2343 50.4002C15.129 50.2758 15.1318 50.2034 15.2448 50.1349C15.362 50.0638 15.3604 50.0408 15.2385 50.0408C15.1496 50.0408 15.0769 50.0019 15.0769 49.9544C15.0769 49.9069 15.1375 49.8906 15.2115 49.9184C15.2856 49.9461 15.3462 49.9299 15.3462 49.8824C15.3462 49.7812 15.123 49.7664 15.0264 49.8611ZM55.4307 50.449C55.5091 51.0557 55.5953 51.1995 55.598 50.7279C55.599 50.5521 55.6305 50.3163 55.668 50.2041C55.7261 50.0306 55.7183 50.0245 55.6157 50.1633C55.5019 50.3172 55.4913 50.3149 55.4287 50.1224C55.3922 50.0102 55.3932 50.1571 55.4307 50.449ZM17.0589 54.9886C17.0053 55.0211 16.9615 55.2251 16.9615 55.4422V55.8367H21.5385H26.1154V55.3985V54.9603L21.6358 54.9449C19.1721 54.9365 17.1124 54.9561 17.0589 54.9886ZM30.6383 54.9987C30.594 55.0256 30.5577 55.2251 30.5577 55.4422V55.8367H35.1346H39.7115V55.4373C39.7115 55.153 39.6518 55.024 39.5042 54.9896C39.2323 54.9264 30.7433 54.935 30.6383 54.9987ZM43.9828 54.9882C43.9288 55.0208 43.8846 55.2251 43.8846 55.4422V55.8367H48.4685H53.0526L53.0118 55.4082L52.9712 54.9796L48.526 54.9541C46.0811 54.9401 44.0366 54.9554 43.9828 54.9882ZM18.0385 56.8993V57.3088L21.5721 57.2871L25.1058 57.2653L25.1468 56.8775L25.1879 56.4898H21.6132H18.0385V56.8993ZM31.5 56.898V57.3061H35.0673H38.6346V56.898V56.4898H35.0673H31.5V56.898ZM44.8269 56.898V57.3088L48.4279 57.287L52.0288 57.2653V56.898V56.5306L48.4279 56.5089L44.8269 56.4871V56.898ZM16.8695 58.1178C16.5153 58.2153 16.1656 58.4017 15.9272 58.6202L15.5481 58.9674L15.5103 62.4633L15.4724 65.9592H21.6016H27.7308L27.7278 62.5918C27.7251 59.4828 27.7056 59.1988 27.4739 58.8894C27.3359 58.7051 27.0798 58.4727 26.9048 58.3728C26.215 57.9794 25.9501 57.9591 21.5557 57.961C17.7966 57.9626 17.383 57.9765 16.8695 58.1178ZM30.4904 58.0732C29.9578 58.2196 29.4102 58.5808 29.1514 58.9566C28.9739 59.2142 28.9423 59.7661 28.9423 62.6096V65.9592H35.0673H41.1923V62.5564C41.1923 59.2557 41.1837 59.1429 40.9068 58.7959C40.7349 58.5806 40.404 58.351 40.0755 58.2191L39.5298 58L35.212 57.9811C31.8068 57.9662 30.8089 57.9856 30.4904 58.0732ZM43.8173 58.0949C43.2663 58.271 42.8253 58.5238 42.5593 58.8163C42.362 59.0333 42.3365 59.4526 42.3365 62.4898V65.9184L48.4321 65.9396L54.5274 65.9608L54.4898 62.4229L54.4519 58.8851L54.0637 58.5765C53.3201 57.9855 53.1078 57.9626 48.3942 57.9642C44.8524 57.9655 44.16 57.9852 43.8173 58.0949ZM67.8568 59.966C67.8633 60.0611 67.8952 60.0804 67.9381 60.0153C67.977 59.9564 67.9722 59.886 67.9275 59.8589C67.8828 59.8318 67.851 59.8799 67.8568 59.966ZM34.9917 60.1256C35.0485 60.1042 35.206 60.1361 35.3415 60.1962C35.5382 60.2834 35.5902 60.422 35.5981 60.8811C35.606 61.3403 35.5732 61.4391 35.4356 61.3699C35.3042 61.3038 35.2832 61.3149 35.3478 61.4171C35.3946 61.4907 35.4868 61.551 35.5529 61.551C35.7248 61.551 35.7018 61.8571 35.5249 61.9234C35.4434 61.954 35.262 61.9094 35.1217 61.8243C34.9098 61.6958 34.8887 61.6232 34.9968 61.3947C35.0683 61.2433 35.0887 61.0822 35.0421 61.0366C34.9957 60.9909 34.9666 60.8125 34.9778 60.64C34.9979 60.3296 34.7943 60.2128 34.6449 60.449C34.5323 60.6268 33.9202 60.6092 33.9337 60.4286C33.94 60.3433 33.9717 60.3268 34.0122 60.3878C34.0496 60.4439 34.1811 60.4869 34.3044 60.4833C34.4444 60.4793 34.4656 60.4614 34.3606 60.4358C34.2681 60.4131 34.1923 60.3171 34.1923 60.2225C34.1923 60.0532 34.1958 60.053 34.4053 60.2089C34.5953 60.3504 34.6099 60.3517 34.5414 60.2202C34.4965 60.1343 34.52 60.0939 34.5976 60.123C34.6709 60.1504 34.7356 60.1248 34.7414 60.066C34.7496 59.9832 34.7674 59.9823 34.8202 60.0617C34.8577 60.1181 34.9348 60.1469 34.9917 60.1256ZM35.2186 60.3705C35.1724 60.4434 35.1385 60.546 35.1431 60.5985C35.1478 60.6509 35.2097 60.6059 35.2807 60.4984C35.3516 60.3908 35.3855 60.2882 35.3561 60.2704C35.3266 60.2525 35.2647 60.2975 35.2186 60.3705ZM35.3532 60.6971C35.3071 60.77 35.2745 60.8909 35.2808 60.9659C35.2871 61.0407 35.3457 60.9937 35.411 60.8612C35.5379 60.6036 35.493 60.4761 35.3532 60.6971ZM34.7616 61.1066C34.6503 61.2272 34.6298 61.2147 34.6298 61.0267C34.6298 60.8816 34.6756 60.8318 34.7616 60.884C34.8475 60.9361 34.8475 61.0136 34.7616 61.1066ZM34.3831 61.172C34.3363 61.2458 34.244 61.3061 34.1779 61.3061C34.1118 61.3061 34.0577 61.3451 34.0577 61.3926C34.0577 61.4401 34.1285 61.4525 34.2152 61.42C34.3211 61.3803 34.3446 61.4055 34.2867 61.4968C34.2394 61.5715 34.2595 61.6327 34.3311 61.6327C34.4028 61.6327 34.4685 61.55 34.4772 61.449C34.4913 61.2825 34.499 61.2807 34.559 61.4286C34.5953 61.5184 34.6904 61.6406 34.7702 61.7001C34.9705 61.8495 34.6254 61.9744 34.3022 61.8695C33.9408 61.7522 33.8547 61.4224 34.121 61.176C34.3634 60.9515 34.524 60.9491 34.3831 61.172ZM67.8847 61.5918C67.8857 61.8163 67.9119 61.8984 67.9428 61.7744C67.9736 61.6503 67.9728 61.4666 67.9409 61.3662C67.909 61.2658 67.8837 61.3673 67.8847 61.5918ZM34.4364 61.77C34.5334 61.7936 34.6496 61.7907 34.6943 61.7636C34.739 61.7365 34.6596 61.7172 34.5177 61.7207C34.3608 61.7247 34.3289 61.744 34.4364 61.77ZM35.3365 61.7959C35.2908 61.8408 35.3176 61.8775 35.3959 61.8775C35.4742 61.8775 35.5385 61.8408 35.5385 61.7959C35.5385 61.751 35.5118 61.7143 35.4791 61.7143C35.4464 61.7143 35.3823 61.751 35.3365 61.7959ZM0 74.6939V80H35H70V74.6939V69.3878H35H0V74.6939ZM15.0769 70.7425L15.4135 70.867L14.9423 70.8214C14.6067 70.7889 14.5292 70.7989 14.6731 70.856C14.7841 70.9002 15.0112 70.9368 15.1779 70.9375C15.4704 70.9387 15.4808 70.9651 15.4808 71.7055C15.4808 72.2748 15.4338 72.4833 15.2986 72.5147C15.0703 72.5678 14.6252 72.2725 14.8222 72.1986C14.8983 72.1701 14.9256 72.0913 14.8827 72.0235C14.8256 71.9332 14.8681 71.9136 15.0418 71.9503C15.2673 71.998 15.2673 71.9949 15.0433 71.8891C14.7867 71.768 14.7269 71.5918 14.9423 71.5918C15.0163 71.5918 15.0769 71.6347 15.0769 71.6871C15.0769 71.7394 15.1158 71.7587 15.1635 71.7299C15.211 71.701 15.1697 71.6188 15.0717 71.5472C14.9135 71.4317 14.8591 71.4514 14.5896 71.7222C14.3095 72.0036 14.3013 72.0457 14.4841 72.2601C14.6591 72.4653 14.6589 72.4982 14.4829 72.5392C14.1918 72.6069 13.7602 72.3214 13.7625 72.0627C13.7636 71.9401 13.8175 71.8596 13.8822 71.8838C13.947 71.9082 14 71.9948 14 72.0765C14 72.1581 14.0909 72.2706 14.2019 72.3265C14.3293 72.3906 14.4038 72.3961 14.4038 72.3413C14.4038 72.2936 14.338 72.2299 14.2575 72.1997C14.177 72.1696 14.1403 72.0773 14.1759 71.9947C14.2115 71.9122 14.1714 71.8281 14.0867 71.8079C14.002 71.7878 14.2037 71.6259 14.5347 71.4482L15.1368 71.125L14.6934 70.986C14.1973 70.8304 13.8255 70.9222 13.9509 71.1692C14.0073 71.2802 13.9907 71.278 13.8635 71.1574C13.7379 71.0384 13.7528 70.9776 13.9386 70.8532C14.0662 70.7677 14.2231 70.7174 14.2873 70.7415C14.3513 70.7655 14.4038 70.7462 14.4038 70.6987C14.4038 70.5778 14.6802 70.5957 15.0769 70.7425ZM55.4832 70.7964C55.7053 70.9477 55.764 71.1261 55.8107 71.7931C55.8518 72.3788 55.8269 72.5807 55.7212 72.5166C55.6318 72.4624 55.592 72.172 55.619 71.7724C55.6435 71.412 55.6181 71.1342 55.5625 71.1552C55.5069 71.1762 55.4615 71.4655 55.4615 71.7982C55.4615 72.3023 55.4279 72.3952 55.2596 72.3561C55.1486 72.3302 55.0577 72.3519 55.0577 72.4042C55.0577 72.4566 54.9971 72.4767 54.9231 72.449C54.717 72.3718 54.763 72.2449 54.997 72.2449C55.1614 72.2449 55.1992 72.1593 55.1752 71.8408C55.1556 71.5788 55.094 71.4552 55.0003 71.4891C54.9208 71.518 54.9387 71.4796 55.0399 71.4038C55.1412 71.3282 55.1923 71.1926 55.1535 71.1025C55.1148 71.0126 55.1332 70.9201 55.1947 70.8971C55.2563 70.874 55.3343 70.9199 55.3684 70.999C55.4202 71.1193 55.4329 71.1211 55.4459 71.01C55.4545 70.9369 55.3591 70.8267 55.2338 70.7651C55.079 70.689 55.0384 70.6858 55.1071 70.7551C55.1772 70.8259 55.1051 70.8571 54.8717 70.8571C54.6866 70.8571 54.4937 70.8978 54.443 70.9475C54.381 71.0083 54.4556 71.022 54.6707 70.9891C54.8465 70.9623 54.9143 70.9615 54.8213 70.9873C54.7283 71.0132 54.686 71.0675 54.7274 71.1081C54.7687 71.1486 54.7023 71.1585 54.5799 71.13C54.455 71.101 54.3005 71.1282 54.2277 71.1922C54.1368 71.2718 54.1256 71.2447 54.1904 71.102C54.3091 70.8403 54.5169 70.6833 54.6691 70.7404C54.7347 70.765 54.7885 70.7462 54.7885 70.6987C54.7885 70.5473 55.2029 70.6056 55.4832 70.7964ZM14.3675 71.0964C14.3567 71.1831 14.2999 71.236 14.2412 71.214C14.0921 71.158 14.1076 70.9388 14.2609 70.9388C14.3303 70.9388 14.3783 71.0097 14.3675 71.0964ZM13.0577 75.2245V79.2653H8.48077H3.90385V75.2245V71.1837H8.48077H13.0577V75.2245ZM65.6923 75.2245V79.2653H61.1154H56.5385V75.2245V71.1837H61.1154H65.6923V75.2245ZM54.792 71.9944C54.731 72.1934 54.7117 72.4046 54.7492 72.4638C54.8429 72.6118 54.6575 72.5987 54.3616 72.4363C54.0255 72.2519 54.0496 71.8802 54.4107 71.6762C54.8045 71.4537 54.9264 71.5555 54.792 71.9944ZM14.2019 71.6735C14.1562 71.7184 14.1829 71.7551 14.2613 71.7551C14.3396 71.7551 14.4038 71.7184 14.4038 71.6735C14.4038 71.6286 14.3772 71.5918 14.3445 71.5918C14.3118 71.5918 14.2477 71.6286 14.2019 71.6735ZM54.3674 71.8116C54.2419 71.9055 54.2367 71.93 54.351 71.8884C54.4553 71.8505 54.5192 71.8729 54.5192 71.9476C54.5192 72.0138 54.4436 72.0844 54.351 72.1045C54.2585 72.1245 54.2281 72.1704 54.2837 72.2065C54.421 72.2958 54.5058 72.2313 54.6486 71.9295C54.7815 71.6487 54.6559 71.596 54.3674 71.8116Z" fill="black"/>
</svg>
