<svg width="70" height="49" viewBox="0 0 70 49" fill="none" xmlns="http://www.w3.org/2000/svg">
<path fill-rule="evenodd" clip-rule="evenodd" d="M10.7678 0.178669C9.76797 0.562653 8.72037 1.53311 8.72037 2.07547C8.72037 2.23887 8.66093 2.37268 8.58828 2.37268C8.51563 2.37268 8.45619 2.551 8.45619 2.76894C8.45619 2.98689 8.39675 3.16521 8.3241 3.16521C8.25145 3.16521 8.19201 3.37325 8.19201 3.62753C8.19201 3.8818 8.13257 4.08984 8.05992 4.08984C7.98727 4.08984 7.92783 4.26816 7.92783 4.48611C7.92783 4.70405 7.86839 4.88238 7.79574 4.88238C7.72309 4.88238 7.66365 5.01962 7.66365 5.18737C7.66365 5.35512 7.57634 5.60768 7.46974 5.74875C7.36302 5.88969 7.27386 6.16853 7.27161 6.36838C7.26923 6.56823 7.20794 6.73163 7.13529 6.73163C7.06264 6.73163 7.0032 6.96939 7.0032 7.25999C7.0032 7.55058 6.94376 7.78834 6.87111 7.78834C6.79847 7.78834 6.73903 8.02611 6.73903 8.3167C6.73903 8.6073 6.67959 8.84506 6.60694 8.84506C6.53429 8.84506 6.47485 9.08282 6.47485 9.37342C6.47485 9.66401 6.41541 9.90178 6.34276 9.90178C6.27011 9.90178 6.20855 10.095 6.20604 10.3311C6.2034 10.5671 6.11636 10.909 6.01253 11.0906C5.90871 11.2722 5.82166 11.6141 5.81902 11.8501C5.81651 12.0861 5.75496 12.2794 5.68231 12.2794C5.60966 12.2794 5.55022 12.6063 5.55022 13.0059C5.55022 13.4054 5.49078 13.7324 5.41813 13.7324C5.34548 13.7324 5.28604 14.0593 5.28604 14.4589C5.28604 14.8584 5.23188 15.1854 5.16571 15.1854C5.09953 15.1854 5.01605 15.5272 4.98012 15.9449C4.94433 16.3625 4.85609 17.0313 4.78397 17.4309C4.71185 17.8304 4.58319 18.7221 4.49786 19.4122C4.25984 21.3399 4.29101 21.2615 3.7645 21.2615C3.51155 21.2615 3.3047 21.3114 3.3047 21.3723C3.3047 21.4333 3.1561 21.551 2.97448 21.6337C2.79285 21.7165 2.64425 21.8746 2.64425 21.9852C2.64425 22.0956 2.58481 22.1861 2.51216 22.1861C2.43951 22.1861 2.38007 22.305 2.38007 22.4503C2.38007 22.5956 2.32063 22.7145 2.24798 22.7145C2.0476 22.7145 2.076 27.6102 2.28008 28.2643C2.37043 28.5537 2.48931 28.7906 2.54426 28.7906C2.59934 28.7906 2.64425 28.8797 2.64425 28.9887C2.64425 29.0987 2.76168 29.1868 2.90843 29.1868C3.05373 29.1868 3.17261 29.2463 3.17261 29.3189C3.17261 29.3916 3.32121 29.451 3.50283 29.451H3.83306V37.2537C3.83306 43.8399 3.86251 45.0859 4.02181 45.2451C4.1255 45.3489 4.26684 45.4338 4.33579 45.4338C4.40474 45.4338 4.53511 45.523 4.62559 45.632C4.73444 45.7631 5.03005 45.8301 5.50029 45.8301H6.21067V46.3981C6.21067 46.7105 6.13934 47.0374 6.05216 47.1246C5.93896 47.2378 5.10495 47.2831 3.13681 47.2831C0.317363 47.2831 0.00246195 47.3371 0.00246195 47.8204C0.00246195 48.3459 -0.906974 48.3314 32.2323 48.3314C65.3716 48.3314 64.4621 48.3459 64.4621 47.8204C64.4621 47.4132 64.0833 47.2831 62.8973 47.2831C61.3278 47.2831 61.292 47.2651 61.292 46.4764V45.8301H61.891C62.2342 45.8301 62.6433 45.7321 62.8487 45.6007C63.6561 45.0841 63.6005 45.654 63.6374 37.518C63.656 33.4082 63.7017 29.9116 63.7389 29.7482C63.7812 29.5629 63.9051 29.451 64.0684 29.451C64.2123 29.451 64.33 29.3916 64.33 29.3189C64.33 29.2463 64.4192 29.1868 64.5282 29.1868C64.6371 29.1868 64.7263 29.0977 64.7263 28.9887C64.7263 28.8797 64.7857 28.7906 64.8584 28.7906C64.931 28.7906 64.9905 28.6717 64.9905 28.5264C64.9905 28.3811 65.0499 28.2622 65.1226 28.2622C65.3173 28.2622 65.2977 22.9534 65.1013 22.5225C65.017 22.3375 64.8982 22.1861 64.8371 22.1861C64.7762 22.1861 64.7259 22.0821 64.7255 21.9549C64.7246 21.6953 64.0513 21.2615 63.6495 21.2615C63.1655 21.2615 63.0091 20.9431 63.0091 19.9577C63.0091 19.4484 62.9497 18.9948 62.8771 18.9499C62.8044 18.905 62.745 18.5246 62.745 18.1045C62.745 17.6845 62.6565 17.049 62.5483 16.6924C62.4401 16.3357 62.3509 15.8245 62.3501 15.5564C62.3494 15.2883 62.2893 15.0321 62.2166 14.9872C62.144 14.9423 62.0845 14.5525 62.0845 14.1208C62.0845 13.6857 62.0256 13.3361 61.9524 13.3361C61.8798 13.3361 61.8203 13.0389 61.8203 12.6757C61.8203 12.3124 61.7671 12.0152 61.7021 12.0152C61.6371 12.0152 61.5526 11.7924 61.5144 11.5199C61.387 10.611 61.1262 9.6376 61.0102 9.6376C60.9472 9.6376 60.8957 9.42956 60.8957 9.17528C60.8957 8.92101 60.8363 8.71297 60.7636 8.71297C60.691 8.71297 60.6315 8.47521 60.6315 8.18461C60.6315 7.89402 60.5721 7.65625 60.4994 7.65625C60.4268 7.65625 60.3674 7.44821 60.3674 7.19394C60.3674 6.93967 60.3079 6.73163 60.2353 6.73163C60.1626 6.73163 60.1032 6.52359 60.1032 6.26932C60.1032 6.01504 60.049 5.807 59.9827 5.807C59.9164 5.807 59.8221 5.5695 59.7731 5.2793C59.7241 4.9891 59.6296 4.71819 59.5633 4.67711C59.497 4.63616 59.4427 4.42786 59.4427 4.21414C59.4427 4.00041 59.3833 3.82566 59.3106 3.82566C59.238 3.82566 59.1786 3.61762 59.1786 3.36335C59.1786 3.10907 59.1191 2.90103 59.0465 2.90103C58.9738 2.90103 58.9144 2.72271 58.9144 2.50476C58.9144 2.28682 58.8549 2.1085 58.7823 2.1085C58.7096 2.1085 58.6483 2.00454 58.646 1.87734C58.6416 1.63403 58.3534 1.18387 58.2019 1.18387C58.153 1.18387 57.9049 0.975829 57.6507 0.721557C57.3722 0.443112 57.0588 0.259244 56.8626 0.259244C56.6834 0.259244 56.5368 0.199804 56.5368 0.127154C56.5368 -0.0732254 11.2912 -0.022239 10.7678 0.178669ZM55.348 4.03317C55.348 6.32651 55.3111 6.91946 55.1592 7.07123C54.9983 7.23225 53.0936 7.25999 42.2144 7.25999H29.4584V7.7223V8.18461H43.592H57.7256V7.7223C57.7256 7.26963 57.7143 7.25999 57.1878 7.25999C56.2839 7.25999 56.2726 7.22168 56.2726 4.16526V1.44805L56.5698 1.45241C56.9346 1.45782 57.4614 1.87747 57.4614 2.16265C57.4614 2.27823 57.5208 2.37268 57.5935 2.37268C57.6661 2.37268 57.7256 2.52128 57.7256 2.7029C57.7256 2.88452 57.785 3.03312 57.8577 3.03312C57.9303 3.03312 57.9897 3.21144 57.9897 3.42939C57.9897 3.64734 58.0492 3.82566 58.1218 3.82566C58.1945 3.82566 58.2543 3.95947 58.2547 4.12286C58.2552 4.28626 58.3444 4.59033 58.4529 4.79837C58.5614 5.00654 58.6502 5.31854 58.6502 5.49184C58.6502 5.66514 58.7096 5.807 58.7823 5.807C58.8549 5.807 58.9144 6.01504 58.9144 6.26932C58.9144 6.52359 58.9738 6.73163 59.0465 6.73163C59.1191 6.73163 59.1786 6.93967 59.1786 7.19394C59.1786 7.44821 59.238 7.65625 59.3106 7.65625C59.3833 7.65625 59.4427 7.78583 59.4427 7.94408C59.4427 8.25845 59.6357 8.93039 59.9209 9.60907C60.0211 9.84762 60.1032 10.2192 60.1032 10.4346C60.1032 10.6501 60.1626 10.8264 60.2353 10.8264C60.3079 10.8264 60.3674 11.0939 60.3674 11.4208C60.3674 11.7477 60.4268 12.0152 60.4994 12.0152C60.5721 12.0152 60.6315 12.2791 60.6315 12.6018C60.6315 12.9245 60.691 13.2251 60.7636 13.2701C60.8363 13.315 60.8978 13.6305 60.9003 13.9713C60.903 14.3121 60.99 14.7396 61.0938 14.9212C61.1977 15.1028 61.2847 15.5635 61.2874 15.9449C61.2899 16.3262 61.3514 16.6383 61.4241 16.6383C61.5004 16.6383 61.5562 17.0567 61.5562 17.629C61.5562 18.2014 61.6119 18.6197 61.6883 18.6197C61.7675 18.6197 61.8203 19.148 61.8203 19.9406V21.2615H59.0465H56.2726V19.0737V16.8857L55.8433 16.9272L55.414 16.9686L55.3777 19.115L55.3414 21.2615H33.682H12.0226V19.082V16.9025H11.5603H11.098V19.082V21.2615H8.3241H5.55022V20.0144C5.55022 19.3256 5.6094 18.7308 5.68231 18.6857C5.75496 18.6408 5.8144 18.2629 5.8144 17.8458C5.8144 17.4286 5.87476 17.0271 5.94873 16.9531C6.07554 16.8263 6.27328 15.761 6.43007 14.3598C6.46877 14.0146 6.5541 13.7324 6.61975 13.7324C6.68527 13.7324 6.73903 13.4054 6.73903 13.0059C6.73903 12.6063 6.79847 12.2794 6.87111 12.2794C6.94376 12.2794 7.0032 12.0119 7.0032 11.685C7.0032 11.3581 7.06264 11.0906 7.13529 11.0906C7.20794 11.0906 7.2695 10.8973 7.27201 10.6613C7.27465 10.4252 7.3617 10.0834 7.46552 9.90178C7.56934 9.72015 7.65639 9.40803 7.65903 9.20831C7.66154 9.00859 7.72309 8.84506 7.79574 8.84506C7.86839 8.84506 7.92783 8.63702 7.92783 8.38275C7.92783 8.12847 7.98727 7.92043 8.05992 7.92043C8.13257 7.92043 8.19201 7.65295 8.19201 7.32603C8.19201 6.99911 8.25145 6.73163 8.3241 6.73163C8.39675 6.73163 8.45619 6.55687 8.45619 6.34315C8.45619 6.12943 8.51563 5.91796 8.58828 5.87305C8.66093 5.82814 8.72037 5.64202 8.72037 5.45961C8.72037 5.27706 8.80953 5.03851 8.9185 4.92953C9.02748 4.82056 9.11664 4.58702 9.11664 4.41068C9.11664 4.23421 9.17608 4.08984 9.24873 4.08984C9.32137 4.08984 9.38082 3.8818 9.38082 3.62753C9.38082 3.37325 9.44026 3.16521 9.5129 3.16521C9.58555 3.16521 9.64499 2.98689 9.64499 2.76894C9.64499 2.551 9.70443 2.37268 9.77708 2.37268C9.84973 2.37268 9.90917 2.30531 9.90917 2.22289C9.90917 2.00454 10.5967 1.44845 10.8668 1.44818C11.0795 1.44805 11.098 1.66547 11.098 4.16526C11.098 7.10148 11.0618 7.25999 10.3917 7.25999C9.68119 7.25999 9.42956 7.5918 9.83375 7.99586C9.98948 8.15172 10.7721 8.18461 14.3248 8.18461C16.691 8.18461 18.6271 8.23098 18.6271 8.28751C18.6271 8.34418 18.5082 8.47613 18.3629 8.58088C18.2176 8.68563 18.0987 8.82036 18.0987 8.8802C18.0987 9.00423 17.4911 9.6376 17.3722 9.6376C17.3293 9.6376 17.1483 9.78356 16.97 9.96188C16.7917 10.1402 16.6457 10.3212 16.6457 10.3641C16.6457 10.4658 16.021 11.0906 15.9192 11.0906C15.7852 11.0906 15.1928 11.7319 15.1928 11.8772C15.1928 11.9531 15.1333 12.0152 15.0607 12.0152C14.8645 12.0152 14.9008 12.4026 15.1173 12.619C15.221 12.7228 15.3989 12.8077 15.5125 12.8077C15.7346 12.8077 19.8159 8.79804 19.8159 8.57983C19.8159 8.5077 19.8769 8.44879 19.9514 8.44879C20.128 8.44879 21.2689 7.30794 21.2689 7.13133C21.2689 7.05683 21.3299 6.99581 21.4045 6.99581C21.5815 6.99581 23.9107 4.66667 23.9107 4.48967C23.9107 4.41504 23.9701 4.35402 24.0427 4.35402C24.2389 4.35402 24.2026 3.9666 23.9861 3.75024C23.7697 3.53374 23.3823 3.49742 23.3823 3.69357C23.3823 3.76622 23.3209 3.82566 23.2458 3.82566C23.1016 3.82566 22.1935 4.6849 22.1935 4.82135C22.1935 4.92504 21.8399 5.27864 21.7362 5.27864C21.6321 5.27864 20.7405 6.17025 20.7405 6.27433C20.7405 6.3944 20.3792 6.73163 20.2507 6.73163C20.1889 6.73163 20.0527 6.85051 19.948 6.99581C19.7654 7.24916 19.606 7.25999 16.0788 7.25999C13.0666 7.25999 12.3658 7.22578 12.2114 7.07123C12.0595 6.91946 12.0226 6.32651 12.0226 4.03317V1.18387H33.6853H55.348V4.03317ZM27.7413 5.41073L25.8678 7.25999H24.6251C23.6084 7.25999 23.3823 7.29605 23.3823 7.45812C23.3823 7.56709 23.3223 7.65625 23.2492 7.65625C23.1702 7.65625 23.1831 7.76378 23.2809 7.92043C23.4119 8.13019 23.5889 8.18461 24.1406 8.18461C24.5226 8.18461 24.8353 8.21605 24.8353 8.25449C24.8353 8.29279 24.3598 8.79275 23.7786 9.36549C22.7628 10.3663 22.6098 10.6452 22.802 11.1458C23.0268 11.7316 23.4833 11.3746 26.9432 7.90841C29.536 5.31074 30.383 4.38374 30.383 4.14386C30.383 3.94903 30.3062 3.82566 30.1849 3.82566C30.0759 3.82566 29.9868 3.76622 29.9868 3.69357C29.9868 3.31553 29.4412 3.73267 27.7413 5.41073ZM11.2631 9.8352C11.1457 9.96861 11.098 10.6346 11.098 12.1417V14.2607H9.5129H7.92783V14.723V15.1854H33.6853H59.4427V14.723V14.2607H58.0666C57.3097 14.2607 56.5965 14.2247 56.4815 14.1806C56.3035 14.1123 56.2726 13.7985 56.2726 12.0577C56.2726 10.4453 56.232 9.97443 56.0803 9.82265C55.9118 9.65424 55.8543 9.659 55.6179 9.86149C55.3672 10.0761 55.348 10.2411 55.348 12.1766V14.2607H33.874C15.4394 14.2607 12.3733 14.234 12.2114 14.072C12.0645 13.9252 12.0226 13.4418 12.0226 11.8925C12.0226 10.211 11.9918 9.90178 11.8245 9.90178C11.7155 9.90178 11.6263 9.84234 11.6263 9.76969C11.6263 9.5837 11.4577 9.61409 11.2631 9.8352ZM63.5375 22.3182C63.5375 22.3908 63.6053 22.4503 63.6881 22.4503C64.1118 22.4503 64.1895 22.9047 64.1937 25.407L64.198 27.9012L63.8347 28.2136L63.4715 28.5261L59.373 28.5263C55.4088 28.5264 55.267 28.5352 55.0435 28.7964C54.841 29.0327 54.8362 29.0903 55.0047 29.2587C55.1638 29.4179 55.8329 29.451 58.8909 29.451C62.1372 29.451 62.5944 29.4764 62.6648 29.66C62.7089 29.7749 62.7431 33.0886 62.7407 37.024C62.7374 42.7642 62.7019 44.2247 62.5611 44.4102C62.3949 44.629 60.8651 44.6413 33.7084 44.6413C5.49117 44.6413 5.029 44.6372 4.8944 44.3859C4.74685 44.1099 4.6927 30.0382 4.83786 29.66C4.91051 29.4704 7.15154 29.451 28.8781 29.451H52.8383V29.1472C52.8383 28.9801 52.7669 28.7721 52.6797 28.6849C52.5576 28.5627 46.9486 28.5264 28.2372 28.5264H3.95313L3.64034 28.2136C3.34472 27.918 3.32227 27.7773 3.23271 25.6595C3.13404 23.328 3.24684 22.4503 3.64523 22.4503C3.74852 22.4503 3.83306 22.3908 3.83306 22.3182C3.83306 22.2305 13.8719 22.1861 33.6853 22.1861C53.4987 22.1861 63.5375 22.2305 63.5375 22.3182ZM5.45115 24.2583C5.33373 24.3034 5.28604 24.7185 5.28604 25.6974V27.0734H5.6658C5.98546 27.0734 6.05863 27.008 6.12811 26.6606C6.17355 26.4336 6.21067 26.0472 6.21067 25.802V25.3562H10.8115H15.4123L15.5997 25.0044C15.7461 24.7296 15.751 24.6405 15.622 24.5971C15.5313 24.5666 15.4569 24.4698 15.4569 24.382C15.4569 24.26 14.2898 24.219 10.5366 24.2087C7.83035 24.2013 5.54203 24.2236 5.45115 24.2583ZM7.3506 39.6549C7.30688 39.8185 7.27016 40.4649 7.26923 41.0918C7.26725 42.3214 7.41189 42.6256 7.92149 42.4638C8.17339 42.3839 8.19201 42.2737 8.19201 40.8679V39.3577H7.8112C7.52786 39.3577 7.40991 39.4338 7.3506 39.6549ZM10.2312 39.5889C10.1234 39.8321 10.143 41.9005 10.2568 42.2967C10.3371 42.5764 10.6516 42.5968 10.9092 42.3391C11.1756 42.0728 11.1756 39.8128 10.9092 39.5465C10.6531 39.2904 10.3554 39.309 10.2312 39.5889ZM13.1123 39.5553C12.8689 39.8318 12.8881 42.0913 13.136 42.3391C13.2397 42.4429 13.3925 42.5279 13.4756 42.5279C13.5587 42.5279 13.7115 42.4429 13.8152 42.3391C14.0816 42.0728 14.0816 39.8128 13.8152 39.5465C13.5786 39.3098 13.3257 39.313 13.1123 39.5553ZM53.5317 39.5553C53.4254 39.6761 53.3666 40.1717 53.3666 40.9466C53.3666 42.1926 53.4926 42.5279 53.961 42.5279C54.4298 42.5279 54.5554 42.1928 54.5554 40.9428C54.5554 40.0723 54.5027 39.6824 54.3667 39.5465C54.1282 39.3079 53.746 39.312 53.5317 39.5553ZM56.4377 39.5553C56.1943 39.8318 56.2134 42.0913 56.4613 42.3391C56.6938 42.5717 56.9283 42.5732 57.2302 42.344C57.42 42.1999 57.4614 41.9575 57.4614 40.9906C57.4614 39.9739 57.4251 39.7816 57.1958 39.5852C56.8768 39.312 56.6593 39.3036 56.4377 39.5553ZM59.3437 39.5553C59.1002 39.8318 59.1194 42.0913 59.3673 42.3391C59.6164 42.5884 59.9233 42.5789 60.023 42.3189C60.0671 42.204 60.1032 41.5848 60.1032 40.9428C60.1032 40.3009 60.0671 39.6816 60.023 39.5667C59.9242 39.3093 59.5656 39.3033 59.3437 39.5553ZM12.0226 45.9055C12.0226 46.0104 11.6646 46.3585 11.5567 46.3585C11.508 46.3585 11.3015 46.5368 11.098 46.7547L10.7279 47.151H8.99762H7.26738V46.4906V45.8301H9.64499C10.9527 45.8301 12.0226 45.8641 12.0226 45.9055ZM54.2042 46.4114C54.5426 46.7311 54.8196 47.0283 54.8196 47.0719C54.8196 47.1153 45.3092 47.151 33.6853 47.151C22.0614 47.151 12.551 47.1186 12.551 47.079C12.551 46.9645 13.188 46.3585 13.3084 46.3585C13.3682 46.3585 13.5029 46.2396 13.6077 46.0943C13.7967 45.8321 13.9497 45.8301 33.6935 45.8301H53.5888L54.2042 46.4114ZM60.1032 46.4906V47.151H58.3826H56.6618L56.071 46.56C55.7459 46.2351 55.48 45.9379 55.48 45.8996C55.48 45.8614 56.5202 45.8301 57.7916 45.8301H60.1032V46.4906ZM66.6086 47.4807C66.1 48.0583 66.6194 48.3314 68.2267 48.3314C69.1209 48.3314 69.6222 48.2747 69.7787 48.1559C70.0592 47.943 70.0728 47.7234 69.8211 47.4719C69.553 47.2036 66.8459 47.2111 66.6086 47.4807Z" fill="black"/>
</svg>
