<svg width="70" height="53" viewBox="0 0 70 53" fill="none" xmlns="http://www.w3.org/2000/svg">
<path fill-rule="evenodd" clip-rule="evenodd" d="M11.2966 0.129456C10.5448 0.389646 10.0457 0.828352 9.65623 1.57112C9.46099 1.94332 9.44613 2.04444 9.42085 3.17402C9.39044 4.52841 9.47888 4.91889 9.96589 5.58114C10.2341 5.94588 10.9871 6.47769 11.3473 6.5568C11.6173 6.61615 11.52 6.3775 12.6628 9.78571C13.7148 12.9232 13.7748 13.0832 14.1275 13.688C14.2689 13.9305 14.3846 14.1406 14.3845 14.1547C14.3844 14.1689 12.8531 14.1826 10.9814 14.1852C7.71177 14.1896 7.56094 14.1963 7.12932 14.355C6.26264 14.6737 5.5583 15.3754 5.2355 16.2418C5.03855 16.7706 4.99359 18.6216 5.16183 19.2782C5.45726 20.4315 6.04803 21.0253 7.45461 21.5829C7.57603 21.6311 7.6756 21.7649 7.73783 21.9637C7.79064 22.1322 8.34595 23.7864 8.9718 25.6395C10.1097 29.0086 10.3932 29.708 10.9168 30.4375L11.196 30.8264L6.97593 30.8672C2.4018 30.9113 2.45213 30.9066 1.67825 31.3602C0.917286 31.8061 0.264596 32.7117 0.0721566 33.5886C0.0117957 33.8636 -0.0120063 34.4909 0.00572854 35.3387L0.0334198 36.6603L0.314455 37.2487C0.490015 37.6163 0.743748 37.9855 0.990325 38.2321C1.41596 38.6577 2.18074 39.0851 2.65141 39.1604L2.94365 39.2071L3.46403 40.7728C4.90623 45.1121 5.99374 48.2355 6.21861 48.6841C6.49428 49.234 7.03986 50.0339 7.29702 50.2652C7.38772 50.3467 7.46185 50.4429 7.46185 50.4791C7.46185 50.5153 5.9883 50.5448 4.18719 50.5448C0.568189 50.5448 0.559788 50.5458 0.206879 51.0405C0.0763568 51.2236 0.0334198 51.3931 0.0334198 51.7254C0.0334198 52.2345 0.19 52.5048 0.618126 52.7344C0.878238 52.8738 1.94747 52.8784 34.9976 52.8784C68.0477 52.8784 69.1169 52.8738 69.377 52.7344C69.8052 52.5048 69.9617 52.2345 69.9617 51.7254C69.9617 51.3931 69.9188 51.2236 69.7883 51.0405C69.4354 50.5458 69.427 50.5448 65.808 50.5448C64.0069 50.5448 62.5333 50.5159 62.5333 50.4806C62.5333 50.4453 62.6239 50.3315 62.7345 50.2278C62.9821 49.9956 63.5319 49.1714 63.8143 48.6089C64.0115 48.2163 65.0783 45.143 66.4534 41.0062L67.0515 39.2071L67.3438 39.1604C67.8035 39.0868 68.5759 38.6611 68.9747 38.2613C69.3966 37.8384 69.7399 37.2437 69.8921 36.6719C70.0345 36.1369 70.0364 34.0009 69.8949 33.4711C69.6064 32.3911 68.8203 31.5109 67.7636 31.0848C67.3204 30.9061 67.2854 30.9045 63.0581 30.8656L58.7992 30.8264L59.0784 30.4375C59.6012 29.7091 59.8771 29.0258 61.0436 25.5697C61.685 23.6693 62.2503 22.0026 62.3 21.8657C62.3668 21.6815 62.4643 21.5929 62.6757 21.5246C63.8044 21.1593 64.5504 20.3826 64.8333 19.2782C65.018 18.5574 64.9597 16.7589 64.7331 16.1859C64.5046 15.6084 64.0787 15.0627 63.5978 14.7315C62.8671 14.2282 62.8193 14.2229 59.0255 14.2178C57.1473 14.2153 55.6105 14.2011 55.6105 14.1862C55.6105 14.1714 55.7683 13.8626 55.9612 13.4999C56.1911 13.0679 56.6344 11.8784 57.2474 10.0492C58.5079 6.28782 58.3466 6.65582 58.8056 6.49278C59.4118 6.27747 59.9611 5.78051 60.2776 5.16118L60.5498 4.62821V3.29832V1.96836L60.283 1.4763C59.9739 0.906213 59.5591 0.516279 58.9552 0.227932L58.5274 0.0237476L35.1143 0.00655776C12.7437 -0.00985478 11.6831 -0.00433312 11.2966 0.129456ZM58.1129 2.44713C58.2323 2.55517 58.2552 2.69845 58.2552 3.33722C58.2552 4.03588 58.2409 4.1086 58.0823 4.21968C57.8179 4.40496 12.1773 4.40496 11.9129 4.21968C11.7546 4.10884 11.74 4.03541 11.74 3.35075C11.74 2.76402 11.7678 2.5722 11.8687 2.46066C11.9929 2.32345 12.8138 2.31839 34.984 2.31839C56.2642 2.31839 57.9812 2.32796 58.1129 2.44713ZM54.9893 9.4034C54.4792 10.9043 53.9762 12.2782 53.8713 12.4564C53.4541 13.1661 52.5728 13.8338 51.7602 14.0561C51.3198 14.1765 18.6753 14.1765 18.235 14.0561C17.4315 13.8363 16.5387 13.1589 16.1226 12.4533C16.0165 12.2735 15.513 10.8996 15.0038 9.40029L14.0778 6.67433H34.9973H55.9167L54.9893 9.4034ZM62.2265 16.6331C62.505 16.7821 62.6111 17.1245 62.6111 17.8739C62.6111 18.6412 62.4933 19.0526 62.2339 19.1914C62.018 19.3069 7.98448 19.3108 7.76871 19.1953C7.48565 19.0439 7.38406 18.7055 7.38406 17.9142C7.38406 17.1361 7.48285 16.7946 7.75354 16.637C7.9445 16.5257 62.0187 16.5219 62.2265 16.6331ZM59.8312 21.6552C59.9005 21.7245 57.7479 28.0257 57.4571 28.605C57.1281 29.2605 56.41 29.975 55.7118 30.342C54.6324 30.9091 56.3671 30.8653 34.9976 30.8653C13.6362 30.8653 15.3619 30.9087 14.2882 30.3445C13.6486 30.0084 12.9506 29.3467 12.6127 28.7562C12.3549 28.3054 10.0892 21.73 10.1655 21.6537C10.225 21.5942 59.7717 21.5957 59.8312 21.6552ZM67.1897 33.4244C67.5841 33.7056 67.6671 33.9909 67.6671 35.0657C67.6671 36.1404 67.5841 36.4258 67.1897 36.707L66.9281 36.8936H34.9976H3.06702L2.80543 36.707C2.40951 36.4247 2.32806 36.1417 2.32822 35.0487C2.3283 33.8911 2.42164 33.639 2.94816 33.3735L3.29594 33.1981L35.1121 33.2179L66.9281 33.2378L67.1897 33.4244ZM64.5361 39.3633C64.5161 39.4168 63.8973 41.2457 63.1609 43.4275C62.4245 45.6094 61.7146 47.5824 61.5834 47.8119C60.8159 49.1547 59.5024 50.1118 58.0021 50.4217C57.4665 50.5323 55.1334 50.5448 34.9976 50.5448C10.3139 50.5448 12.0135 50.5781 10.8998 50.0731C10.2536 49.7801 9.50704 49.2439 9.09594 48.7773C8.4137 48.003 8.22771 47.5624 6.80519 43.3511C6.05402 41.1271 5.43945 39.2982 5.43945 39.2868C5.43945 39.2754 18.7443 39.2661 35.0059 39.2661C58.6266 39.2661 64.5651 39.2856 64.5361 39.3633Z" fill="black"/>
</svg>
