<svg width="70" height="74" viewBox="0 0 70 74" fill="none" xmlns="http://www.w3.org/2000/svg">
<path fill-rule="evenodd" clip-rule="evenodd" d="M40.4329 0.140547C40.1183 0.296304 39.9946 0.462323 39.3372 1.6111C38.3137 3.39971 37.6153 4.61217 37.5328 4.74374C37.4576 4.86365 37.317 4.90449 36.7301 4.97682C32.1829 5.53722 27.4294 7.44384 23.5103 10.2793C20.5863 12.3947 17.8821 15.2718 15.9675 18.3044C14.6031 20.4654 13.9791 22.2017 13.7671 24.4268C13.5056 27.1716 14.2992 30.3021 15.8355 32.5862C16.6974 33.8674 17.9671 35.1628 19.1144 35.931C19.4044 36.1251 19.6562 36.2965 19.6741 36.3118C19.6919 36.327 19.6625 36.4092 19.6087 36.4944C19.5549 36.5797 19.4113 36.8234 19.2897 37.036C19.1682 37.2486 18.7666 37.9445 18.3972 38.5823C17.4091 40.289 16.9307 41.1173 14.5812 45.1893C13.4102 47.2189 12.3226 49.0996 12.1643 49.3688C12.0061 49.638 11.8649 49.8911 11.8506 49.9311C11.836 49.9721 11.5973 49.8892 11.305 49.7416C10.542 49.3563 10.0268 49.1989 9.23906 49.1105C7.85341 48.9552 6.47303 49.3706 5.55698 50.2188C4.81411 50.9065 4.99236 50.514 2.82968 56.2245C0.364488 62.7337 0.212948 63.1536 0.104495 63.7757C-0.307671 66.1391 0.511319 68.1206 2.35159 69.2125C2.95226 69.5688 3.47084 69.753 4.17393 69.8595C4.64204 69.9305 5.28222 69.9121 5.6267 69.8178C5.70837 69.7954 5.77444 69.8796 5.86561 70.1223C6.04435 70.598 6.52751 71.3152 6.9285 71.7004C7.4042 72.1572 8.2208 72.6417 8.88762 72.8626C9.35341 73.017 9.58262 73.0497 10.2231 73.0533C11.1278 73.0584 11.6314 72.942 12.4723 72.5336C13.5598 72.0055 14.0172 71.5545 16.325 68.7356C17.4802 67.3246 19.2525 65.161 20.2635 63.9276C21.2745 62.6942 22.2055 61.5239 22.3325 61.327C23.5676 59.4105 22.6852 56.4677 20.4445 55.0304C20.1382 54.8339 19.8876 54.6582 19.8876 54.6399C19.8876 54.6216 20.0661 54.2985 20.2842 53.9219C20.5023 53.5454 21.0357 52.6205 21.4696 51.8667C21.9035 51.1128 22.8524 49.4681 23.5784 48.2117C25.5055 44.8766 26.7425 42.7303 27.2546 41.8331C27.5029 41.3982 27.7427 41.0424 27.7876 41.0424C27.8324 41.0424 27.9315 41.0853 28.0077 41.1378C28.1329 41.2238 29.2605 41.8772 31.8716 43.3766C32.6604 43.8296 35.7371 45.6041 42.2039 49.3359C43.093 49.849 44.3266 50.5605 44.9451 50.9171C45.5636 51.2736 46.5758 51.8581 47.1943 52.2161C50.5559 54.1612 50.6414 54.1978 51.9224 54.2415C52.9941 54.2781 53.5248 54.1654 54.5042 53.6931C55.6426 53.1441 56.1887 52.6491 57.8428 50.6661C58.6353 49.7161 60.2326 47.8059 61.3924 46.421C62.5521 45.0362 63.8331 43.502 64.239 43.0116C64.6449 42.5212 65.4989 41.4964 66.1368 40.7342C67.9529 38.5638 68.7805 37.2135 69.3737 35.4521C70.0711 33.3817 70.1881 31.0935 69.7144 28.7893C69.4408 27.4581 68.8319 25.764 68.0993 24.2955C65.6993 19.4848 60.7951 14.2016 54.397 9.53447C51.4612 7.39281 48.728 6.12384 45.4371 5.37436C44.8186 5.23351 44.2886 5.11191 44.2594 5.10418C44.2302 5.09645 44.4248 4.71626 44.6918 4.25932C44.9589 3.80238 45.1976 3.32056 45.2224 3.18856C45.2835 2.86278 45.1538 2.42166 44.9241 2.17432C44.743 1.97934 41.9179 0.298904 41.4245 0.0928209C41.0948 -0.0449426 40.7768 -0.0296187 40.4329 0.140547ZM42.0674 2.14269C42.5677 2.43508 43.1273 2.75644 43.3109 2.85674C43.4945 2.95711 43.6446 3.0579 43.6445 3.08074C43.6444 3.10359 43.4277 3.50092 43.163 3.96376L42.6816 4.80525L42.0914 4.77207C41.7666 4.75379 41.0029 4.73889 40.394 4.73889C39.7851 4.73889 39.287 4.719 39.287 4.69461C39.287 4.65237 39.8506 3.65956 40.6685 2.26126C40.8776 1.90371 41.0732 1.6111 41.1032 1.6111C41.1331 1.6111 41.567 1.85036 42.0674 2.14269ZM42.0633 7.79767C44.5003 8.03327 46.9512 8.7024 49.0379 9.70189C53.1669 11.6796 59.4521 17.0769 62.9314 21.6326C65.1317 24.5135 66.3929 27.118 66.919 29.8667C67.0525 30.5642 67.036 32.5882 66.891 33.3108C66.6326 34.5976 66.0725 35.9296 65.3474 36.981C64.9772 37.518 63.7492 39.0304 62.3308 40.6967C61.9168 41.1831 61.2516 41.9765 60.8526 42.4597C59.2775 44.3677 56.6338 47.5092 56.5705 47.5484C56.498 47.5932 56.2101 47.4409 54.5393 46.4736C53.9401 46.1267 51.7261 44.8464 49.6192 43.6285C47.5123 42.4107 45.2825 41.1205 44.6639 40.7614C44.0454 40.4022 42.9068 39.7445 42.1336 39.2997C41.3604 38.855 40.3167 38.253 39.8141 37.9621C36.5047 36.0463 35.3943 35.4228 35.3576 35.4594C35.3347 35.4824 35.3712 35.5416 35.4389 35.591C35.5064 35.6404 35.5617 35.705 35.5617 35.7345C35.5617 35.7639 35.5143 35.7487 35.4563 35.7005C35.3803 35.6375 35.3509 35.6357 35.3509 35.6941C35.3509 35.7388 35.3983 35.7934 35.4563 35.8157C35.5143 35.8379 35.5581 35.9239 35.5536 36.0068C35.5471 36.1256 35.5386 36.1314 35.5133 36.0344C35.4595 35.8287 35.3731 35.8972 35.4057 36.1197C35.4394 36.3489 35.2674 36.5876 35.1297 36.5024C35.0796 36.4715 35.0669 36.4826 35.0968 36.531C35.1266 36.5791 35.0736 36.6283 34.962 36.6562C34.861 36.6816 34.8043 36.7273 34.8361 36.7577C34.8883 36.8076 36.059 37.492 37.7758 38.4761C38.1237 38.6756 39.547 39.4978 40.9387 40.3034C43.8239 41.9735 45.8911 43.1696 47.616 44.167C49.0638 45.0042 50.4317 45.7956 51.2358 46.2614C51.5644 46.4517 52.6636 47.086 53.6783 47.6708C54.6931 48.2557 55.5234 48.7623 55.5234 48.7965C55.5234 48.8746 54.8028 49.721 54.239 50.3052C53.9273 50.6283 53.6536 50.8259 53.2211 51.0401C52.7015 51.2976 52.5712 51.3333 52.1504 51.3333C51.508 51.3333 51.9261 51.5516 45.9994 48.122C44.593 47.3082 42.8859 46.3217 41.9579 45.7867C38.8646 44.0034 34.3835 41.4169 32.6448 40.4113C31.5237 39.7629 30.1953 38.9965 29.6927 38.7081C29.1902 38.4197 27.5296 37.463 26.0026 36.5821C20.459 33.3839 20.4469 33.3762 19.521 32.4493C18.18 31.1068 17.2694 29.4017 16.8539 27.455C16.6355 26.4321 16.636 24.6539 16.8548 23.6282C17.1707 22.1478 17.6523 21.0905 18.7992 19.3587C20.28 17.1228 22.1786 15.0538 24.2598 13.4079C25.344 12.5506 25.445 12.477 26.2895 11.9287C29.8127 9.64159 33.8005 8.21447 37.8109 7.80568C38.6433 7.72084 41.2182 7.71599 42.0633 7.79767ZM47.7566 13.6804C45.3564 14.2593 42.7568 16.6803 41.3572 19.6398C40.6714 21.0899 40.4153 22.1408 40.4131 23.5142C40.4106 24.9773 40.7296 26.0141 41.4955 27.033C41.9272 27.6073 42.5728 28.1946 42.7215 28.1485C42.7847 28.1289 42.963 28.1904 43.1176 28.2851C43.2723 28.3798 43.4857 28.4929 43.5921 28.5363C43.8164 28.6279 43.8272 28.6609 43.6703 28.7755C43.5711 28.8481 43.6652 28.9411 44.354 29.4511C44.7933 29.7763 45.7279 30.4694 46.4308 30.9913C47.1337 31.5132 48.1149 32.2385 48.6113 32.6032C49.1077 32.9679 49.8143 33.4871 50.1815 33.7571C50.5488 34.0271 51.2604 34.5555 51.763 34.9313C53.5791 36.2895 55.1816 37.4353 55.5227 37.6195C56.3139 38.0469 57.5026 38.2075 58.2997 37.9949C58.7217 37.8823 59.4041 37.5509 59.8604 37.237C60.3028 36.9326 61.2092 36.0613 61.6356 35.5305C63.5815 33.1084 63.8332 32.7208 63.9549 31.9586C64.2803 29.9216 62.5769 26.5494 58.9488 22.0482C57.7373 20.5454 57.0706 19.8078 55.5277 18.2643C53.0429 15.7785 50.8696 14.1713 49.4131 13.7427C49.0532 13.6367 48.0883 13.6005 47.7566 13.6804ZM49.2288 16.7722C50.0918 17.2054 51.2179 18.121 52.8422 19.7101C55.9973 22.7967 58.912 26.507 60.1308 28.9881C60.5669 29.8759 60.9355 30.8654 60.9355 31.1486C60.9355 31.5292 59.7677 33.2047 58.87 34.1121C58.0816 34.9091 57.2997 35.1929 56.7194 34.8929C56.608 34.8352 55.5262 34.0554 54.3156 33.1599C53.105 32.2644 51.6083 31.1574 50.9898 30.6998C50.3713 30.2423 49.1494 29.3379 48.2745 28.69C47.3997 28.0421 46.1088 27.0867 45.4061 26.5668C43.6193 25.2451 43.3345 24.8226 43.343 23.5057C43.3489 22.5732 43.5297 21.917 44.0986 20.7633C44.6384 19.6688 45.2005 18.8891 46.1028 17.9836C46.8542 17.2295 47.415 16.8323 47.9959 16.6432C48.4575 16.4929 48.7288 16.5213 49.2288 16.7722ZM21.0556 17.166C20.8385 17.4495 20.6608 17.7277 20.6608 17.7843C20.6608 17.9653 21.6495 19.28 22.6628 20.4463C23.0467 20.8881 25.1819 23.0488 25.2347 23.0488C25.2874 23.0488 25.9323 21.986 25.9323 21.8992C25.9323 21.8729 25.7161 21.6475 25.4518 21.3982C24.3265 20.3365 22.6216 18.3669 21.8522 17.2393L21.4504 16.6505L21.0556 17.166ZM19.3501 19.4837C19.2285 19.6855 19.0627 19.9636 18.9817 20.1015L18.8345 20.3523L19.3131 21.0578C19.8449 21.8418 20.4647 22.6227 21.1441 23.3651C21.8214 24.105 23.565 25.8603 23.6227 25.8603C23.6607 25.8603 24.1787 24.9978 24.2972 24.7372C24.3064 24.7171 23.8788 24.2577 23.3469 23.7165C21.8286 22.1713 20.6481 20.7465 19.9554 19.6229C19.7828 19.3429 19.6258 19.1145 19.6065 19.1153C19.5871 19.1161 19.4718 19.2818 19.3501 19.4837ZM17.7157 22.6693C17.552 23.0791 17.432 23.4513 17.4493 23.4962C17.5232 23.6888 18.6292 25.1154 19.282 25.8603C20.0734 26.7633 21.7081 28.4502 21.9184 28.5809C22.043 28.6584 22.0831 28.616 22.3771 28.0973C22.5542 27.7846 22.6985 27.5092 22.6978 27.4853C22.6971 27.4614 22.3449 27.0938 21.9151 26.6686C20.3916 25.1611 18.9969 23.5012 18.3397 22.4135C18.177 22.1444 18.0371 21.9242 18.0287 21.9242C18.0203 21.9242 17.8795 22.2595 17.7157 22.6693ZM44.9939 26.4146C45.0436 26.3442 45.0518 26.3659 45.0234 26.4929C44.9909 26.6383 45.0586 26.7438 45.416 27.1044C45.794 27.4857 45.8266 27.5392 45.6776 27.5314C45.4782 27.5211 45.2614 27.3568 45.2614 27.2158C45.2614 27.1616 45.2307 27.1361 45.1931 27.1593C45.1556 27.1825 45.1054 27.1234 45.0814 27.028C45.0574 26.9326 44.9913 26.8366 44.9343 26.8147C44.8773 26.7929 44.8435 26.751 44.8592 26.7218C44.8749 26.6926 44.8294 26.6132 44.7582 26.5456C44.6086 26.4034 44.5705 26.5435 44.7167 26.6985C44.7876 26.7736 44.7842 26.7852 44.6991 26.7586C44.6358 26.7387 44.5937 26.6404 44.5938 26.5126C44.5939 26.378 44.5635 26.3115 44.5111 26.3316C44.4559 26.3528 44.442 26.3107 44.4694 26.2058C44.5096 26.0521 44.5158 26.0539 44.7179 26.28C44.8838 26.4658 44.9387 26.4926 44.9939 26.4146ZM44.4531 27.1255C44.477 27.1641 44.5475 27.1957 44.6098 27.1957C44.731 27.1957 44.9802 27.3907 44.9802 27.4856C44.9802 27.517 44.9249 27.5233 44.8572 27.4995C44.7568 27.4642 44.7504 27.4736 44.8221 27.5509C44.8704 27.603 44.91 27.7278 44.91 27.8283C44.91 27.9288 44.8704 28.053 44.8221 28.1042C44.7512 28.1793 44.7545 28.1912 44.8397 28.1655C44.899 28.1476 44.9638 28.013 44.9878 27.858L45.0306 27.5823L45.0405 27.8302C45.0592 28.2949 44.6466 28.6383 44.1926 28.5358C43.896 28.469 43.7854 28.4079 43.7854 28.3112C43.7854 28.2721 43.7411 28.1957 43.6869 28.1416C43.6107 28.0653 43.6036 27.9761 43.6555 27.7453C43.7325 27.4025 43.8017 27.3031 44.0579 27.1676C44.2868 27.0465 44.397 27.0347 44.4531 27.1255ZM45.94 27.384C45.9198 27.4041 45.8699 27.4 45.829 27.3748C45.7784 27.3435 45.7826 27.2987 45.842 27.2341C45.9149 27.1548 45.9331 27.1564 45.9529 27.2433C45.966 27.3005 45.9602 27.3638 45.94 27.384ZM44.2219 27.3038C44.172 27.3604 44.0929 27.4061 44.0462 27.4056C43.9931 27.4048 44.0008 27.3788 44.0665 27.3363C44.1245 27.2989 44.1363 27.2677 44.0926 27.2671C43.9454 27.2651 43.8253 27.4912 43.837 27.7483C43.8472 27.9733 43.8414 27.983 43.7889 27.8283C43.7294 27.6535 43.729 27.6535 43.7221 27.8157C43.7182 27.9055 43.7546 28.0173 43.8029 28.0641C44.0018 28.2569 44.3425 28.4608 44.4639 28.4599C44.5618 28.459 44.5707 28.4442 44.4999 28.3993C44.4252 28.352 44.43 28.3307 44.5238 28.2948C44.5885 28.2699 44.6699 28.2671 44.7046 28.2886C44.7394 28.3101 44.7502 28.2818 44.7286 28.2257C44.7071 28.1696 44.7233 28.1028 44.7646 28.0773C44.8605 28.018 44.8627 27.64 44.7675 27.5812C44.7278 27.5567 44.7041 27.4869 44.7148 27.4261C44.7255 27.3654 44.6903 27.3005 44.6366 27.2818C44.5693 27.2584 44.5567 27.278 44.596 27.3448C44.6277 27.3989 44.5908 27.3873 44.5123 27.3187C44.3451 27.1724 44.3381 27.1721 44.2219 27.3038ZM45.3317 27.2359C45.3317 27.3106 45.5489 27.494 45.5894 27.4535C45.6115 27.4313 45.5806 27.3644 45.5207 27.3045C45.4092 27.1929 45.3317 27.1648 45.3317 27.2359ZM42.8007 28.2844C42.8485 28.342 42.9156 28.3717 42.9498 28.3506C42.9841 28.3294 43.0122 28.3456 43.0122 28.3865C43.0122 28.4274 43.0359 28.4559 43.0649 28.4497C43.177 28.4261 43.3605 28.5496 43.3172 28.6197C43.2904 28.6631 43.3054 28.6726 43.3539 28.6426C43.3992 28.6146 43.4179 28.5621 43.3955 28.5259C43.3322 28.4235 42.965 28.2504 42.9157 28.2997C42.8914 28.3239 42.8716 28.3068 42.8716 28.2618C42.8716 28.2167 42.8361 28.1798 42.7928 28.1798C42.7379 28.1798 42.7404 28.2118 42.8007 28.2844ZM43.9259 28.3162C43.9259 28.3526 43.9572 28.4017 43.9954 28.4253C44.0352 28.4499 44.047 28.4217 44.0231 28.3591C43.9763 28.2374 43.9259 28.2151 43.9259 28.3162ZM43.4691 28.6718C43.4452 28.7104 43.4573 28.7421 43.4959 28.7421C43.5346 28.7421 43.5857 28.7104 43.6096 28.6718C43.6335 28.6331 43.6214 28.6015 43.5828 28.6015C43.5441 28.6015 43.493 28.6331 43.4691 28.6718ZM44.0889 28.8435C44.2113 28.9362 44.2106 28.9423 44.0721 28.9863C43.9039 29.0397 43.5738 28.8518 43.7277 28.7903C43.8786 28.7299 43.9538 28.741 44.0889 28.8435ZM43.9072 28.8914C43.9549 28.9394 44.0116 28.961 44.0332 28.9394C44.0548 28.9177 44.0158 28.8784 43.9465 28.852C43.8464 28.8139 43.8383 28.8219 43.9072 28.8914ZM35.0336 35.5324C34.8385 35.7887 34.395 36.5971 34.5047 36.4967C34.5543 36.4515 34.6371 36.4306 34.6888 36.4504C34.7405 36.4703 34.8948 36.4495 35.0317 36.4044C35.2439 36.3343 35.2818 36.2893 35.2889 36.0992C35.3007 35.7823 35.2779 35.6735 35.1857 35.6073C35.1257 35.5642 35.1275 35.5401 35.1927 35.5136C35.2411 35.494 35.2806 35.449 35.2806 35.4135C35.2806 35.296 35.1751 35.3467 35.0336 35.5324ZM34.8588 36.544C34.7955 36.5849 34.7868 36.6125 34.8371 36.6132C34.8832 36.6138 34.9404 36.5826 34.9643 36.544C35.0182 36.4567 34.9939 36.4567 34.8588 36.544ZM23.648 38.617C24.3825 39.0341 25.0256 39.4141 25.0771 39.4615C25.1734 39.5502 25.1989 39.5029 23.0527 43.2213C22.7515 43.7432 22.1327 44.8186 21.6775 45.6111C21.2224 46.4036 20.6564 47.3841 20.4198 47.79C20.1831 48.1959 19.9492 48.6071 19.9 48.7037C19.8508 48.8004 19.7337 49.006 19.6397 49.1606C19.5457 49.3152 19.4137 49.5524 19.3463 49.6877C19.2789 49.823 19.1407 50.0603 19.0393 50.2149C18.9378 50.3695 18.5288 51.0654 18.1304 51.7612C17.732 52.4571 17.3771 53.0639 17.3417 53.1096C17.2941 53.1713 17.1922 53.143 16.9483 53.0005C16.7673 52.8947 16.4295 52.7319 16.1975 52.6388C15.9656 52.5456 15.6184 52.3506 15.4261 52.2053C15.2337 52.06 15.0099 51.9466 14.9287 51.9534C14.803 51.9638 14.7836 52.0058 14.7982 52.2357C14.8114 52.4421 14.8952 52.6003 15.1539 52.9067C15.3401 53.1271 15.4376 53.2641 15.3705 53.2111C15.2626 53.1257 15.2486 53.1322 15.2486 53.268C15.2486 53.366 15.2779 53.4032 15.3298 53.3712C15.3834 53.338 15.3917 53.3521 15.3542 53.4128C15.3101 53.4841 15.2761 53.4748 15.2017 53.3709C15.0944 53.2212 14.7008 52.7506 14.3467 52.3487C14.2179 52.2024 14.1325 52.0504 14.1571 52.0107C14.1815 51.971 14.1604 51.9532 14.1101 51.971C14.0598 51.9888 13.9662 51.931 13.9021 51.8425C13.7923 51.691 13.7933 51.6767 13.9196 51.5978C14.0012 51.5468 14.0537 51.5418 14.0537 51.5849C14.0537 51.6239 14.0231 51.6558 13.9856 51.6558C13.9482 51.6558 13.9358 51.7032 13.958 51.7612C14.0135 51.9057 14.1235 51.8942 14.1265 51.7436C14.1285 51.6493 14.1512 51.6609 14.2243 51.7929C14.2768 51.8875 14.3019 52.0113 14.2802 52.068C14.2548 52.1343 14.2699 52.1528 14.3229 52.12C14.3682 52.0921 14.4402 52.0909 14.483 52.1173C14.5386 52.1517 14.5364 52.1804 14.4755 52.2181C14.4145 52.2558 14.4124 52.2845 14.468 52.3189C14.5108 52.3453 14.5458 52.3301 14.5458 52.285C14.5458 52.24 14.5896 52.2198 14.6432 52.2404C14.7117 52.2667 14.7301 52.2374 14.7052 52.1422C14.6857 52.0675 14.7064 51.9623 14.7512 51.9083C14.8162 51.8301 14.7892 51.7791 14.6189 51.6579C14.5014 51.5741 14.4052 51.4737 14.4052 51.4347C14.4052 51.3956 14.6233 50.9945 14.8898 50.5433C15.1563 50.092 15.9367 48.7424 16.624 47.544C18.0075 45.1314 20.9591 40.0081 21.7342 38.6738C22.0081 38.2022 22.2503 37.8259 22.2724 37.8376C22.2945 37.8491 22.9135 38.2 23.648 38.617ZM20.1349 49.0963L20.1662 49.3714L20.0674 49.0903C20.0131 48.9357 19.9663 48.854 19.9633 48.9087C19.9604 48.9635 19.9413 48.9918 19.9211 48.9715C19.9009 48.9513 19.905 48.8806 19.9304 48.8145C19.9981 48.6381 20.0985 48.7765 20.1349 49.0963ZM20.026 49.4066C20.026 49.5003 20.0185 49.5003 19.9579 49.4066C19.9044 49.3238 19.8895 49.3218 19.8887 49.3976C19.8878 49.476 19.8676 49.4774 19.7806 49.4053C19.6911 49.331 19.6808 49.3353 19.7178 49.4318C19.7424 49.4959 19.7276 49.5472 19.6843 49.5472C19.5475 49.5472 19.601 49.3246 19.747 49.2864C19.8243 49.2662 19.8881 49.2138 19.8887 49.1699C19.8893 49.1261 19.9204 49.1377 19.9579 49.1957C19.9954 49.2537 20.026 49.3486 20.026 49.4066ZM9.34449 50.6015C9.40479 50.6405 9.41484 50.6701 9.36789 50.6707C9.19379 50.673 8.13139 51.7672 7.77208 52.3142C7.56558 52.6286 6.89686 53.9454 6.286 55.2405C5.67513 56.5355 4.57541 58.8603 3.84231 60.4066C2.01315 64.2645 1.61286 65.1951 1.61286 65.5892C1.61286 65.662 1.58123 65.702 1.54258 65.6781C1.43918 65.6143 1.45928 64.4149 1.57252 63.8858C1.62636 63.6345 2.06552 62.3852 2.54846 61.1095C3.03134 59.8337 3.9987 57.2785 4.69806 55.4312C5.39749 53.5839 6.01904 51.977 6.07935 51.8604C6.35895 51.3197 7.20297 50.7532 7.94633 50.6072C8.37564 50.5229 9.21755 50.5195 9.34449 50.6015ZM12.1383 51.9134L12.9451 52.3819L12.4627 52.5553C11.5557 52.8812 10.7661 53.5209 10.3427 54.2725C10.1482 54.6179 9.48211 56.3227 9.38785 56.7165C9.36473 56.8131 9.36403 56.8525 9.38631 56.8039C9.40859 56.7554 9.4606 56.7365 9.50193 56.762C9.55001 56.7918 9.55675 56.7729 9.52077 56.7098C9.47684 56.6328 9.48408 56.6292 9.55359 56.6934C9.60265 56.7387 9.68637 56.7591 9.73964 56.7386C9.80304 56.7143 9.8365 56.7526 9.8365 56.8495C9.8365 56.9393 9.79158 56.9976 9.72249 56.9976C9.6347 56.9976 9.62655 56.9758 9.68721 56.9028C9.75265 56.8239 9.72467 56.8208 9.5214 56.8843C9.3182 56.948 9.25375 57.0203 9.13981 57.3132C8.93373 57.8424 8.90308 57.9817 8.99249 57.9817C9.03712 57.9817 9.04858 57.9434 9.01884 57.8938C8.97709 57.8243 8.9882 57.8238 9.07184 57.8915C9.13299 57.941 9.29451 57.9636 9.45435 57.9453C9.67688 57.9196 9.69663 57.9256 9.55535 57.9756C9.38757 58.0351 9.38666 58.0382 9.53602 58.0449C9.75771 58.0549 10.0084 57.5109 9.90615 57.242C9.8353 57.0556 9.86328 56.9274 9.97461 56.9274C10.0074 56.9274 10.0186 56.9986 9.99957 57.0855C9.97483 57.1984 9.98396 57.2168 10.0315 57.1499C10.0856 57.0737 10.1061 57.077 10.1408 57.1675C10.1643 57.2287 10.157 57.2788 10.1247 57.2788C10.0923 57.2788 10.0772 57.3769 10.0912 57.4968C10.1051 57.6168 10.0862 57.767 10.049 57.8307C10.0046 57.9067 9.98059 57.9148 9.97918 57.8545C9.97806 57.8039 9.94495 57.7824 9.90566 57.8066C9.86637 57.831 9.8502 57.8767 9.86974 57.9083C9.93448 58.013 9.70359 58.1363 9.44275 58.1363C9.3014 58.1363 9.15872 58.0936 9.12561 58.0414C9.07817 57.9665 9.06524 57.9708 9.06439 58.0619C9.06376 58.1295 9.14311 58.1973 9.2562 58.2257C9.52386 58.2929 9.63583 58.4012 9.58923 58.548C9.54305 58.6935 9.66226 58.7958 9.73704 58.6748C9.76881 58.6235 9.7575 58.6114 9.70682 58.6427C9.66219 58.6703 9.62564 58.6612 9.62564 58.6225C9.62564 58.4947 9.75068 58.4723 9.79658 58.592C9.82139 58.6566 9.79939 58.7517 9.74773 58.8034C9.66936 58.8818 9.61945 58.8605 9.4464 58.6747C9.30962 58.5278 9.28095 58.4669 9.36206 58.4957C9.42968 58.5199 9.48506 58.5089 9.48506 58.4715C9.48506 58.434 9.44008 58.4034 9.38504 58.4034C9.33001 58.4034 9.18887 58.3225 9.07135 58.2237L8.85775 58.0439L8.73938 58.3115C8.67422 58.4587 8.62158 58.6978 8.62228 58.8427C8.62313 59.0105 8.59093 59.1063 8.53379 59.1063C8.48438 59.1063 8.39652 59.2407 8.33846 59.405C8.2804 59.5693 7.93241 60.4944 7.56502 61.4609C7.19763 62.4273 6.68748 63.7716 6.43128 64.4481C6.17515 65.1246 5.90068 65.8125 5.82133 65.9769C5.60618 66.4222 4.47469 67.5322 3.95765 67.805C3.44863 68.0736 3.23665 68.0896 3.03654 67.8746C2.8287 67.6512 2.78245 67.2931 2.87895 66.6535C3.05186 65.508 3.16833 65.2298 5.73691 59.8304C6.18183 58.895 6.52652 58.0983 6.50276 58.0599C6.47901 58.0214 6.52118 57.9327 6.59653 57.8625C6.6718 57.7923 6.92055 57.3397 7.14927 56.8567C8.8413 53.2834 8.8484 53.2699 9.39643 52.5925C9.83081 52.0555 10.7675 51.4612 11.199 51.4488C11.2719 51.4467 11.6945 51.6557 12.1383 51.9134ZM14.616 52.4331C14.616 52.474 14.6477 52.488 14.6863 52.4641C14.725 52.4402 14.7566 52.4067 14.7566 52.3897C14.7566 52.3726 14.725 52.3587 14.6863 52.3587C14.6477 52.3587 14.616 52.3922 14.616 52.4331ZM14.2161 52.802C14.1943 52.8373 14.2405 52.8455 14.3194 52.8204C14.4999 52.7632 14.7828 53.1162 14.6843 53.2757C14.6346 53.3561 14.6041 53.3589 14.5347 53.2894C14.4684 53.2231 14.4677 53.2021 14.5317 53.2021C14.5781 53.2021 14.616 53.1691 14.616 53.1287C14.616 53.0884 14.5765 53.0622 14.5282 53.0706C14.4799 53.079 14.3512 53.0427 14.2423 52.99C14.0685 52.9058 14.0153 52.9097 13.8071 53.0218C13.6767 53.092 13.5579 53.1851 13.5432 53.2285C13.4937 53.3749 13.5754 53.9965 13.6322 53.9048C13.6725 53.8395 13.729 53.8644 13.8458 53.9987C13.9332 54.0991 14.0373 54.1612 14.0772 54.1364C14.1191 54.1106 14.0923 54.0677 14.014 54.0351C13.9328 54.0014 13.9879 53.9959 14.1506 54.0216C14.3648 54.0554 14.416 54.0437 14.3896 53.9672C14.371 53.9136 14.414 53.795 14.485 53.7034C14.556 53.6119 14.6008 53.5155 14.5845 53.4891C14.5682 53.4627 14.6141 53.4041 14.6864 53.3589C14.8025 53.2865 14.8136 53.2951 14.78 53.4327C14.759 53.5185 14.7385 53.644 14.7342 53.7116C14.7289 53.7964 14.6875 53.8223 14.601 53.7948C14.532 53.7728 14.4755 53.7887 14.4755 53.83C14.4755 53.8713 14.515 53.9057 14.5633 53.9065C14.6731 53.9085 14.3309 54.1824 14.216 54.1846C14.0847 54.1871 14.0256 54.3361 14.1302 54.4008C14.1822 54.4329 14.2321 54.5767 14.2413 54.7202C14.2571 54.9669 14.2525 54.9732 14.1559 54.8354C14.0997 54.7552 14.0729 54.6396 14.0964 54.5784C14.1203 54.5163 14.1029 54.4673 14.0571 54.4673C14.0121 54.4673 13.9947 54.4989 14.0186 54.5376C14.1322 54.7214 13.9236 54.5697 13.73 54.3278L13.5118 54.0549L13.429 54.4249C13.3834 54.6284 13.3684 54.8529 13.3956 54.9237C13.4281 55.0086 13.4188 55.0364 13.3683 55.0052C13.322 54.9766 13.2206 55.1129 13.1123 55.3493C13.0137 55.5647 12.4151 56.4902 11.7819 57.406C11.1488 58.3218 10.367 59.4578 10.0444 59.9303C9.72186 60.4029 9.44521 60.7768 9.42968 60.7612C9.41414 60.7457 9.64581 60.0901 9.94453 59.3046C10.2432 58.519 10.5737 57.639 10.6789 57.3491C10.7841 57.0591 10.9171 56.7112 10.9745 56.5759C11.1145 56.2452 11.2013 55.8711 11.1049 56.0136C11.044 56.1036 11.0334 56.1004 11.0324 55.9919C11.0319 55.922 11.0031 55.8823 10.9685 55.9036C10.9338 55.9251 10.8874 55.8953 10.8652 55.8375C10.8431 55.7797 10.7844 55.735 10.7348 55.738C10.6643 55.7424 10.6639 55.7512 10.7327 55.779C10.9058 55.8489 10.8157 55.9118 10.5477 55.9083C10.3382 55.9055 10.2838 55.9281 10.3136 56.0058C10.3376 56.0686 10.3225 56.0885 10.2737 56.0583C10.2304 56.0315 10.1617 56.0719 10.121 56.1479C10.0719 56.2397 10.0707 56.3009 10.1174 56.3298C10.1562 56.3537 10.1854 56.4268 10.1824 56.4922C10.1789 56.5654 10.1632 56.5773 10.1414 56.5232C10.1219 56.4749 10.059 56.4353 10.0016 56.4353C9.92548 56.4353 9.91086 56.3926 9.94734 56.2772C10.036 55.9972 10.2164 55.8025 10.3715 55.8197C10.4531 55.8288 10.5732 55.7919 10.6384 55.7378C10.7405 55.653 10.7897 55.655 10.9924 55.7516C11.122 55.8134 11.247 55.8449 11.2702 55.8217C11.3373 55.7545 11.3193 55.5216 11.247 55.5216C11.2109 55.5216 11.1609 55.4568 11.1357 55.3776C11.084 55.2144 11.28 54.8606 11.3859 54.9261C11.4229 54.9489 11.4531 54.9288 11.4531 54.8814C11.4531 54.834 11.4697 54.8118 11.4899 54.8321C11.5471 54.8892 11.4457 55.1036 11.3805 55.0633C11.3019 55.0147 11.2207 55.2892 11.2836 55.3911C11.3473 55.4941 11.5234 55.2704 11.5234 55.0864C11.5234 55.0165 11.5569 54.9593 11.5978 54.9593C11.6387 54.9593 11.6548 54.931 11.6334 54.8964C11.612 54.8617 11.6439 54.8145 11.7044 54.7913C11.7773 54.7633 11.7992 54.7018 11.7695 54.6082C11.7407 54.5173 11.7576 54.4644 11.8174 54.4592C12.0113 54.4422 12.0551 54.4289 12.2133 54.3391C12.3339 54.2705 12.3567 54.2235 12.3017 54.1572C12.2609 54.1081 12.2481 54.0472 12.2733 54.0219C12.2985 53.9968 12.2682 53.9199 12.206 53.8511C12.1314 53.7687 12.1141 53.6916 12.1553 53.625C12.208 53.5397 12.2406 53.5447 12.365 53.6574C12.4461 53.7307 12.4972 53.8303 12.4787 53.8786C12.4273 54.0124 12.6488 54.0298 12.9863 53.9185C13.1925 53.8504 13.2775 53.7874 13.252 53.7212C13.2315 53.6676 13.2427 53.6238 13.2769 53.6238C13.3112 53.6238 13.3533 53.6634 13.3706 53.7117C13.3888 53.7628 13.428 53.7735 13.4642 53.7372C13.5005 53.7009 13.4972 53.6637 13.4563 53.6482C13.2168 53.5574 13.1982 53.5077 13.3069 53.2475C13.3658 53.1065 13.4393 52.9889 13.4703 52.9861C13.654 52.969 13.8731 52.9107 13.9734 52.8521C14.0741 52.7933 14.0704 52.7844 13.9448 52.7825C13.8655 52.7814 13.7628 52.8183 13.7164 52.8647C13.6577 52.9234 13.632 52.9251 13.632 52.8706C13.632 52.8274 13.6716 52.7759 13.7199 52.7561C13.8646 52.6969 14.2586 52.7333 14.2161 52.802ZM14.8986 52.8875C14.9475 52.9464 15.002 52.9801 15.0197 52.9625C15.0684 52.9137 14.9694 52.7804 14.8845 52.7804C14.8378 52.7804 14.8431 52.8207 14.8986 52.8875ZM14.37 52.921C14.3939 52.9596 14.4274 52.9913 14.4445 52.9913C14.4616 52.9913 14.4755 52.9596 14.4755 52.921C14.4755 52.8823 14.4419 52.8507 14.401 52.8507C14.3601 52.8507 14.3461 52.8823 14.37 52.921ZM13.3254 53.3778C13.301 53.4414 13.3251 53.4833 13.386 53.4833C13.447 53.4833 13.471 53.4414 13.4466 53.3778C13.4243 53.3198 13.3971 53.2724 13.386 53.2724C13.375 53.2724 13.3477 53.3198 13.3254 53.3778ZM12.2273 53.6716C12.2294 53.7792 12.359 53.9363 12.4066 53.8888C12.4326 53.8627 12.4027 53.7902 12.3401 53.7276C12.2775 53.665 12.2268 53.6398 12.2273 53.6716ZM12.8149 53.8489C12.7959 53.8798 12.7336 53.905 12.6765 53.905C12.5923 53.905 12.5879 53.8767 12.6531 53.7549C12.7152 53.6389 12.7465 53.6262 12.7915 53.6988C12.8234 53.7506 12.834 53.818 12.8149 53.8489ZM11.533 53.9542C11.4535 53.9858 11.4532 54.0022 11.531 54.0503C11.5826 54.0821 11.6027 54.1303 11.5758 54.1572C11.5103 54.2227 11.3035 54.0468 11.3526 53.9673C11.3738 53.933 11.4446 53.9075 11.51 53.9105C11.595 53.9145 11.6016 53.9269 11.533 53.9542ZM12.424 54.0936C12.4747 54.1139 12.5353 54.1114 12.5587 54.088C12.582 54.0647 12.5405 54.0481 12.4664 54.0511C12.3846 54.0545 12.3679 54.0711 12.424 54.0936ZM13.6342 54.0967C13.6374 54.1762 13.9835 54.4154 13.9835 54.3381C13.9835 54.302 13.9044 54.2208 13.8077 54.1575C13.7111 54.0941 13.633 54.0668 13.6342 54.0967ZM13.671 54.8126C13.6026 54.9232 13.4212 54.9064 13.4212 54.7894C13.4212 54.6713 13.5714 54.6022 13.6575 54.6808C13.6909 54.7113 13.6969 54.7706 13.671 54.8126ZM14.4467 54.8007C14.3979 54.8494 14.2646 54.7503 14.2646 54.6654C14.2646 54.6188 14.305 54.6241 14.3717 54.6796C14.4306 54.7285 14.4644 54.783 14.4467 54.8007ZM17.7774 55.1702C18.6647 55.6729 18.8654 55.8291 18.9524 56.0839C19.0716 56.4337 19.0629 57.151 18.9333 57.6512C18.7063 58.5273 18.5961 58.7137 16.6188 61.5663C15.572 63.0765 13.1307 66.6147 12.4077 67.6694C11.4539 69.0608 10.9053 69.7584 10.3419 70.2962C9.44929 71.1483 8.81009 71.3969 8.50617 71.0105C8.2215 70.6487 8.35596 69.4562 8.81831 68.2426C8.99621 67.7754 8.93907 67.8487 12.9621 62.9339C13.3088 62.5104 13.8798 61.8158 14.2309 61.3906C16.8911 58.1688 17.0951 57.8751 17.2894 56.9874C17.3797 56.5755 17.3529 55.252 17.2493 55.0025C17.1822 54.8408 17.2138 54.8508 17.7774 55.1702ZM15.8663 55.5973C15.9831 56.1798 15.8913 56.8108 15.6215 57.2818C15.5131 57.4711 15.04 58.0934 14.5701 58.6648C12.6187 61.0383 11.9237 61.8899 11.8332 62.019C11.593 62.3613 11.728 62.0004 12.2537 60.8948C12.5672 60.2355 13.1517 59.002 13.5527 58.1536C13.9537 57.3052 14.4163 56.4213 14.5807 56.1893C14.9337 55.6914 15.5689 55.0779 15.6903 55.1178C15.7373 55.1333 15.8165 55.349 15.8663 55.5973ZM10.0677 56.6462C10.0879 56.7235 10.0795 56.7868 10.049 56.7868C10.0185 56.7868 9.97693 56.7235 9.95669 56.6462C9.93652 56.5689 9.94495 56.5056 9.97546 56.5056C10.006 56.5056 10.0475 56.5689 10.0677 56.6462ZM10.4592 56.8571C10.5033 56.8571 10.5404 56.9124 10.5416 56.9801C10.5437 57.0913 10.5536 57.0901 10.6471 56.9666C10.7564 56.8221 10.7779 56.8437 10.7076 57.027C10.6499 57.1773 10.4704 57.1686 10.4635 57.0152C10.4602 56.9418 10.4437 56.9276 10.4226 56.9801C10.403 57.0284 10.3591 57.0679 10.3249 57.0679C10.2906 57.0679 10.2828 57.0153 10.3075 56.951C10.3377 56.8723 10.3255 56.8507 10.2702 56.8848C10.2163 56.9181 10.1887 56.8797 10.1902 56.7733C10.1922 56.6234 10.1995 56.6205 10.2858 56.7341C10.3372 56.8017 10.4152 56.8571 10.4592 56.8571ZM21.0471 57.8207C21.3189 58.3817 21.4557 59.0051 21.4158 59.5016C21.3478 60.3492 21.7379 59.83 14.9248 68.1406C12.9704 70.5247 12.5641 70.9152 11.6336 71.3037L11.3572 71.4192L11.723 71.0189C12.2261 70.4684 12.5412 70.0471 13.6669 68.4194C14.2016 67.6462 15.2297 66.1596 15.9515 65.1158C16.6733 64.0721 17.6941 62.5975 18.2198 61.8391C18.7455 61.0807 19.32 60.2369 19.4965 59.9641C19.9703 59.2318 20.3202 58.2951 20.4846 57.3196L20.531 57.0441L20.7003 57.2493C20.7934 57.3621 20.9494 57.6193 21.0471 57.8207ZM9.98263 57.6712C9.986 57.7531 10.0027 57.7697 10.0251 57.7137C10.0454 57.663 10.0429 57.6023 10.0195 57.579C9.99619 57.5557 9.9796 57.5971 9.98263 57.6712ZM8.99305 58.6301C8.99305 58.7032 8.96367 58.745 8.92782 58.7228C8.89197 58.7006 8.84137 58.7494 8.81543 58.8312C8.7812 58.9391 8.74704 58.9587 8.69109 58.9027C8.63522 58.8468 8.64969 58.7995 8.74402 58.7306C8.81543 58.6784 8.85472 58.6044 8.83118 58.5663C8.80763 58.5283 8.83441 58.4971 8.89071 58.4971C8.94701 58.4971 8.99305 58.557 8.99305 58.6301ZM8.97133 64.3922C8.05352 66.3729 7.63067 67.1439 7.33019 67.3845C7.16944 67.5133 7.0238 67.5931 7.00644 67.5621C6.98915 67.5311 7.0276 67.3 7.09191 67.0487C7.19109 66.6615 7.36709 66.3642 8.24702 65.0983C8.81796 64.2768 9.29662 63.6047 9.31068 63.6047C9.32474 63.6047 9.172 63.959 8.97133 64.3922Z" fill="black"/>
</svg>
