<svg width="70" height="79" viewBox="0 0 70 79" fill="none" xmlns="http://www.w3.org/2000/svg">
<path fill-rule="evenodd" clip-rule="evenodd" d="M36.4713 0.560446C33.4087 1.22634 34.9908 0.403475 18.3646 9.97461C10.8672 14.2909 4.10583 18.3994 3.33997 19.1054C-1.25723 23.3395 -1.08249 31.0695 3.70225 35.1652C6.70123 37.7321 10.6222 38.4963 14.6919 37.3071C15.4202 37.0943 15.6065 37.2695 15.8279 38.3761C16.5016 41.7444 15.713 51.3705 13.7864 63.2949L12.6955 70.0468L11.0807 70.7594C9.02854 71.6648 7.73146 74.0111 7.91197 76.4917L8.03755 78.22H36.5403H65.043L65.1727 76.8722C65.3607 74.9203 63.6125 73.3039 60.578 72.6248C58.3226 72.1201 58.2271 72.0457 58.2271 70.7866C58.2271 69.5379 58.3444 69.4416 60.6519 68.8001C64.1875 67.817 66.9151 65.5016 68.6228 62.0338L70 59.2376V51.1726V43.108L68.2423 42.9808C66.5524 42.8585 66.4966 42.8114 66.792 41.7415C67.2303 40.1528 67.018 37.7127 66.3269 36.3929C65.3859 34.5968 63.2655 32.7929 59.2598 30.3821C55.9337 28.3803 55.3798 27.8669 54.0013 25.5057C53.1537 24.0545 52.4568 22.774 52.4526 22.6604C52.4481 22.5468 53.4205 21.9168 54.6131 21.2604C59.9022 18.3495 60.2471 16.7921 56.9003 10.9367C55.7164 8.86465 53.8555 6.27628 52.7658 5.18408C50.5409 2.95509 46.7331 0.994183 43.4012 0.362579C40.6335 -0.16245 39.669 -0.134773 36.4713 0.560446ZM43.4392 2.05126C44.6429 2.30283 46.6736 3.06001 47.9513 3.73334C50.3786 5.01224 53.3627 7.76709 52.6505 8.07153C52.4233 8.16861 47.4973 11.0032 41.7038 14.3702C32.2421 19.87 29.5621 21.8342 31.5197 21.8342C31.8588 21.8342 37.0145 19.0162 42.9761 15.5715L53.8162 9.30913L54.5759 10.2472C54.9935 10.7632 55.3281 11.3973 55.3194 11.6563C55.3033 12.1231 19.4676 32.978 14.941 35.1549C11.12 36.9923 7.72278 36.5255 4.71141 33.7496C1.31587 30.6197 0.676827 25.9192 3.11319 21.99C4.37805 19.9493 5.26246 19.395 28.6917 5.94787C35.8525 1.83811 38.7552 1.07102 43.4392 2.05126ZM30.2408 9.50493C28.2344 10.6669 27.5884 11.5724 28.4058 12.0776C28.9482 12.413 33.6367 9.62844 33.7821 8.88448C33.9845 7.8526 32.7081 8.07608 30.2408 9.50493ZM24.6641 12.7745C23.2229 13.5354 22.7565 14.3157 23.3741 14.9328C23.947 15.5062 27.8358 12.9533 27.4182 12.278C27.0869 11.7414 26.3797 11.869 24.6641 12.7745ZM56.9982 14.4177C57.2469 14.8829 57.3927 15.8528 57.3225 16.5736C57.2035 17.7922 56.7739 18.1251 51.2246 21.3051C47.9414 23.1867 44.9118 24.7258 44.4925 24.7258C43.6139 24.7258 41.6109 22.7327 41.8298 22.0763C41.9719 21.6492 55.6569 13.5825 56.2505 13.5759C56.4129 13.5742 56.7491 13.953 56.9982 14.4177ZM22.7032 25.3591C19.4147 27.263 16.6594 29.0148 16.5805 29.2515C16.1336 30.5932 18.2192 29.8852 23.2055 27.004C29.5592 23.3325 30.0008 22.9909 29.2242 22.3464C28.8136 22.0052 27.236 22.7343 22.7032 25.3591ZM40.8966 24.1413C41.5406 25.3446 43.2719 26.3781 44.6437 26.3781C45.1473 26.3781 46.7591 25.7189 48.2252 24.9129C49.6912 24.107 50.9255 23.5031 50.9684 23.5704C53.8575 28.13 53.9744 28.5138 54.1764 34.1073C54.3318 38.4158 54.5383 39.8302 55.2108 41.1892L56.051 42.8874L45.8826 42.9977L35.7141 43.108L35.6009 50.5071C35.515 56.1296 35.6365 58.4177 36.1065 60.0345C37.3355 64.262 40.7624 67.6046 45.1051 68.8121C47.1656 69.3846 47.487 69.6089 47.487 70.4718C47.487 71.3815 47.3684 71.4442 46.1445 71.1811C43.4714 70.6065 39.6087 68.936 37.2516 67.3357C32.8915 64.3747 28.1402 58.5185 26.644 54.2612C25.5572 51.1681 25.3284 42.6342 26.1789 36.901C27.2451 29.7154 26.6862 30.5094 33.45 26.571C36.7398 24.6552 39.6326 23.0842 39.8784 23.0805C40.1242 23.0768 40.5823 23.5539 40.8966 24.1413ZM25.4597 31.6449C25.3589 31.8151 25.0524 33.3026 24.7782 34.9496L24.2796 37.9445H20.8539C17.6492 37.9445 17.4125 37.8846 17.184 37.015C17.0498 36.504 17.0746 36.0294 17.2394 35.9612C17.4038 35.8927 19.2114 34.8393 21.2562 33.6203C24.8802 31.4599 25.8328 31.0121 25.4597 31.6449ZM60.0034 32.7103C65.0414 35.9327 66.6367 39.2279 64.6047 42.2145C64.1396 42.8986 63.9161 42.6738 62.3414 39.9425C61.3802 38.2757 59.9385 35.7964 59.1376 34.4332C57.2651 31.2455 57.3093 31.3351 57.603 31.3351C57.7409 31.3351 58.8211 31.9539 60.0034 32.7103ZM58.9922 37.4537C60.616 40.2511 61.9449 42.621 61.9449 42.7205C61.9449 42.8201 61.122 42.9015 60.1162 42.9015C57.8768 42.9015 56.8528 41.8138 56.1923 38.7334C55.7854 36.8357 55.5553 31.7949 55.894 32.1956C55.9742 32.2906 57.3683 34.6563 58.9922 37.4537ZM24.0429 45.8963C24.3039 54.0212 24.9727 56.2168 28.6925 61.1568C35.1279 69.7031 41.0606 72.7698 52.5778 73.5026C55.9457 73.717 59.4445 74.0591 60.3524 74.2631C61.9564 74.6237 63.5972 75.7168 63.5972 76.4252C63.5972 76.6173 51.3972 76.7743 36.4862 76.7743H9.37512L9.62255 75.25C10.086 72.3956 10.8564 72.042 16.9531 71.8871C21.7156 71.7665 22.3215 71.671 22.2046 71.0609C22.0952 70.4867 21.4342 70.3516 18.2568 70.2525C15.6044 70.1703 14.4416 69.9811 14.4445 69.6329C14.4469 69.3578 14.8063 67.0875 15.2434 64.5883C16.4938 57.4354 17.315 50.5765 17.605 44.8636L17.8722 39.5968H20.8563H23.8409L24.0429 45.8963ZM68.4757 51.886C68.3142 58.8473 68.2498 59.3256 67.2071 61.3406C65.8464 63.9695 63.2882 66.2088 60.6408 67.0883C59.0293 67.6236 57.2861 67.7286 51.921 67.6137C44.5128 67.4555 43.2372 67.0912 40.4964 64.35C37.6763 61.5298 37.383 60.4281 37.2314 52.0925L37.0942 44.5538H52.8703H68.6463L68.4757 51.886ZM63.6881 52.7122C63.7839 57.0669 63.9112 57.979 64.4234 57.979C64.9356 57.979 65.0628 57.0669 65.1587 52.7122C65.2702 47.6325 65.2442 47.4454 64.4234 47.4454C63.6026 47.4454 63.5766 47.6325 63.6881 52.7122ZM56.4976 70.6813C56.4265 71.4195 56.2286 71.9771 56.0584 71.9205C55.8883 71.8639 54.2615 71.8173 52.444 71.8173H49.1393V70.578V69.3388H52.8831H56.6273L56.4976 70.6813Z" fill="black"/>
</svg>
