<svg width="70" height="71" viewBox="0 0 70 71" fill="none" xmlns="http://www.w3.org/2000/svg">
<path fill-rule="evenodd" clip-rule="evenodd" d="M27.7252 0.0752915C27.3596 0.112747 26.7772 0.195869 26.4309 0.25999C25.031 0.519365 24.7012 0.709224 24.0585 1.62544L23.7272 2.09774H27.6811C30.3165 2.09774 31.635 2.07116 31.635 2.01798C31.635 1.83665 30.9297 0.557368 30.7238 0.365163C30.6013 0.250919 30.3604 0.119159 30.1884 0.072398C29.8293 -0.0252684 28.6941 -0.0239388 27.7252 0.0752915ZM26.7087 2.95829C23.1132 3.00779 23.0533 3.01388 20.8831 3.55351C15.1866 4.97011 9.93725 8.16174 6.28668 12.4283C1.49219 18.0318 -0.639031 25.0265 0.166384 32.5159C0.786476 38.2817 2.90738 43.6877 6.30373 48.1591C7.77005 50.0896 9.65355 51.0672 11.656 50.937C12.4256 50.8869 13.5368 50.6188 14.2026 50.3224C14.4362 50.2184 17.1786 48.6614 20.2966 46.8623C23.4147 45.0633 27.1974 42.8809 28.7026 42.0126C30.2079 41.1444 34.9231 38.4203 39.1809 35.9593C43.4386 33.4982 47.9424 30.8985 49.1893 30.1822C51.8049 28.6794 52.1309 28.4152 52.6495 27.3774C53.1504 26.3749 53.2571 25.7813 53.2505 24.0316C53.2455 22.7365 53.2182 22.4206 53.0377 21.5685C52.6497 19.7371 52.2152 18.6648 51.0183 16.5843C48.3412 11.9309 44.8963 8.258 40.8585 5.75191C38.7104 4.41867 33.149 2.84365 30.7748 2.89612C30.3663 2.90519 28.5365 2.93311 26.7087 2.95829ZM40.8621 10.8557C40.9481 10.9417 41.0185 11.0594 41.0185 11.1172C41.0185 11.3295 41.3782 11.1124 33.6861 15.5427C31.3522 16.887 29.3781 18.0038 29.2994 18.0243C29.0304 18.0947 28.7987 17.7015 28.9598 17.4481C28.9924 17.3968 29.5461 17.0502 30.1902 16.6779C30.8343 16.3055 32.0827 15.5846 32.9643 15.0759C33.846 14.5671 35.9045 13.3753 37.5388 12.4273C39.173 11.4793 40.5542 10.7027 40.6079 10.7015C40.6617 10.7003 40.7761 10.7696 40.8621 10.8557ZM21.5614 11.8094C23.1159 12.528 23.8384 14.5581 23.591 17.5118C23.5026 18.5668 23.1783 20.6758 23.0543 21.0017C23.0213 21.0884 22.6601 21.4337 22.2515 21.7691C19.1333 24.3287 15.7713 27.7203 12.0638 32.0467C11.1609 33.1004 10.3961 33.9916 10.3644 34.0271C10.2778 34.1244 9.40786 32.89 8.96872 32.0467C7.26147 28.7681 7.43162 24.8753 9.4626 20.7474C10.5052 18.6282 11.5898 17.1302 13.3722 15.3479C15.3441 13.3761 17.1472 12.2075 18.9782 11.7146C19.8229 11.4872 20.9542 11.5287 21.5614 11.8094ZM41.9412 12.6698C42.0777 12.8063 42.056 13.0811 41.8982 13.2162C41.8229 13.2807 40.5473 14.0307 39.0636 14.883C37.5798 15.7353 35.0336 17.2011 33.4053 18.1404C31.777 19.0797 30.3871 19.8476 30.3165 19.847C30.0586 19.8446 29.9596 19.7018 29.9836 19.3666C29.9897 19.2821 30.9667 18.6761 32.7884 17.6268C34.3259 16.7412 36.9034 15.246 38.5162 14.3042C40.129 13.3624 41.5383 12.5882 41.6479 12.5839C41.7576 12.5795 41.8896 12.6182 41.9412 12.6698ZM42.9814 14.5217C43.3402 14.8121 43.1594 14.9575 40.6143 16.4245C39.3099 17.1765 36.7366 18.6591 34.8961 19.7192C33.0556 20.7793 31.4677 21.6467 31.3674 21.6467C31.1262 21.6467 30.9805 21.4598 31.0392 21.2257C31.0771 21.0751 31.7325 20.6653 34.3126 19.179C36.087 18.1569 38.4185 16.8098 39.4936 16.1854C42.4583 14.4637 42.6147 14.3756 42.7105 14.375C42.7596 14.3747 42.8815 14.4407 42.9814 14.5217ZM44.0865 16.3595C44.1768 16.4966 44.1559 16.7716 44.0485 16.858C43.9948 16.9014 42.0506 18.0354 39.7282 19.3781C37.4058 20.7208 34.8401 22.2052 34.0268 22.6767C32.4768 23.5752 32.289 23.6342 32.1006 23.2822C32.0355 23.1605 32.0397 23.0843 32.1179 22.9707C32.1748 22.888 34.8078 21.3271 37.9688 19.502C43.6825 16.2031 43.9073 16.0876 44.0865 16.3595ZM49.8572 16.9204C49.994 17.1596 50.0934 17.3674 50.078 17.3824C50.0355 17.4239 48.5812 18.272 45.9839 19.7699C44.6937 20.5141 42.4064 21.8345 40.9012 22.7043C38.4365 24.1284 25.8829 31.3782 22.7598 33.1811C22.0717 33.5783 19.1159 35.2854 16.1913 36.9745C13.2668 38.6637 10.4166 40.3088 9.85749 40.6305C9.29839 40.9521 7.93379 41.7401 6.82498 42.3815C5.71624 43.0229 4.78204 43.531 4.74904 43.5106C4.6215 43.4318 4.3185 42.6764 4.38926 42.6138C4.42922 42.5784 7.24184 40.9474 10.6394 38.9894C14.037 37.0313 18.8578 34.2512 21.3523 32.8112C23.8467 31.3712 30.8139 27.3491 36.835 23.8733C42.8561 20.3974 48.1871 17.3163 48.6816 17.0264C49.1762 16.7365 49.5871 16.4963 49.5947 16.4926C49.6023 16.4888 49.7205 16.6814 49.8572 16.9204ZM48.7404 31.4049C48.3212 31.6504 47.9869 31.8927 47.9975 31.9435C48.0082 31.9942 49.2134 34.1139 50.6756 36.654C52.664 40.1077 53.3638 41.2614 53.4516 41.2297C53.7178 41.1333 55.0124 40.3694 55.0138 40.3078C55.018 40.1385 49.7125 30.9939 49.5991 30.9749C49.5461 30.966 49.1596 31.1596 48.7404 31.4049ZM37.3433 37.9879C36.9347 38.2373 36.6107 38.4849 36.6232 38.5381C36.6358 38.5913 37.4596 40.0467 38.4539 41.7723C41.2965 46.7059 41.8866 47.72 41.958 47.794C42.0416 47.8807 43.6459 46.9451 43.6173 46.8263C43.6059 46.779 42.8369 45.4311 41.9086 43.8311C40.9801 42.231 39.779 40.1565 39.2393 39.2211C38.6996 38.2858 38.2194 37.5235 38.1721 37.5274C38.1248 37.5313 37.7518 37.7385 37.3433 37.9879ZM56.9604 40.6361C56.6175 40.7255 56.0091 41.0195 55.1619 41.505C52.7927 42.8626 52.4213 43.1725 51.9233 44.2081C51.429 45.2358 51.3961 46.4771 51.8369 47.4698C51.9374 47.6961 52.7522 49.1481 53.6475 50.6964C55.5059 53.9099 55.4832 53.8705 58.2054 58.5941C59.8614 61.4676 60.3177 62.2003 60.6936 62.5891C61.6151 63.5423 62.962 63.9608 64.2549 63.6954C64.9746 63.5477 65.2085 63.4363 67.009 62.3832C68.6521 61.4222 69.1525 60.9794 69.5829 60.1054C70.0544 59.1478 70.125 58.1891 69.8006 57.1485C69.7267 56.9114 69.2588 56.0137 68.761 55.1535C66.9101 51.9562 65.0001 48.6483 63.1428 45.4243C61.0554 41.8005 60.8055 41.4585 59.8964 40.981C58.9586 40.4885 57.9706 40.3725 56.9604 40.6361ZM59.1627 41.946C59.4795 42.0882 59.757 42.2929 60.0037 42.5663C60.4143 43.0214 68.4685 56.8999 68.6767 57.5111C68.8682 58.0729 68.7876 59.0253 68.4997 59.6046C68.3732 59.8592 68.2304 60.0805 68.1824 60.0963C68.13 60.1135 68.0785 59.9773 68.0535 59.7551C68.0298 59.5443 67.879 59.1308 67.7032 58.7941C67.3351 58.089 58.5985 42.9214 58.3292 42.52C58.2264 42.3667 58.0051 42.1381 57.8373 42.0119C57.6696 41.8858 57.5516 41.7514 57.5752 41.7132C57.6581 41.5791 58.6786 41.7287 59.1627 41.946ZM56.7976 42.7512C56.9571 42.8326 57.1454 42.9646 57.2159 43.0444C57.2864 43.1243 58.2594 44.773 59.3781 46.7084C60.4968 48.6437 62.6379 52.3385 64.1361 54.9189L66.8601 59.6107L66.8611 60.1647C66.862 60.6479 66.8335 60.7601 66.6383 61.0416C66.2282 61.6336 65.4229 61.8444 64.7508 61.5358C64.2565 61.3088 65.0915 62.6824 58.3998 51.0873C56.4638 47.7327 54.8223 44.8755 54.7522 44.7378C54.5017 44.2468 54.6649 43.3264 55.0631 42.9843C55.5304 42.5828 56.2723 42.4831 56.7976 42.7512ZM53.524 44.8317C53.5746 45.0467 53.8207 45.5745 54.0709 46.0046C54.5173 46.772 58.1796 53.1136 61.3864 58.6723C63.0991 61.6412 63.3264 61.9921 63.7508 62.323L64.0152 62.529L63.7826 62.5801C63.4574 62.6515 62.7156 62.5005 62.2327 62.2647C61.6426 61.9764 61.1972 61.4266 60.3362 59.9234C59.9174 59.1923 58.5777 56.8699 57.3592 54.7625C53.3706 47.865 52.9051 47.0411 52.813 46.7164C52.6985 46.3127 52.7046 45.3755 52.8236 45.0663C52.8732 44.9372 53.0055 44.6747 53.1175 44.4828C53.3452 44.0927 53.3513 44.098 53.524 44.8317ZM45.69 47.1824C45.1423 47.3151 45.099 47.3364 43.2598 48.3769C41.6265 49.3009 41.0635 49.7713 40.6434 50.5629C40.2511 51.3025 40.1373 51.8227 40.1714 52.7201C40.2085 53.6958 40.2372 53.7612 41.8623 56.5752C42.5125 57.7011 44.352 60.8856 45.95 63.6519C47.548 66.4181 48.9747 68.828 49.1203 69.0071C49.4471 69.4092 50.1796 69.9064 50.7711 70.1277C51.6429 70.4539 53.0046 70.3971 53.787 70.002C54.8115 69.4846 56.9902 68.1448 57.3634 67.8027C58.0962 67.1309 58.6101 65.9459 58.6101 64.928C58.6101 64.4151 58.4258 63.6488 58.1907 63.185C57.9958 62.8003 50.7584 50.2508 50.0784 49.1184C49.8672 48.7666 49.5119 48.3147 49.2888 48.1143C48.309 47.2333 46.9413 46.8792 45.69 47.1824ZM47.7922 48.5391C48.0702 48.6692 48.4331 48.9233 48.621 49.1196C48.8444 49.3528 49.9917 51.2691 52.0771 54.8916C53.794 57.8742 55.6278 61.0573 56.1521 61.9652C57.3072 63.9652 57.4011 64.192 57.3984 64.9752C57.3966 65.5075 57.3643 65.6346 57.0901 66.1872L56.7839 66.8047L56.6818 66.3055C56.5578 65.6984 56.9163 66.3503 52.3992 58.5159C46.3299 47.9893 46.868 48.8839 46.4018 48.5461C46.0323 48.2785 46.1131 48.2224 46.7972 48.2717C47.1285 48.2955 47.465 48.386 47.7922 48.5391ZM45.3583 49.3193C45.5304 49.3987 45.746 49.5475 45.8377 49.6499C45.9292 49.7524 47.6148 52.6336 49.5833 56.0528C51.5518 59.4719 53.6654 63.1388 54.28 64.2016C54.8946 65.2644 55.4332 66.2635 55.4769 66.4218C55.6474 67.039 55.2688 67.8416 54.6741 68.1238C54.3435 68.2807 53.6731 68.2894 53.389 68.1406C53.2729 68.0798 53.0687 67.9127 52.9352 67.7692C52.6733 67.4878 43.4479 51.5568 43.2983 51.1276C43.1707 50.7616 43.1885 50.433 43.3557 50.0708C43.7201 49.2813 44.5782 48.9593 45.3583 49.3193ZM42.0376 50.9505C42.043 51.4079 42.3906 52.0774 44.6457 55.9746C45.9274 58.1895 48.0371 61.8475 49.3341 64.1035C51.2126 67.3712 51.7807 68.2978 52.1274 68.6598C52.3668 68.9097 52.5457 69.1311 52.5249 69.1519C52.3674 69.3094 51.1978 69.0615 50.6874 68.7623C49.9993 68.3591 50.4647 69.1105 44.3413 58.5159C42.8002 55.8494 41.4887 53.4972 41.427 53.2886C41.2438 52.6691 41.3223 51.8854 41.63 51.2602C41.9058 50.7 42.0334 50.6031 42.0376 50.9505Z" fill="black"/>
</svg>
