<?xml version="1.0" standalone="no"?>
<!DOCTYPE svg PUBLIC "-//W3C//DTD SVG 20010904//EN"
 "http://www.w3.org/TR/2001/REC-SVG-20010904/DTD/svg10.dtd">
<svg version="1.0" xmlns="http://www.w3.org/2000/svg"
 width="238.000000pt" height="335.000000pt" viewBox="0 0 238.000000 335.000000"
 preserveAspectRatio="xMidYMid meet">

<g transform="translate(0.000000,335.000000) scale(0.100000,-0.100000)"
fill="#000000" stroke="none">
<path d="M10 1790 l0 -1540 65 0 65 0 0 -115 0 -115 210 0 210 0 0 115 0 115
630 0 630 0 0 -115 0 -115 215 0 215 0 0 115 0 115 60 0 60 0 0 1540 0 1540
-1180 0 -1180 0 0 -1540z m2290 0 l0 -1470 -810 0 -810 0 0 1470 0 1470 810 0
810 0 0 -1470z m-1690 0 l0 -1460 -260 0 -260 0 0 1460 0 1460 260 0 260 0 0
-1460z m-120 -1620 l0 -80 -145 0 -145 0 0 80 0 80 145 0 145 0 0 -80z m1680
0 l0 -80 -145 0 -145 0 0 80 0 80 145 0 145 0 0 -80z"/>
<path d="M860 1790 l0 -1300 630 0 630 0 0 1300 0 1300 -630 0 -630 0 0 -1300z
m1200 1020 l0 -210 -570 0 -570 0 0 210 0 210 570 0 570 0 0 -210z m-95 -297
c5 -14 -10 -33 -61 -80 l-68 -63 -351 0 -351 0 -63 64 c-100 101 -123 96 424
96 432 0 463 -1 470 -17z m-917 -145 l77 -81 364 7 364 6 78 75 c71 68 81 74
99 63 20 -13 20 -24 20 -640 l0 -628 -560 0 -560 0 0 628 c0 628 1 652 33 652
5 0 43 -37 85 -82z m917 -1295 c5 -14 -10 -33 -61 -80 l-68 -63 -351 0 -351 0
-63 64 c-100 101 -123 96 424 96 432 0 463 -1 470 -17z m-485 -213 l365 0 83
76 c77 71 85 76 108 66 l24 -12 0 -215 0 -215 -570 0 -570 0 0 216 c0 195 2
218 18 230 15 11 26 4 97 -67 l80 -79 365 0z"/>
<path d="M1595 2165 c-59 -30 -81 -69 -116 -204 l-33 -128 -32 19 c-66 39
-187 32 -153 -8 9 -11 6 -14 -17 -13 -16 0 -23 3 -16 6 16 6 15 30 -2 36 -51
20 -155 -57 -175 -128 -15 -55 -14 -73 9 -124 16 -34 20 -65 20 -151 0 -148
-12 -141 226 -138 160 3 189 5 189 18 0 11 -14 16 -52 18 l-53 3 0 65 c0 74
17 115 55 132 58 27 105 7 79 -33 -11 -17 -14 -46 -12 -111 l3 -89 152 -3 151
-3 22 28 c41 53 7 129 -69 154 -20 7 -53 26 -75 43 -30 25 -48 31 -87 32 -30
0 -55 7 -67 17 -10 9 -26 17 -36 17 -10 0 -14 5 -11 11 4 6 19 7 35 4 21 -5
34 -1 49 14 40 40 20 86 -44 102 -24 6 -46 17 -49 25 -4 11 0 13 22 7 15 -4
45 -8 67 -8 32 0 42 5 54 27 15 25 14 28 -8 51 -12 14 -43 30 -67 36 -24 6
-44 17 -44 24 0 11 11 11 59 -2 56 -14 61 -14 80 3 45 41 10 98 -69 111 -22 4
-40 9 -40 12 0 3 7 20 15 38 34 69 136 80 185 18 30 -38 26 -75 -31 -290 -38
-143 -48 -198 -40 -206 7 -7 14 -8 21 -1 5 5 33 97 61 204 59 225 61 270 13
322 -52 55 -114 71 -169 43z m-2 -186 c21 -5 37 -16 37 -24 0 -18 0 -18 -56
-4 -25 7 -44 17 -44 25 0 17 13 17 63 3z m-47 -130 c25 -7 44 -17 44 -25 0
-17 -13 -17 -62 -3 -22 5 -38 16 -38 24 0 18 0 18 56 4z m-363 -30 c-31 -9
-83 -60 -83 -81 0 -6 -3 -9 -6 -6 -3 4 2 20 10 37 18 33 59 60 91 60 12 -1 8
-4 -12 -10z m217 -4 c29 -15 67 -71 56 -83 -3 -3 -6 0 -6 6 0 21 -52 72 -83
81 -18 5 -24 10 -14 10 10 1 31 -6 47 -14z m-25 -41 c20 -8 45 -56 45 -87 0
-13 -9 -36 -20 -50 -11 -14 -20 -36 -20 -49 0 -36 -13 -49 -71 -72 -42 -16
-59 -30 -74 -59 -14 -26 -27 -37 -42 -37 -22 0 -23 3 -23 99 0 72 -4 102 -14
110 -33 28 -25 119 12 141 19 10 181 14 207 4z m-288 -86 c-3 -8 -6 -5 -6 6
-1 11 2 17 5 13 3 -3 4 -12 1 -19z m380 -10 c-3 -7 -5 -2 -5 12 0 14 2 19 5
13 2 -7 2 -19 0 -25z m88 22 c3 -5 4 -14 1 -19 -9 -13 -46 -1 -46 15 0 16 36
19 45 4z m-425 -201 c0 -108 4 -115 65 -122 33 -3 29 -4 -17 -5 l-58 -2 0 111
c0 61 -5 120 -11 132 -10 21 -10 21 5 3 12 -15 16 -44 16 -117z m548 24 l23
-14 -21 -26 c-13 -17 -20 -41 -20 -69 l0 -44 -55 0 -55 0 0 68 c0 68 10 95 40
105 20 7 60 -2 88 -20z m-336 -93 c-4 -55 -6 -60 -27 -60 -24 0 -55 23 -55 41
0 23 24 52 53 64 18 8 32 14 32 15 0 0 -2 -27 -3 -60z m452 27 c10 -7 18 -28
19 -47 l2 -35 -57 -3 -58 -3 0 39 c0 21 5 43 12 50 16 16 60 15 82 -1z"/>
<path d="M298 2974 c-76 -41 -74 -159 2 -199 57 -30 127 -10 155 45 53 103
-55 210 -157 154z"/>
<path d="M298 2494 c-53 -28 -72 -98 -43 -154 40 -78 160 -78 200 0 53 103
-55 210 -157 154z"/>
<path d="M298 2014 c-53 -28 -72 -98 -43 -154 40 -78 160 -78 200 0 53 103
-55 210 -157 154z"/>
</g>
</svg>
